<?xml version="1.0" encoding="UTF-8"?>
<svg id="Layer_1" xmlns="http://www.w3.org/2000/svg" xmlns:xlink="http://www.w3.org/1999/xlink" version="1.1" viewBox="0 0 504 360">
  <!-- Generator: Adobe Illustrator 29.5.0, SVG Export Plug-In . SVG Version: 2.1.0 Build 137)  -->
  <defs>
    <style>
      .st0, .st1 {
        fill: none;
      }

      .st2 {
        font-size: 15px;
      }

      .st2, .st3 {
        font-family: Oswald-Light, Oswald;
        font-weight: 300;
      }

      .st4 {
        fill: #ffcd63;
      }

      .st5 {
        clip-path: url(#clippath-17);
      }

      .st6 {
        clip-path: url(#clippath-19);
      }

      .st7 {
        clip-path: url(#clippath-11);
      }

      .st8 {
        clip-path: url(#clippath-16);
      }

      .st9 {
        clip-path: url(#clippath-18);
      }

      .st10 {
        clip-path: url(#clippath-10);
      }

      .st11 {
        clip-path: url(#clippath-15);
      }

      .st12 {
        clip-path: url(#clippath-13);
      }

      .st13 {
        clip-path: url(#clippath-14);
      }

      .st14 {
        clip-path: url(#clippath-12);
      }

      .st15 {
        clip-path: url(#clippath-20);
      }

      .st16 {
        clip-path: url(#clippath-1);
      }

      .st17 {
        clip-path: url(#clippath-3);
      }

      .st18 {
        clip-path: url(#clippath-4);
      }

      .st19 {
        clip-path: url(#clippath-2);
      }

      .st20 {
        clip-path: url(#clippath-7);
      }

      .st21 {
        clip-path: url(#clippath-6);
      }

      .st22 {
        clip-path: url(#clippath-9);
      }

      .st23 {
        clip-path: url(#clippath-8);
      }

      .st24 {
        clip-path: url(#clippath-5);
      }

      .st25 {
        fill: #66c5cc;
      }

      .st26 {
        letter-spacing: 0em;
      }

      .st27 {
        letter-spacing: 0em;
      }

      .st28 {
        fill: #fff;
      }

      .st29 {
        letter-spacing: 0em;
      }

      .st30 {
        letter-spacing: 0em;
      }

      .st1 {
        stroke: #d9d9d9;
        stroke-linejoin: round;
        stroke-width: .75px;
      }

      .st31 {
        letter-spacing: -.06em;
      }

      .st32 {
        letter-spacing: -.07em;
      }

      .st33 {
        letter-spacing: -.02em;
      }

      .st34 {
        letter-spacing: -.02em;
      }

      .st35 {
        letter-spacing: -.01em;
      }

      .st36 {
        letter-spacing: -.01em;
      }

      .st37 {
        letter-spacing: -.01em;
      }

      .st38 {
        letter-spacing: -.02em;
      }

      .st39 {
        letter-spacing: -.05em;
      }

      .st40 {
        letter-spacing: -.03em;
      }

      .st41 {
        letter-spacing: -.03em;
      }

      .st42 {
        letter-spacing: -.03em;
      }

      .st43 {
        letter-spacing: -.03em;
      }

      .st44 {
        letter-spacing: -.03em;
      }

      .st45 {
        letter-spacing: 0em;
      }

      .st46 {
        letter-spacing: 0em;
      }

      .st47 {
        letter-spacing: 0em;
      }

      .st48 {
        letter-spacing: -.01em;
      }

      .st49 {
        letter-spacing: -.01em;
      }

      .st50 {
        letter-spacing: -.01em;
      }

      .st51 {
        letter-spacing: -.01em;
      }

      .st52 {
        letter-spacing: 0em;
      }

      .st53 {
        letter-spacing: 0em;
      }

      .st54 {
        letter-spacing: 0em;
      }

      .st55 {
        letter-spacing: 0em;
      }

      .st56 {
        letter-spacing: 0em;
      }

      .st57 {
        letter-spacing: 0em;
      }

      .st58 {
        letter-spacing: 0em;
      }

      .st59 {
        letter-spacing: 0em;
      }

      .st60 {
        letter-spacing: 0em;
      }

      .st61 {
        letter-spacing: .06em;
      }

      .st62 {
        letter-spacing: .05em;
      }

      .st63 {
        letter-spacing: .06em;
      }

      .st64 {
        letter-spacing: .06em;
      }

      .st3 {
        font-size: 18px;
      }

      .st65 {
        letter-spacing: .02em;
      }

      .st66 {
        letter-spacing: .02em;
      }

      .st67 {
        letter-spacing: .02em;
      }

      .st68 {
        letter-spacing: .02em;
      }

      .st69 {
        letter-spacing: .02em;
      }

      .st70 {
        clip-path: url(#clippath);
      }

      .st71 {
        letter-spacing: .02em;
      }

      .st72 {
        letter-spacing: .01em;
      }

      .st73 {
        letter-spacing: .04em;
      }

      .st74 {
        letter-spacing: .03em;
      }

      .st75 {
        letter-spacing: .03em;
      }

      .st76 {
        letter-spacing: .03em;
      }

      .st77 {
        letter-spacing: 0em;
      }

      .st78 {
        letter-spacing: 0em;
      }

      .st79 {
        letter-spacing: 0em;
      }

      .st80 {
        letter-spacing: 0em;
      }

      .st81 {
        letter-spacing: .01em;
      }

      .st82 {
        letter-spacing: .01em;
      }

      .st83 {
        letter-spacing: 0em;
      }

      .st84 {
        letter-spacing: 0em;
      }
    </style>
    <clipPath id="clippath">
      <rect class="st0" x="-.45" y=".33" width="504" height="360"/>
    </clipPath>
    <clipPath id="clippath-1">
      <rect class="st0" x="175.55" y="46.33" width="310" height="274"/>
    </clipPath>
    <clipPath id="clippath-2">
      <rect class="st0" x="175.55" y="46.33" width="310" height="274"/>
    </clipPath>
    <clipPath id="clippath-3">
      <rect class="st0" x="-.45" y=".33" width="504" height="360"/>
    </clipPath>
    <clipPath id="clippath-4">
      <rect class="st0" x="-.45" y=".33" width="504" height="360"/>
    </clipPath>
    <clipPath id="clippath-5">
      <rect class="st0" x="-.45" y=".33" width="504" height="360"/>
    </clipPath>
    <clipPath id="clippath-6">
      <rect class="st0" x="-.45" y=".33" width="504" height="360"/>
    </clipPath>
    <clipPath id="clippath-7">
      <rect class="st0" x="-.45" y=".33" width="504" height="360"/>
    </clipPath>
    <clipPath id="clippath-8">
      <rect class="st0" x="-.45" y=".33" width="504" height="360"/>
    </clipPath>
    <clipPath id="clippath-9">
      <rect class="st0" x="-.45" y=".33" width="504" height="360"/>
    </clipPath>
    <clipPath id="clippath-10">
      <rect class="st0" x="-.45" y=".33" width="504" height="360"/>
    </clipPath>
    <clipPath id="clippath-11">
      <rect class="st0" x="-.45" y=".33" width="504" height="360"/>
    </clipPath>
    <clipPath id="clippath-12">
      <rect class="st0" x="-.45" y=".33" width="504" height="360"/>
    </clipPath>
    <clipPath id="clippath-13">
      <rect class="st0" x="-.45" y=".33" width="504" height="360"/>
    </clipPath>
    <clipPath id="clippath-14">
      <rect class="st0" x="-.45" y=".33" width="504" height="360"/>
    </clipPath>
    <clipPath id="clippath-15">
      <rect class="st0" x="-.45" y=".33" width="504" height="360"/>
    </clipPath>
    <clipPath id="clippath-16">
      <rect class="st0" x="-.45" y=".33" width="504" height="360"/>
    </clipPath>
    <clipPath id="clippath-17">
      <rect class="st0" x="-.45" y=".33" width="504" height="360"/>
    </clipPath>
    <clipPath id="clippath-18">
      <rect class="st0" x="-.45" y=".33" width="504" height="360"/>
    </clipPath>
    <clipPath id="clippath-19">
      <rect class="st0" x="-.45" y=".33" width="504" height="360"/>
    </clipPath>
    <clipPath id="clippath-20">
      <rect class="st0" x="-.45" y=".33" width="504" height="360"/>
    </clipPath>
  </defs>
  <rect class="st28" x="-.45" y=".33" width="504" height="360"/>
  <g class="st70">
    <path class="st1" d="M485.05,46.83v273M423.05,46.83v273M361.55,46.83v273M299.55,46.83v273M238.05,46.83v273"/>
  </g>
  <g class="st16">
    <rect class="st25" x="176.05" y="240.83" width="105" height="21.5"/>
  </g>
  <g class="st19">
    <path class="st4" d="M442.05,71.33H176.05v-21.5h266v21.5ZM343.05,98.83h-167v-22h167v22ZM336.55,125.83h-160.5v-21.5h160.5v21.5ZM318.05,153.33h-142v-22h142v22ZM299.55,180.83h-123.5v-22h123.5v22ZM299.55,207.83h-123.5v-22h123.5v22ZM287.55,235.33h-111.5v-22h111.5v22ZM262.55,289.83h-86.5v-22h86.5v22ZM262.55,316.83h-86.5v-21.5h86.5v21.5Z"/>
  </g>
  <g class="st17">
    <line class="st1" x1="176.05" y1="319.83" x2="176.05" y2="46.83"/>
  </g>
  <g class="st18">
    <text class="st2" transform="translate(172.21 349.83)"><tspan x="0" y="0">0</tspan></text>
  </g>
  <g class="st24">
    <text class="st2" transform="translate(231.26 349.83)"><tspan class="st75" x="0" y="0">1</tspan><tspan x="6" y="0">0</tspan></text>
  </g>
  <g class="st21">
    <text class="st2" transform="translate(292.18 349.83)"><tspan class="st34" x="0" y="0">2</tspan><tspan x="7" y="0">0</tspan></text>
  </g>
  <g class="st20">
    <text class="st2" transform="translate(354 349.83)"><tspan class="st35" x="0" y="0">3</tspan><tspan x="7" y="0">0</tspan></text>
  </g>
  <g class="st23">
    <text class="st2" transform="translate(415.75 349.83)"><tspan class="st33" x="0" y="0">4</tspan><tspan x="7" y="0">0</tspan></text>
  </g>
  <g class="st22">
    <text class="st2" transform="translate(477.64 349.83)"><tspan class="st51" x="0" y="0">5</tspan><tspan x="7" y="0">0</tspan></text>
  </g>
  <g class="st10">
    <text class="st2" transform="translate(91.88 311.33)"><tspan class="st38" x="0" y="0">P</tspan><tspan class="st80" x="7" y="0">e</tspan><tspan class="st52" x="12.99" y="0">nn</tspan><tspan class="st66" x="24.99" y="0">y</tspan><tspan class="st47" x="30.97" y="0"> </tspan><tspan class="st50" x="33.97" y="0">J</tspan><tspan class="st26" x="37.98" y="0">o</tspan><tspan class="st73" x="43.96" y="0">r</tspan><tspan class="st37" x="48.96" y="0">d</tspan><tspan class="st30" x="54.96" y="0">a</tspan><tspan x="60.94" y="0">n</tspan></text>
  </g>
  <g class="st7">
    <text class="st2" transform="translate(98.59 284.33)"><tspan class="st77" x="0" y="0">S</tspan><tspan class="st36" x="6.99" y="0">t</tspan><tspan class="st80" x="10.99" y="0">e</tspan><tspan class="st76" x="16.98" y="0">v</tspan><tspan class="st31" x="22.96" y="0">e</tspan><tspan class="st63" x="27.97" y="0">n</tspan><tspan class="st47" x="34.96" y="0"> </tspan><tspan class="st45" x="37.96" y="0">K</tspan><tspan class="st47" x="44.97" y="0">i</tspan><tspan class="st52" x="47.97" y="0">n</tspan><tspan x="53.97" y="0">g</tspan></text>
  </g>
  <g class="st14">
    <text class="st2" transform="translate(89.03 256.83)"><tspan class="st84" x="0" y="0">O</tspan><tspan class="st55" x="8" y="0">l</tspan><tspan class="st40" x="11.01" y="0">g</tspan><tspan class="st29" x="17.02" y="0">a</tspan><tspan class="st57" x="23.02" y="0"> </tspan><tspan class="st67" x="26.04" y="0">R</tspan><tspan class="st48" x="34.03" y="0">u</tspan><tspan class="st49" x="40.05" y="0">d</tspan><tspan class="st63" x="46.06" y="0">n</tspan><tspan class="st78" x="53.05" y="0">e</tspan><tspan class="st42" x="59.05" y="0">v</tspan><tspan x="64.06" y="0">a</tspan></text>
  </g>
  <g class="st12">
    <text class="st2" transform="translate(79.48 229.83)"><tspan class="st50" x="0" y="0">Ju</tspan><tspan class="st60" x="10" y="0">l</tspan><tspan class="st47" x="13" y="0">i</tspan><tspan class="st80" x="16" y="0">e</tspan><tspan class="st62" x="21.99" y="0">t</tspan><tspan class="st36" x="26.98" y="0">t</tspan><tspan class="st80" x="30.99" y="0">e</tspan><tspan class="st47" x="36.97" y="0"> </tspan><tspan class="st43" x="39.97" y="0">B</tspan><tspan class="st80" x="46.98" y="0">e</tspan><tspan class="st52" x="52.96" y="0">n</tspan><tspan x="58.96" y="0">zo</tspan><tspan class="st52" x="69.94" y="0">n</tspan><tspan x="75.94" y="0">i</tspan></text>
  </g>
  <g class="st13">
    <text class="st2" transform="translate(85.75 202.33)"><tspan class="st45" x="0" y="0">K</tspan><tspan class="st30" x="7" y="0">a</tspan><tspan class="st36" x="12.99" y="0">t</tspan><tspan class="st47" x="16.99" y="0">i</tspan><tspan class="st80" x="19.99" y="0">e</tspan><tspan class="st47" x="25.98" y="0"> </tspan><tspan class="st69" x="28.98" y="0">W</tspan><tspan class="st47" x="39.97" y="0">i</tspan><tspan class="st59" x="42.97" y="0">ll</tspan><tspan class="st47" x="48.97" y="0">i</tspan><tspan class="st30" x="51.97" y="0">a</tspan><tspan class="st65" x="57.96" y="0">m</tspan><tspan x="67.95" y="0">s</tspan></text>
  </g>
  <g class="st11">
    <text class="st2" transform="translate(72.98 175.33)"><tspan class="st68" x="0" y="0">M</tspan><tspan class="st47" x="9.99" y="0">i</tspan><tspan class="st83" x="12.99" y="0">c</tspan><tspan class="st49" x="18.97" y="0">h</tspan><tspan class="st30" x="24.97" y="0">a</tspan><tspan class="st80" x="30.96" y="0">e</tspan><tspan class="st60" x="36.94" y="0">l</tspan><tspan class="st47" x="39.94" y="0"> </tspan><tspan class="st44" x="42.94" y="0">C</tspan><tspan class="st73" x="49.95" y="0">r</tspan><tspan class="st47" x="54.94" y="0">i</tspan><tspan class="st83" x="57.94" y="0">c</tspan><tspan class="st50" x="63.93" y="0">h</tspan><tspan class="st37" x="69.93" y="0">t</tspan><tspan x="73.93" y="0">on</tspan></text>
  </g>
  <g class="st8">
    <text class="st2" transform="translate(95.72 147.83)"><tspan class="st81" x="0" y="0">D</tspan><tspan class="st79" x="8" y="0">e</tspan><tspan class="st29" x="13.99" y="0">a</tspan><tspan class="st53" x="19.99" y="0">n</tspan><tspan class="st57" x="26.01" y="0"> </tspan><tspan class="st45" x="29.02" y="0">K</tspan><tspan class="st27" x="36.03" y="0">oo</tspan><tspan class="st53" x="48.03" y="0">n</tspan><tspan class="st36" x="54.04" y="0">t</tspan><tspan x="58.05" y="0">z</tspan></text>
  </g>
  <g class="st5">
    <text class="st2" transform="translate(90.82 120.83)"><tspan class="st50" x="0" y="0">J</tspan><tspan class="st29" x="4" y="0">a</tspan><tspan class="st82" x="10" y="0">c</tspan><tspan x="16" y="0">k</tspan><tspan class="st58" x="22" y="0">i</tspan><tspan class="st79" x="25.02" y="0">e</tspan><tspan class="st58" x="31.02" y="0"> </tspan><tspan class="st74" x="34.03" y="0">C</tspan><tspan class="st32" x="42.03" y="0">o</tspan><tspan class="st61" x="47.04" y="0">l</tspan><tspan class="st56" x="51.03" y="0">l</tspan><tspan class="st46" x="54.04" y="0">i</tspan><tspan class="st53" x="57.04" y="0">n</tspan><tspan x="63.06" y="0">s</tspan></text>
  </g>
  <g class="st9">
    <text class="st2" transform="translate(79.01 93.33)"><tspan class="st77" x="0" y="0">S</tspan><tspan class="st66" x="6.99" y="0">y</tspan><tspan class="st37" x="12.97" y="0">d</tspan><tspan class="st52" x="18.97" y="0">n</tspan><tspan class="st80" x="24.97" y="0">e</tspan><tspan class="st66" x="30.96" y="0">y</tspan><tspan class="st47" x="36.94" y="0"> </tspan><tspan class="st77" x="39.94" y="0">S</tspan><tspan class="st49" x="46.93" y="0">h</tspan><tspan class="st80" x="52.93" y="0">e</tspan><tspan class="st59" x="58.92" y="0">l</tspan><tspan class="st37" x="61.92" y="0">d</tspan><tspan class="st26" x="67.92" y="0">on</tspan></text>
  </g>
  <g class="st6">
    <text class="st2" transform="translate(6.05 66.33)"><tspan class="st50" x="0" y="0">J</tspan><tspan class="st80" x="4" y="0">e</tspan><tspan class="st52" x="9.99" y="0">nn</tspan><tspan class="st47" x="21.99" y="0">i</tspan><tspan class="st54" x="24.99" y="0">f</tspan><tspan class="st80" x="28.99" y="0">e</tspan><tspan class="st73" x="34.98" y="0">r</tspan><tspan class="st47" x="39.97" y="0"> </tspan><tspan class="st71" x="42.97" y="0">L</tspan><tspan class="st39" x="48.96" y="0">y</tspan><tspan class="st52" x="53.97" y="0">n</tspan><tspan class="st83" x="59.97" y="0">c</tspan><tspan class="st49" x="65.95" y="0">h</tspan><tspan class="st64" x="71.95" y="0"> </tspan><tspan class="st30" x="75.94" y="0">a</tspan><tspan class="st52" x="81.93" y="0">n</tspan><tspan class="st37" x="87.93" y="0">d</tspan><tspan class="st47" x="93.93" y="0"> </tspan><tspan class="st77" x="96.93" y="0">S</tspan><tspan class="st83" x="103.92" y="0">c</tspan><tspan x="109.9" y="0">o</tspan><tspan class="st36" x="115.89" y="0">tt</tspan><tspan class="st47" x="123.9" y="0"> </tspan><tspan class="st72" x="126.9" y="0">F</tspan><tspan class="st41" x="132.88" y="0">r</tspan><tspan x="136.89" y="0">o</tspan><tspan class="st73" x="142.87" y="0">s</tspan><tspan class="st26" x="148.86" y="0">t</tspan></text>
  </g>
  <g class="st15">
    <text class="st3" transform="translate(148.14 28.83)"><tspan x="0" y="0">Bestselling Fiction Authors 1993*</tspan></text>
  </g>
  <rect class="st1" x="-.45" y=".33" width="504" height="360"/>
</svg>