<?xml version="1.0" encoding="UTF-8"?>
<svg id="Layer_1" xmlns="http://www.w3.org/2000/svg" xmlns:xlink="http://www.w3.org/1999/xlink" version="1.1" viewBox="0 0 504 360">
  <!-- Generator: Adobe Illustrator 29.5.0, SVG Export Plug-In . SVG Version: 2.1.0 Build 137)  -->
  <defs>
    <style>
      .st0, .st1 {
        fill: none;
      }

      .st2 {
        font-size: 15px;
      }

      .st2, .st3 {
        font-family: Oswald-Light, Oswald;
        font-weight: 300;
      }

      .st4 {
        fill: #ffcd63;
      }

      .st5 {
        clip-path: url(#clippath-17);
      }

      .st6 {
        clip-path: url(#clippath-19);
      }

      .st7 {
        clip-path: url(#clippath-11);
      }

      .st8 {
        clip-path: url(#clippath-16);
      }

      .st9 {
        clip-path: url(#clippath-18);
      }

      .st10 {
        clip-path: url(#clippath-10);
      }

      .st11 {
        clip-path: url(#clippath-15);
      }

      .st12 {
        clip-path: url(#clippath-13);
      }

      .st13 {
        clip-path: url(#clippath-14);
      }

      .st14 {
        clip-path: url(#clippath-12);
      }

      .st15 {
        clip-path: url(#clippath-30);
      }

      .st16 {
        clip-path: url(#clippath-27);
      }

      .st17 {
        clip-path: url(#clippath-29);
      }

      .st18 {
        clip-path: url(#clippath-26);
      }

      .st19 {
        clip-path: url(#clippath-28);
      }

      .st20 {
        clip-path: url(#clippath-20);
      }

      .st21 {
        clip-path: url(#clippath-21);
      }

      .st22 {
        clip-path: url(#clippath-22);
      }

      .st23 {
        clip-path: url(#clippath-23);
      }

      .st24 {
        clip-path: url(#clippath-24);
      }

      .st25 {
        clip-path: url(#clippath-25);
      }

      .st26 {
        clip-path: url(#clippath-1);
      }

      .st27 {
        clip-path: url(#clippath-3);
      }

      .st28 {
        clip-path: url(#clippath-4);
      }

      .st29 {
        clip-path: url(#clippath-2);
      }

      .st30 {
        clip-path: url(#clippath-7);
      }

      .st31 {
        clip-path: url(#clippath-6);
      }

      .st32 {
        clip-path: url(#clippath-9);
      }

      .st33 {
        clip-path: url(#clippath-8);
      }

      .st34 {
        clip-path: url(#clippath-5);
      }

      .st35 {
        fill: #66c5cc;
      }

      .st36 {
        letter-spacing: 0em;
      }

      .st37 {
        letter-spacing: 0em;
      }

      .st38 {
        letter-spacing: 0em;
      }

      .st39 {
        fill: #fff;
      }

      .st40 {
        letter-spacing: 0em;
      }

      .st41 {
        letter-spacing: 0em;
      }

      .st42 {
        letter-spacing: 0em;
      }

      .st43 {
        letter-spacing: 0em;
      }

      .st44 {
        letter-spacing: 0em;
      }

      .st1 {
        stroke: #d9d9d9;
        stroke-linejoin: round;
        stroke-width: .75px;
      }

      .st45 {
        letter-spacing: -.06em;
      }

      .st46 {
        letter-spacing: -.06em;
      }

      .st47 {
        letter-spacing: -.02em;
      }

      .st48 {
        letter-spacing: -.02em;
      }

      .st49 {
        letter-spacing: -.01em;
      }

      .st50 {
        letter-spacing: -.02em;
      }

      .st51 {
        letter-spacing: -.05em;
      }

      .st52 {
        letter-spacing: -.05em;
      }

      .st53 {
        letter-spacing: -.04em;
      }

      .st54 {
        letter-spacing: -.03em;
      }

      .st55 {
        letter-spacing: -.03em;
      }

      .st56 {
        letter-spacing: -.03em;
      }

      .st57 {
        letter-spacing: -.03em;
      }

      .st58 {
        letter-spacing: 0em;
      }

      .st59 {
        letter-spacing: 0em;
      }

      .st60 {
        letter-spacing: 0em;
      }

      .st61 {
        letter-spacing: -.01em;
      }

      .st62 {
        letter-spacing: -.01em;
      }

      .st63 {
        letter-spacing: -.01em;
      }

      .st64 {
        letter-spacing: -.01em;
      }

      .st65 {
        letter-spacing: 0em;
      }

      .st66 {
        letter-spacing: -.01em;
      }

      .st67 {
        letter-spacing: 0em;
      }

      .st68 {
        letter-spacing: 0em;
      }

      .st69 {
        letter-spacing: 0em;
      }

      .st70 {
        letter-spacing: 0em;
      }

      .st71 {
        letter-spacing: 0em;
      }

      .st72 {
        letter-spacing: 0em;
      }

      .st73 {
        letter-spacing: 0em;
      }

      .st74 {
        letter-spacing: 0em;
      }

      .st75 {
        letter-spacing: 0em;
      }

      .st76 {
        letter-spacing: .05em;
      }

      .st77 {
        letter-spacing: .05em;
      }

      .st78 {
        letter-spacing: .06em;
      }

      .st79 {
        letter-spacing: .06em;
      }

      .st3 {
        font-size: 18px;
      }

      .st80 {
        letter-spacing: .02em;
      }

      .st81 {
        letter-spacing: .02em;
      }

      .st82 {
        letter-spacing: .02em;
      }

      .st83 {
        clip-path: url(#clippath);
      }

      .st84 {
        letter-spacing: .01em;
      }

      .st85 {
        letter-spacing: .02em;
      }

      .st86 {
        letter-spacing: .01em;
      }

      .st87 {
        letter-spacing: .02em;
      }

      .st88 {
        letter-spacing: .01em;
      }

      .st89 {
        letter-spacing: .04em;
      }

      .st90 {
        letter-spacing: .04em;
      }

      .st91 {
        letter-spacing: .04em;
      }

      .st92 {
        letter-spacing: .03em;
      }

      .st93 {
        letter-spacing: .03em;
      }

      .st94 {
        letter-spacing: 0em;
      }

      .st95 {
        letter-spacing: 0em;
      }

      .st96 {
        letter-spacing: 0em;
      }

      .st97 {
        letter-spacing: .01em;
      }

      .st98 {
        letter-spacing: 0em;
      }
    </style>
    <clipPath id="clippath">
      <rect class="st0" x="-.45" y=".33" width="504" height="360"/>
    </clipPath>
    <clipPath id="clippath-1">
      <rect class="st0" x="127.55" y="46.33" width="350" height="274"/>
    </clipPath>
    <clipPath id="clippath-2">
      <rect class="st0" x="127.55" y="46.33" width="350" height="274"/>
    </clipPath>
    <clipPath id="clippath-3">
      <rect class="st0" x="127.55" y="46.33" width="350" height="274"/>
    </clipPath>
    <clipPath id="clippath-4">
      <rect class="st0" x="127.55" y="46.33" width="350" height="274"/>
    </clipPath>
    <clipPath id="clippath-5">
      <rect class="st0" x="127.55" y="46.33" width="350" height="274"/>
    </clipPath>
    <clipPath id="clippath-6">
      <rect class="st0" x="127.55" y="46.33" width="350" height="274"/>
    </clipPath>
    <clipPath id="clippath-7">
      <rect class="st0" x="127.55" y="46.33" width="350" height="274"/>
    </clipPath>
    <clipPath id="clippath-8">
      <rect class="st0" x="127.55" y="46.33" width="350" height="274"/>
    </clipPath>
    <clipPath id="clippath-9">
      <rect class="st0" x="127.55" y="46.33" width="350" height="274"/>
    </clipPath>
    <clipPath id="clippath-10">
      <rect class="st0" x="127.55" y="46.33" width="350" height="274"/>
    </clipPath>
    <clipPath id="clippath-11">
      <rect class="st0" x="-.45" y=".33" width="504" height="360"/>
    </clipPath>
    <clipPath id="clippath-12">
      <rect class="st0" x="-.45" y=".33" width="504" height="360"/>
    </clipPath>
    <clipPath id="clippath-13">
      <rect class="st0" x="-.45" y=".33" width="504" height="360"/>
    </clipPath>
    <clipPath id="clippath-14">
      <rect class="st0" x="-.45" y=".33" width="504" height="360"/>
    </clipPath>
    <clipPath id="clippath-15">
      <rect class="st0" x="-.45" y=".33" width="504" height="360"/>
    </clipPath>
    <clipPath id="clippath-16">
      <rect class="st0" x="-.45" y=".33" width="504" height="360"/>
    </clipPath>
    <clipPath id="clippath-17">
      <rect class="st0" x="-.45" y=".33" width="504" height="360"/>
    </clipPath>
    <clipPath id="clippath-18">
      <rect class="st0" x="-.45" y=".33" width="504" height="360"/>
    </clipPath>
    <clipPath id="clippath-19">
      <rect class="st0" x="-.45" y=".33" width="504" height="360"/>
    </clipPath>
    <clipPath id="clippath-20">
      <rect class="st0" x="-.45" y=".33" width="504" height="360"/>
    </clipPath>
    <clipPath id="clippath-21">
      <rect class="st0" x="-.45" y=".33" width="504" height="360"/>
    </clipPath>
    <clipPath id="clippath-22">
      <rect class="st0" x="-.45" y=".33" width="504" height="360"/>
    </clipPath>
    <clipPath id="clippath-23">
      <rect class="st0" x="-.45" y=".33" width="504" height="360"/>
    </clipPath>
    <clipPath id="clippath-24">
      <rect class="st0" x="-.45" y=".33" width="504" height="360"/>
    </clipPath>
    <clipPath id="clippath-25">
      <rect class="st0" x="-.45" y=".33" width="504" height="360"/>
    </clipPath>
    <clipPath id="clippath-26">
      <rect class="st0" x="-.45" y=".33" width="504" height="360"/>
    </clipPath>
    <clipPath id="clippath-27">
      <rect class="st0" x="-.45" y=".33" width="504" height="360"/>
    </clipPath>
    <clipPath id="clippath-28">
      <rect class="st0" x="-.45" y=".33" width="504" height="360"/>
    </clipPath>
    <clipPath id="clippath-29">
      <rect class="st0" x="-.45" y=".33" width="504" height="360"/>
    </clipPath>
    <clipPath id="clippath-30">
      <rect class="st0" x="-.45" y=".33" width="504" height="360"/>
    </clipPath>
  </defs>
  <rect class="st39" x="-.45" y=".33" width="504" height="360"/>
  <g class="st83">
    <path class="st1" d="M477.55,46.83v273M407.55,46.83v273M337.55,46.83v273M267.55,46.83v273M197.55,46.83v273"/>
  </g>
  <g class="st26">
    <rect class="st35" x="128.05" y="295.33" width="81" height="21.5"/>
  </g>
  <g class="st29">
    <rect class="st35" x="128.05" y="267.83" width="83" height="22"/>
  </g>
  <g class="st27">
    <rect class="st35" x="128.05" y="240.83" width="90.5" height="21.5"/>
  </g>
  <g class="st28">
    <rect class="st35" x="128.05" y="213.33" width="100.5" height="22"/>
  </g>
  <g class="st34">
    <rect class="st35" x="128.05" y="185.83" width="117.5" height="22"/>
  </g>
  <g class="st31">
    <rect class="st35" x="128.05" y="158.83" width="188" height="22"/>
  </g>
  <g class="st30">
    <rect class="st4" x="128.05" y="131.33" width="190.5" height="22"/>
  </g>
  <g class="st33">
    <rect class="st35" x="128.05" y="104.33" width="225.5" height="21.5"/>
  </g>
  <g class="st32">
    <rect class="st35" x="128.05" y="76.83" width="254" height="22"/>
  </g>
  <g class="st10">
    <rect class="st35" x="128.05" y="49.83" width="284" height="21.5"/>
  </g>
  <g class="st7">
    <line class="st1" x1="128.05" y1="319.83" x2="128.05" y2="46.83"/>
  </g>
  <g class="st14">
    <text class="st2" transform="translate(123.94 349.83)"><tspan x="0" y="0">0</tspan></text>
  </g>
  <g class="st12">
    <text class="st2" transform="translate(186.44 349.83)"><tspan class="st68" x="0" y="0">5</tspan><tspan class="st87" x="7" y="0">0</tspan><tspan x="15" y="0">0</tspan></text>
  </g>
  <g class="st13">
    <text class="st2" transform="translate(253.34 349.83)"><tspan class="st93" x="0" y="0">1</tspan><tspan class="st51" x="6" y="0">0</tspan><tspan class="st84" x="13" y="0">0</tspan><tspan class="st43" x="20.98" y="0">0</tspan></text>
  </g>
  <g class="st11">
    <text class="st2" transform="translate(323.59 349.83)"><tspan class="st93" x="0" y="0">1</tspan><tspan class="st65" x="6" y="0">5</tspan><tspan class="st52" x="13.02" y="0">0</tspan><tspan x="20.04" y="0">0</tspan></text>
  </g>
  <g class="st8">
    <text class="st2" transform="translate(392.36 349.83)"><tspan class="st48" x="0" y="0">2</tspan><tspan class="st87" x="7" y="0">00</tspan><tspan x="23" y="0">0</tspan></text>
  </g>
  <g class="st5">
    <text class="st2" transform="translate(462.61 349.83)"><tspan class="st48" x="0" y="0">2</tspan><tspan class="st66" x="7" y="0">5</tspan><tspan class="st87" x="14.01" y="0">0</tspan><tspan x="22" y="0">0</tspan></text>
  </g>
  <g class="st9">
    <text class="st2" transform="translate(19.01 311.33)"><tspan class="st47" x="0" y="0">V</tspan><tspan class="st42" x="7" y="0">a</tspan><tspan class="st90" x="12.99" y="0">s</tspan><tspan class="st60" x="18.97" y="0">i</tspan><tspan class="st74" x="21.97" y="0">l</tspan><tspan class="st60" x="24.97" y="0">ii </tspan><tspan class="st88" x="33.97" y="0">G</tspan><tspan x="41.97" y="0">o</tspan><tspan class="st74" x="47.95" y="0">l</tspan><tspan x="50.95" y="0">o</tspan><tspan class="st55" x="56.94" y="0">v</tspan><tspan class="st42" x="61.95" y="0">a</tspan><tspan class="st98" x="67.93" y="0">c</tspan><tspan class="st62" x="73.92" y="0">h</tspan><tspan class="st96" x="79.92" y="0">e</tspan><tspan class="st36" x="85.9" y="0">v</tspan></text>
  </g>
  <g class="st6">
    <text class="st2" transform="translate(27.41 284.33)"><tspan class="st50" x="0" y="0">P</tspan><tspan class="st38" x="7" y="0">o</tspan><tspan class="st71" x="13" y="0">l</tspan><tspan class="st73" x="16.02" y="0">i</tspan><tspan class="st70" x="19.03" y="0">n</tspan><tspan class="st40" x="25.05" y="0">a</tspan><tspan class="st72" x="31.05" y="0"> </tspan><tspan class="st97" x="34.06" y="0">D</tspan><tspan class="st40" x="42.06" y="0">a</tspan><tspan class="st91" x="48.06" y="0">s</tspan><tspan class="st64" x="54.06" y="0">h</tspan><tspan x="60.07" y="0">k</tspan><tspan class="st38" x="66.07" y="0">o</tspan><tspan class="st55" x="72.07" y="0">v</tspan><tspan class="st44" x="77.08" y="0">a</tspan></text>
  </g>
  <g class="st20">
    <text class="st2" transform="translate(32.74 256.83)"><tspan class="st47" x="0" y="0">V</tspan><tspan class="st42" x="7" y="0">a</tspan><tspan class="st74" x="12.99" y="0">l</tspan><tspan class="st96" x="15.99" y="0">e</tspan><tspan class="st67" x="21.97" y="0">n</tspan><tspan class="st77" x="27.97" y="0">t</tspan><tspan class="st59" x="32.97" y="0">i</tspan><tspan class="st67" x="35.97" y="0">n</tspan><tspan class="st60" x="41.97" y="0"> </tspan><tspan class="st85" x="44.97" y="0">L</tspan><tspan class="st42" x="50.95" y="0">a</tspan><tspan class="st55" x="56.94" y="0">v</tspan><tspan class="st54" x="61.95" y="0">r</tspan><tspan x="65.95" y="0">ov</tspan></text>
  </g>
  <g class="st21">
    <text class="st2" transform="translate(21.47 229.83)"><tspan class="st49" x="0" y="0">T</tspan><tspan class="st40" x="6.01" y="0">a</tspan><tspan class="st49" x="12.01" y="0">t</tspan><tspan class="st73" x="16.02" y="0">i</tspan><tspan class="st41" x="19.03" y="0">a</tspan><tspan class="st78" x="25.03" y="0">n</tspan><tspan class="st46" x="32.02" y="0">a</tspan><tspan class="st79" x="37.03" y="0"> </tspan><tspan class="st50" x="41.02" y="0">P</tspan><tspan class="st37" x="48.03" y="0">o</tspan><tspan class="st75" x="54.03" y="0">l</tspan><tspan class="st60" x="57.03" y="0">i</tspan><tspan class="st40" x="60.03" y="0">a</tspan><tspan x="66.03" y="0">k</tspan><tspan class="st38" x="72.03" y="0">o</tspan><tspan class="st56" x="78.03" y="0">v</tspan><tspan x="83.04" y="0">a</tspan></text>
  </g>
  <g class="st22">
    <text class="st2" transform="translate(13.97 202.33)"><tspan class="st88" x="0" y="0">F</tspan><tspan class="st54" x="6" y="0">r</tspan><tspan class="st60" x="10" y="0">i</tspan><tspan class="st77" x="13" y="0">d</tspan><tspan class="st54" x="19.99" y="0">r</tspan><tspan class="st73" x="24" y="0">i</tspan><tspan class="st36" x="27.01" y="0">k</tspan><tspan class="st64" x="33.01" y="0">h</tspan><tspan class="st60" x="39.03" y="0"> </tspan><tspan class="st86" x="42.03" y="0">N</tspan><tspan class="st94" x="50.02" y="0">e</tspan><tspan class="st36" x="56.02" y="0">z</tspan><tspan class="st69" x="61.02" y="0">n</tspan><tspan class="st41" x="67.03" y="0">a</tspan><tspan class="st67" x="73.03" y="0">n</tspan><tspan class="st89" x="79.03" y="0">s</tspan><tspan x="85.03" y="0">k</tspan><tspan class="st60" x="91.03" y="0">i</tspan><tspan class="st36" x="94.03" y="0">i</tspan></text>
  </g>
  <g class="st23">
    <text class="st2" transform="translate(33.4 175.33)"><tspan class="st97" x="0" y="0">D</tspan><tspan class="st41" x="8" y="0">a</tspan><tspan class="st67" x="13.99" y="0">n</tspan><tspan class="st73" x="19.99" y="0">ii</tspan><tspan class="st71" x="26.02" y="0">l</tspan><tspan class="st60" x="29.04" y="0"> </tspan><tspan class="st58" x="32.04" y="0">K</tspan><tspan class="st38" x="39.04" y="0">o</tspan><tspan class="st90" x="45.04" y="0">r</tspan><tspan class="st94" x="50.04" y="0">e</tspan><tspan class="st49" x="56.04" y="0">t</tspan><tspan class="st57" x="60.04" y="0">s</tspan><tspan x="65.05" y="0">k</tspan><tspan class="st60" x="71.05" y="0">i</tspan><tspan class="st36" x="74.05" y="0">i</tspan></text>
  </g>
  <g class="st24">
    <text class="st2" transform="translate(6.05 147.83)"><tspan class="st63" x="0" y="0">J</tspan><tspan class="st37" x="4" y="0">o</tspan><tspan class="st41" x="10" y="0">a</tspan><tspan class="st67" x="16" y="0">nn</tspan><tspan class="st40" x="28" y="0">a</tspan><tspan class="st72" x="34" y="0"> </tspan><tspan class="st92" x="37.02" y="0">C</tspan><tspan class="st61" x="45.01" y="0">h</tspan><tspan class="st80" x="51.03" y="0">m</tspan><tspan class="st94" x="61.02" y="0">e</tspan><tspan class="st71" x="67.02" y="0">l</tspan><tspan class="st60" x="70.03" y="0">i</tspan><tspan class="st95" x="73.03" y="0">e</tspan><tspan class="st53" x="79.03" y="0">w</tspan><tspan class="st89" x="87.04" y="0">s</tspan><tspan x="93.04" y="0">ka</tspan></text>
  </g>
  <g class="st25">
    <text class="st2" transform="translate(37.51 120.83)"><tspan class="st86" x="0" y="0">N</tspan><tspan class="st60" x="7.99" y="0">i</tspan><tspan x="10.99" y="0">k</tspan><tspan class="st37" x="16.99" y="0">o</tspan><tspan class="st74" x="22.99" y="0">l</tspan><tspan class="st41" x="25.99" y="0">a</tspan><tspan class="st60" x="31.99" y="0">i</tspan><tspan class="st73" x="34.99" y="0"> </tspan><tspan class="st82" x="38.01" y="0">L</tspan><tspan class="st94" x="44.01" y="0">e</tspan><tspan class="st38" x="50.01" y="0">o</tspan><tspan class="st69" x="56.01" y="0">n</tspan><tspan class="st37" x="62.02" y="0">o</tspan><tspan x="68.02" y="0">v</tspan></text>
  </g>
  <g class="st18">
    <text class="st2" transform="translate(29.15 93.33)"><tspan class="st47" x="0" y="0">V</tspan><tspan class="st73" x="7" y="0">i</tspan><tspan x="10.02" y="0">k</tspan><tspan class="st76" x="16.02" y="0">t</tspan><tspan class="st37" x="21.01" y="0">o</tspan><tspan class="st54" x="27.01" y="0">r</tspan><tspan class="st60" x="31.02" y="0"> </tspan><tspan class="st97" x="34.02" y="0">D</tspan><tspan class="st38" x="42.01" y="0">o</tspan><tspan class="st49" x="48.01" y="0">t</tspan><tspan class="st89" x="52.02" y="0">s</tspan><tspan class="st45" x="58.02" y="0">e</tspan><tspan class="st78" x="63.03" y="0">n</tspan><tspan class="st36" x="70.02" y="0">ko</tspan></text>
  </g>
  <g class="st16">
    <text class="st2" transform="translate(7.03 66.33)"><tspan class="st68" x="0" y="0">A</tspan><tspan class="st71" x="7" y="0">l</tspan><tspan class="st95" x="10.02" y="0">e</tspan><tspan x="16.02" y="0">k</tspan><tspan class="st89" x="22.02" y="0">s</tspan><tspan class="st41" x="28.02" y="0">a</tspan><tspan class="st67" x="34.02" y="0">n</tspan><tspan class="st62" x="40.02" y="0">d</tspan><tspan class="st54" x="46.03" y="0">r</tspan><tspan class="st40" x="50.04" y="0">a</tspan><tspan class="st59" x="56.04" y="0"> </tspan><tspan class="st81" x="59.04" y="0">M</tspan><tspan class="st41" x="69.03" y="0">a</tspan><tspan class="st54" x="75.03" y="0">r</tspan><tspan class="st60" x="79.03" y="0">i</tspan><tspan class="st78" x="82.03" y="0">n</tspan><tspan class="st72" x="89.02" y="0">i</tspan><tspan class="st67" x="92.04" y="0">n</tspan><tspan class="st44" x="98.04" y="0">a</tspan></text>
  </g>
  <g class="st19">
    <text class="st3" transform="translate(130.41 28.83)"><tspan x="0" y="0">Bestselling Fiction Authors 1993</tspan></text>
  </g>
  <g class="st17">
    <text class="st3" transform="translate(330.55 28.83)"><tspan x="0" y="0">–</tspan></text>
  </g>
  <g class="st15">
    <text class="st3" transform="translate(339.03 28.83)"><tspan x="0" y="0">1999</tspan></text>
  </g>
</svg>