<?xml version="1.0" encoding="UTF-8"?>
<svg id="Layer_1" xmlns="http://www.w3.org/2000/svg" xmlns:xlink="http://www.w3.org/1999/xlink" version="1.1" viewBox="0 0 1008 504">
  <!-- Generator: Adobe Illustrator 29.5.0, SVG Export Plug-In . SVG Version: 2.1.0 Build 137)  -->
  <defs>
    <style>
      .st0, .st1, .st2, .st3 {
        fill: none;
      }

      .st1 {
        stroke: #ffcd63;
      }

      .st1, .st2 {
        stroke-linecap: round;
        stroke-width: 2.5px;
      }

      .st1, .st2, .st3 {
        stroke-linejoin: round;
      }

      .st4 {
        fill: #5baed3;
      }

      .st5 {
        fill: #ffcd63;
      }

      .st6 {
        clip-path: url(#clippath-17);
      }

      .st7 {
        clip-path: url(#clippath-19);
      }

      .st8 {
        clip-path: url(#clippath-11);
      }

      .st9 {
        clip-path: url(#clippath-16);
      }

      .st10 {
        clip-path: url(#clippath-18);
      }

      .st11 {
        clip-path: url(#clippath-10);
      }

      .st12 {
        clip-path: url(#clippath-15);
      }

      .st13 {
        clip-path: url(#clippath-13);
      }

      .st14 {
        clip-path: url(#clippath-14);
      }

      .st15 {
        clip-path: url(#clippath-12);
      }

      .st16 {
        clip-path: url(#clippath-20);
      }

      .st17 {
        clip-path: url(#clippath-21);
      }

      .st18 {
        clip-path: url(#clippath-22);
      }

      .st19 {
        clip-path: url(#clippath-1);
      }

      .st20 {
        clip-path: url(#clippath-3);
      }

      .st21 {
        clip-path: url(#clippath-4);
      }

      .st22 {
        clip-path: url(#clippath-2);
      }

      .st23 {
        clip-path: url(#clippath-7);
      }

      .st24 {
        clip-path: url(#clippath-6);
      }

      .st25 {
        clip-path: url(#clippath-9);
      }

      .st26 {
        clip-path: url(#clippath-8);
      }

      .st27 {
        clip-path: url(#clippath-5);
      }

      .st28 {
        letter-spacing: 0em;
      }

      .st29 {
        letter-spacing: 0em;
      }

      .st30 {
        fill: #fff;
      }

      .st31 {
        letter-spacing: 0em;
      }

      .st32 {
        letter-spacing: 0em;
      }

      .st33 {
        letter-spacing: 0em;
      }

      .st34 {
        letter-spacing: 0em;
      }

      .st35 {
        letter-spacing: 0em;
      }

      .st2 {
        stroke: #5baed3;
      }

      .st3 {
        stroke: #d9d9d9;
        stroke-width: .75px;
      }

      .st36 {
        font-family: Oswald-Light, Oswald;
        font-size: 20px;
        font-weight: 300;
      }

      .st37 {
        letter-spacing: -.02em;
      }

      .st38 {
        letter-spacing: -.01em;
      }

      .st39 {
        letter-spacing: -.02em;
      }

      .st40 {
        letter-spacing: -.02em;
      }

      .st41 {
        letter-spacing: -.05em;
      }

      .st42 {
        letter-spacing: -.03em;
      }

      .st43 {
        letter-spacing: -.03em;
      }

      .st44 {
        letter-spacing: 0em;
      }

      .st45 {
        letter-spacing: -.01em;
      }

      .st46 {
        letter-spacing: -.01em;
      }

      .st47 {
        letter-spacing: 0em;
      }

      .st48 {
        letter-spacing: 0em;
      }

      .st49 {
        letter-spacing: 0em;
      }

      .st50 {
        letter-spacing: 0em;
      }

      .st51 {
        letter-spacing: 0em;
      }

      .st52 {
        letter-spacing: .03em;
      }

      .st53 {
        letter-spacing: .01em;
      }

      .st54 {
        clip-path: url(#clippath);
      }

      .st55 {
        letter-spacing: .04em;
      }

      .st56 {
        letter-spacing: .04em;
      }

      .st57 {
        letter-spacing: .04em;
      }

      .st58 {
        letter-spacing: .05em;
      }

      .st59 {
        letter-spacing: .03em;
      }

      .st60 {
        letter-spacing: .01em;
      }
    </style>
    <clipPath id="clippath">
      <rect class="st0" x="-.25" y="0" width="1008" height="504"/>
    </clipPath>
    <clipPath id="clippath-1">
      <rect class="st0" x="-.25" y="0" width="1008" height="504"/>
    </clipPath>
    <clipPath id="clippath-2">
      <rect class="st0" x="71.75" y="20" width="915" height="392"/>
    </clipPath>
    <clipPath id="clippath-3">
      <rect class="st0" x="71.75" y="20" width="915" height="392"/>
    </clipPath>
    <clipPath id="clippath-4">
      <rect class="st0" x="71.75" y="20" width="915" height="392"/>
    </clipPath>
    <clipPath id="clippath-5">
      <rect class="st0" x="71.75" y="20" width="914" height="391"/>
    </clipPath>
    <clipPath id="clippath-6">
      <rect class="st0" x="71.75" y="20" width="914" height="391"/>
    </clipPath>
    <clipPath id="clippath-7">
      <rect class="st0" x="-.25" y="0" width="1008" height="504"/>
    </clipPath>
    <clipPath id="clippath-8">
      <rect class="st0" x="-.25" y="0" width="1008" height="504"/>
    </clipPath>
    <clipPath id="clippath-9">
      <rect class="st0" x="-.25" y="0" width="1008" height="504"/>
    </clipPath>
    <clipPath id="clippath-10">
      <rect class="st0" x="-.25" y="0" width="1008" height="504"/>
    </clipPath>
    <clipPath id="clippath-11">
      <rect class="st0" x="-.25" y="0" width="1008" height="504"/>
    </clipPath>
    <clipPath id="clippath-12">
      <rect class="st0" x="-.25" y="0" width="1008" height="504"/>
    </clipPath>
    <clipPath id="clippath-13">
      <rect class="st0" x="-.25" y="0" width="1008" height="504"/>
    </clipPath>
    <clipPath id="clippath-14">
      <rect class="st0" x="-.25" y="0" width="1008" height="504"/>
    </clipPath>
    <clipPath id="clippath-15">
      <rect class="st0" x="-.25" y="0" width="1008" height="504"/>
    </clipPath>
    <clipPath id="clippath-16">
      <rect class="st0" x="-.25" y="0" width="1008" height="504"/>
    </clipPath>
    <clipPath id="clippath-17">
      <rect class="st0" x="-.25" y="0" width="1008" height="504"/>
    </clipPath>
    <clipPath id="clippath-18">
      <rect class="st0" x="-.25" y="0" width="1008" height="504"/>
    </clipPath>
    <clipPath id="clippath-19">
      <rect class="st0" x="-.25" y="0" width="1008" height="504"/>
    </clipPath>
    <clipPath id="clippath-20">
      <rect class="st0" x="-.25" y="0" width="1008" height="504"/>
    </clipPath>
    <clipPath id="clippath-21">
      <rect class="st0" x="-.25" y="0" width="1008" height="504"/>
    </clipPath>
    <clipPath id="clippath-22">
      <rect class="st0" x="-.25" y="0" width="1008" height="504"/>
    </clipPath>
  </defs>
  <rect class="st30" x=".25" y="1" width="1008" height="504"/>
  <g class="st54">
    <path class="st3" d="M72.25,21h914M72.25,99h914M72.25,177h914M72.25,255h914M72.25,333.5h914"/>
  </g>
  <g class="st19">
    <line class="st3" x1="72.25" y1="411.5" x2="986.25" y2="411.5"/>
  </g>
  <g class="st22">
    <path class="st2" d="M79,158.6c4.48,33.21,8.96,87.64,13.44,99.64,4.48,12.01,8.96-14.88,13.44-27.61,4.48-12.73,8.96-43.1,13.44-48.79,4.48-5.69,8.96,15.45,13.44,14.64,4.48-.81,8.96-15.08,13.44-19.51,4.48-4.44,8.96-3.19,13.44-7.1,4.48-3.9,8.96-17.5,13.44-16.32,4.48,1.18,8.96,17.75,13.44,23.42,4.48,5.67,8.96,8.9,13.44,10.61,3.42,1.31,10.02-6.12,13.44-.34,4.48,7.58,8.96,42.17,13.44,45.83,4.48,3.66,8.96-24.44,13.44-23.86,4.48.58,8.96,29.18,13.44,27.33,4.48-1.85,8.96-34.84,13.44-38.44,4.48-3.6,8.96,18.94,13.44,16.86,4.48-2.08,8.96-22.23,13.44-29.32,4.48-7.09,8.96-10.69,13.44-13.24,4.48-2.55,8.96-5.69,13.44-2.08,4.48,3.61,8.96,18.74,13.44,23.75,4.48,5.01,8.96,11.41,13.44,6.31,4.48-5.1,8.96-31.89,13.44-36.9,4.48-5.01,8.96,5.74,13.44,6.84s8.96-2.72,13.44-.24c4.48,2.48,8.96,17.44,13.44,15.1,4.48-2.34,8.96-27.26,13.44-29.15,4.48-1.89,8.96,13.73,13.44,17.81,4.48,4.08,8.96,8.43,13.44,6.67,4.48-1.76,8.96-12.45,13.44-17.21,4.48-4.75,8.96-10.99,13.44-11.32,4.48-.33,8.96,8.99,13.44,9.37,4.48.38,8.96-5.79,13.44-7.09,4.48-1.3,8.96,2.89,13.44-.72s8.96-16.12,13.44-20.91c4.48-4.79,8.96-10.03,13.44-7.85,4.48,2.18,8.96,19.41,13.44,20.95,4.48,1.54,8.96-6.05,13.44-11.71,4.48-5.66,8.96-19.1,13.44-22.27,4.48-3.17,8.96-1.13,13.44,3.23,4.48,4.36,8.96,15.22,13.44,22.95,4.48,7.73,8.96,19.51,13.44,23.42,3.81,3.32,9.63,5.53,13.44,0,4.48-6.5,8.96-32.92,13.44-39.03,4.03-5.5,9.41.79,13.44,2.36,4.48,1.75,8.96,6.6,13.44,8.16,4.48,1.56,8.96,5.8,13.44,1.19,4.48-4.62,8.96-24.98,13.44-28.88,4.48-3.9,8.96,3,13.44,5.46,3.56,1.96,9.88,1.95,13.44,9.29,4.48,9.24,8.96,40.85,13.44,46.13,4.48,5.28,8.96-8.46,13.44-14.44,4.48-5.98,8.96-19.97,13.44-21.47,4.48-1.5,8.96,13.47,13.44,12.49,4.48-.98,8.96-15.29,13.44-18.34,4.48-3.06,8.96-.98,13.44,0,4.48.98,8.96,6.83,13.44,5.85,4.48-.98,8.96-16.91,13.44-11.71,4.48,5.2,8.96,37.86,13.44,42.93,4.48,5.07,8.96-4.68,13.44-12.49,4.48-7.81,8.96-30.25,13.44-34.35,4.48-4.1,8.96,5.37,13.44,9.76,4.48,4.38,8.96,10.14,13.44,16.55,4.48,6.42,8.96,18.82,13.44,21.95,4.48,3.13,8.96-3.12,13.44-3.2,4.48-.07,8.96,1.79,13.44,2.77,4.48.98,8.96,3.95,13.44,3.14,4.48-.82,8.96-2.36,13.44-8.04,4.48-5.68,8.96-17.35,13.44-26.02"/>
  </g>
  <g class="st20">
    <path class="st1" d="M845,270.81c4.5-5.06,9,4.67,13.5,12.44"/>
  </g>
  <g class="st21">
    <path class="st1" d="M858.54,283.49c4.48,7.83,8.96,29.68,13.44,34.45,4.48,4.76,8.96-1.47,13.44-5.87,4.48-4.4,8.96-13.43,13.44-20.51,4.48-7.09,8.96-19.19,13.44-22.01,4.48-2.83,8.96,4.21,13.44,5.06,4.48.85,8.96,1.34,13.44.04,4.48-1.3,8.96-7.86,13.44-7.83,4.48.04,8.96,2.37,13.44,8.06,4.48,5.69,8.96,17.4,13.44,26.1M79,273.73c4.48-33.31,8.96-87.9,13.44-99.94,4.48-12.04,8.96,14.92,13.44,27.69,4.48,12.77,8.96,39.96,13.44,48.93,3.2,6.4,10.24,1.98,13.44,4.89,4.48,4.08,8.96,17.79,13.44,19.57,4.48,1.78,8.96-10.2,13.44-8.9,4.48,1.3,8.96,14.35,13.44,16.73,4.22,2.24,9.22,2.89,13.44-2.49,4.48-5.71,8.96-25.88,13.44-31.75,3.32-4.35,10.12,2.64,13.44-3.46,4.48-8.24,8.96-42.3,13.44-45.97,4.48-3.67,8.96,24.51,13.44,23.93,4.48-.58,8.96-29.27,13.44-27.41,4.48,1.86,8.96,34.94,13.44,38.55,4.48,3.61,8.96-19,13.44-16.91,4.48,2.08,8.96,22.3,13.44,29.41,4.48,7.11,8.96,10.72,13.44,13.28,4.48,2.56,8.96,5.7,13.44,2.08,4.48-3.62,8.96-18.79,13.44-23.82,4.48-5.02,8.96-11.45,13.44-6.33,4.48,5.11,8.96,31.98,13.44,37.01,4.48,5.02,8.96-5.75,13.44-6.86,4.48-1.1,8.96,2.73,13.44.24,4.48-2.48,8.96-17.5,13.44-15.15,4.48,2.35,8.96,27.34,13.44,29.23,4.48,1.9,8.96-13.77,13.44-17.86,4.48-4.09,8.96-8.45,13.44-6.69,4.48,1.76,8.96,12.49,13.44,17.26,4.48,4.77,8.96,11.03,13.44,11.35,4.48.33,8.96-9.01,13.44-9.39,4.48-.38,8.96,5.81,13.44,7.11,4.48,1.3,8.96-2.9,13.44.72s8.96,16.16,13.44,20.97c4.48,4.81,8.96,10.06,13.44,7.87,4.48-2.19,8.96-19.46,13.44-21.01,4.48-1.54,8.96,6.06,13.44,11.74,4.48,5.68,8.96,19.16,13.44,22.34,4.48,3.18,8.96,1.14,13.44-3.24,4.48-4.38,8.96-15.26,13.44-23.01,4.48-7.75,8.96-19.57,13.44-23.49,3.81-3.33,9.63-5.55,13.44,0,4.48,6.52,8.96,33.02,13.44,39.14,4.03,5.51,9.41-.79,13.44-2.37,4.48-1.76,8.96-6.62,13.44-8.18,4.48-1.56,8.96-5.82,13.44-1.19,4.48,4.63,8.96,25.05,13.44,28.97,4.48,3.91,8.96-3.01,13.44-5.48,3.56-1.96,9.88-1.95,13.44-9.32,4.48-9.26,8.96-40.97,13.44-46.27,4.48-5.3,8.96,8.48,13.44,14.48,4.48,6,8.96,20.03,13.44,21.53,4.48,1.5,8.96-13.51,13.44-12.53,4.48.98,8.96,15.33,13.44,18.4,4.48,3.07,8.96.98,13.44,0,4.48-.98,8.96-6.85,13.44-5.87,4.48.98,8.96,16.96,13.44,11.74,4.48-5.22,8.96-37.97,13.44-43.06"/>
  </g>
  <g class="st27">
    <path class="st4" d="M976.45,123.76h0c.69-.06,1.2-.66,1.14-1.35-.06-.69-.66-1.2-1.35-1.14-.69.06-1.2.66-1.15,1.35.06.69.66,1.2,1.35,1.14ZM971.46,124.17h0c.69-.06,1.2-.66,1.14-1.35-.06-.69-.66-1.2-1.35-1.14-.69.06-1.2.66-1.15,1.35.06.69.66,1.2,1.35,1.14ZM966.48,124.59h0c.69-.06,1.2-.66,1.14-1.35-.06-.69-.66-1.2-1.35-1.14-.69.06-1.2.66-1.15,1.35.06.69.66,1.2,1.35,1.14ZM961.49,125h0c.69-.06,1.2-.66,1.14-1.35-.06-.69-.66-1.2-1.35-1.14-.69.06-1.2.66-1.15,1.35.06.69.66,1.2,1.35,1.14ZM956.51,125.42h0c.69-.06,1.2-.66,1.14-1.35-.06-.69-.66-1.2-1.35-1.14-.69.06-1.2.66-1.15,1.35.06.69.66,1.2,1.35,1.14ZM951.52,125.83h0c.69-.06,1.2-.66,1.14-1.35-.06-.69-.66-1.2-1.35-1.14-.69.06-1.2.66-1.15,1.35.06.69.66,1.2,1.35,1.14ZM946.54,126.25h0c.69-.06,1.2-.66,1.14-1.35-.06-.69-.66-1.2-1.35-1.14-.69.06-1.2.66-1.15,1.35.06.69.66,1.2,1.35,1.14ZM941.55,126.67h0c.69-.06,1.2-.66,1.14-1.35-.06-.69-.66-1.2-1.35-1.14-.69.06-1.2.66-1.15,1.35.06.69.66,1.2,1.35,1.14ZM936.57,127.08h0c.69-.06,1.2-.66,1.14-1.35-.06-.69-.66-1.2-1.35-1.14-.69.06-1.2.66-1.15,1.35.06.69.66,1.2,1.35,1.14ZM931.58,127.5h0c.69-.06,1.2-.66,1.14-1.35-.06-.69-.66-1.2-1.35-1.14-.69.06-1.2.66-1.15,1.35.06.69.66,1.2,1.35,1.14ZM926.6,127.91h0c.69-.06,1.2-.66,1.14-1.35-.06-.69-.66-1.2-1.35-1.14-.69.06-1.2.66-1.15,1.35.06.69.66,1.2,1.35,1.14ZM921.61,128.33h0c.69-.06,1.2-.66,1.14-1.35-.06-.69-.66-1.2-1.35-1.14-.69.06-1.2.66-1.15,1.35.06.69.66,1.2,1.35,1.14ZM916.62,128.74h0c.69-.06,1.2-.66,1.14-1.35-.06-.69-.66-1.2-1.35-1.14-.69.06-1.2.66-1.15,1.35.06.69.66,1.2,1.35,1.14ZM911.64,129.16h0c.69-.06,1.2-.66,1.14-1.35-.06-.69-.66-1.2-1.35-1.14-.69.06-1.2.66-1.15,1.35.06.69.66,1.2,1.35,1.14ZM906.65,129.57h0c.69-.06,1.2-.66,1.14-1.35-.06-.69-.66-1.2-1.35-1.14-.69.06-1.2.66-1.15,1.35.06.69.66,1.2,1.35,1.14ZM901.67,129.99h0c.69-.06,1.2-.66,1.14-1.35-.06-.69-.66-1.2-1.35-1.14-.69.06-1.2.66-1.15,1.35.06.69.66,1.2,1.35,1.14ZM896.68,130.4h0c.69-.06,1.2-.66,1.14-1.35-.06-.69-.66-1.2-1.35-1.14-.69.06-1.2.66-1.15,1.35.06.69.66,1.2,1.35,1.14ZM891.7,130.82h0c.69-.06,1.2-.66,1.14-1.35-.06-.69-.66-1.2-1.35-1.14-.69.06-1.2.66-1.15,1.35.06.69.66,1.2,1.35,1.14ZM886.71,131.23h0c.69-.06,1.2-.66,1.14-1.35-.06-.69-.66-1.2-1.35-1.14-.69.06-1.2.66-1.15,1.35.06.69.66,1.2,1.35,1.14ZM881.73,131.65h0c.69-.06,1.2-.66,1.14-1.35-.06-.69-.66-1.2-1.35-1.14-.69.06-1.2.66-1.15,1.35.06.69.66,1.2,1.35,1.14ZM876.74,132.06h0c.69-.06,1.2-.66,1.14-1.35-.06-.69-.66-1.2-1.35-1.14-.69.06-1.2.66-1.15,1.35.06.69.66,1.2,1.35,1.14ZM871.76,132.48h0c.69-.06,1.2-.66,1.14-1.35-.06-.69-.66-1.2-1.35-1.14-.69.06-1.2.66-1.15,1.35.06.69.66,1.2,1.35,1.14ZM866.77,132.89h0c.69-.06,1.2-.66,1.14-1.35-.06-.69-.66-1.2-1.35-1.14-.69.06-1.2.66-1.15,1.35.06.69.66,1.2,1.35,1.14ZM861.79,133.31h0c.69-.06,1.2-.66,1.14-1.35-.06-.69-.66-1.2-1.35-1.14-.69.06-1.2.66-1.15,1.35.06.69.66,1.2,1.35,1.14ZM856.8,133.72h0c.69-.06,1.2-.66,1.14-1.35-.06-.69-.66-1.2-1.35-1.14-.69.06-1.2.66-1.15,1.35.06.69.66,1.2,1.35,1.14ZM851.82,134.14h0c.69-.06,1.2-.66,1.14-1.35-.06-.69-.66-1.2-1.35-1.14-.69.06-1.2.66-1.15,1.35.06.69.66,1.2,1.35,1.14ZM846.83,134.55h0c.69-.06,1.2-.66,1.14-1.35-.06-.69-.66-1.2-1.35-1.14-.69.06-1.2.66-1.15,1.35.06.69.66,1.2,1.35,1.14ZM841.85,134.97h0c.69-.06,1.2-.66,1.14-1.35-.06-.69-.66-1.2-1.35-1.14-.69.06-1.2.66-1.15,1.35.06.69.66,1.2,1.35,1.14ZM836.86,135.38h0c.69-.06,1.2-.66,1.14-1.35-.06-.69-.66-1.2-1.35-1.14-.69.06-1.2.66-1.15,1.35.06.69.66,1.2,1.35,1.14ZM831.87,135.8h0c.69-.06,1.2-.66,1.14-1.35-.06-.69-.66-1.2-1.35-1.14-.69.06-1.2.66-1.15,1.35.06.69.66,1.2,1.35,1.14ZM826.89,136.21h0c.69-.06,1.2-.66,1.14-1.35-.06-.69-.66-1.2-1.35-1.14-.69.06-1.2.66-1.15,1.35.06.69.66,1.2,1.35,1.14ZM821.9,136.63h0c.69-.06,1.2-.66,1.14-1.35-.06-.69-.66-1.2-1.35-1.14-.69.06-1.2.66-1.15,1.35.06.69.66,1.2,1.35,1.14ZM816.92,137.05h0c.69-.06,1.2-.66,1.14-1.35-.06-.69-.66-1.2-1.35-1.14-.69.06-1.2.66-1.15,1.35.06.69.66,1.2,1.35,1.14ZM811.93,137.46h0c.69-.06,1.2-.66,1.14-1.35-.06-.69-.66-1.2-1.35-1.14-.69.06-1.2.66-1.15,1.35.06.69.66,1.2,1.35,1.14ZM806.95,137.88h0c.69-.06,1.2-.66,1.14-1.35-.06-.69-.66-1.2-1.35-1.14-.69.06-1.2.66-1.15,1.35.06.69.66,1.2,1.35,1.14ZM801.96,138.29h0c.69-.06,1.2-.66,1.14-1.35-.06-.69-.66-1.2-1.35-1.14-.69.06-1.2.66-1.15,1.35.06.69.66,1.2,1.35,1.14ZM796.98,138.71h0c.69-.06,1.2-.66,1.14-1.35-.06-.69-.66-1.2-1.35-1.14-.69.06-1.2.66-1.15,1.35.06.69.66,1.2,1.35,1.14ZM791.99,139.12h0c.69-.06,1.2-.66,1.14-1.35-.06-.69-.66-1.2-1.35-1.14-.69.06-1.2.66-1.15,1.35.06.69.66,1.2,1.35,1.14ZM787.01,139.54h0c.69-.06,1.2-.66,1.14-1.35-.06-.69-.66-1.2-1.35-1.14-.69.06-1.2.66-1.15,1.35.06.69.66,1.2,1.35,1.14ZM782.02,139.95h0c.69-.06,1.2-.66,1.14-1.35-.06-.69-.66-1.2-1.35-1.14-.69.06-1.2.66-1.15,1.35.06.69.66,1.2,1.35,1.14ZM777.04,140.37h0c.69-.06,1.2-.66,1.14-1.35-.06-.69-.66-1.2-1.35-1.14-.69.06-1.2.66-1.15,1.35.06.69.66,1.2,1.35,1.14ZM772.05,140.78h0c.69-.06,1.2-.66,1.14-1.35-.06-.69-.66-1.2-1.35-1.14-.69.06-1.2.66-1.15,1.35.06.69.66,1.2,1.35,1.14ZM767.07,141.2h0c.69-.06,1.2-.66,1.14-1.35-.06-.69-.66-1.2-1.35-1.14-.69.06-1.2.66-1.15,1.35.06.69.66,1.2,1.35,1.14ZM762.08,141.61h0c.69-.06,1.2-.66,1.14-1.35-.06-.69-.66-1.2-1.35-1.14-.69.06-1.2.66-1.15,1.35.06.69.66,1.2,1.35,1.14ZM757.1,142.03h0c.69-.06,1.2-.66,1.14-1.35-.06-.69-.66-1.2-1.35-1.14-.69.06-1.2.66-1.15,1.35.06.69.66,1.2,1.35,1.14ZM752.11,142.44h0c.69-.06,1.2-.66,1.14-1.35-.06-.69-.66-1.2-1.35-1.14-.69.06-1.2.66-1.15,1.35.06.69.66,1.2,1.35,1.14ZM747.13,142.86h0c.69-.06,1.2-.66,1.14-1.35-.06-.69-.66-1.2-1.35-1.14-.69.06-1.2.66-1.15,1.35.06.69.66,1.2,1.35,1.14ZM742.14,143.27h0c.69-.06,1.2-.66,1.14-1.35-.06-.69-.66-1.2-1.35-1.14-.69.06-1.2.66-1.15,1.35.06.69.66,1.2,1.35,1.14ZM737.16,143.69h0c.69-.06,1.2-.66,1.14-1.35-.06-.69-.66-1.2-1.35-1.14-.69.06-1.2.66-1.14,1.35.06.69.66,1.2,1.35,1.14ZM732.17,144.1h0c.69-.06,1.2-.66,1.14-1.35-.06-.69-.66-1.2-1.35-1.14-.69.06-1.2.66-1.14,1.35.06.69.66,1.2,1.35,1.14ZM727.19,144.52h0c.69-.06,1.2-.66,1.14-1.35-.06-.69-.66-1.2-1.35-1.14-.69.06-1.2.66-1.14,1.35.06.69.66,1.2,1.35,1.14ZM722.2,144.93h0c.69-.06,1.2-.66,1.14-1.35-.06-.69-.66-1.2-1.35-1.14-.69.06-1.2.66-1.14,1.35.06.69.66,1.2,1.35,1.14ZM717.22,145.35h0c.69-.06,1.2-.66,1.14-1.35-.06-.69-.66-1.2-1.35-1.14-.69.06-1.2.66-1.14,1.35.06.69.66,1.2,1.35,1.14ZM712.23,145.76h0c.69-.06,1.2-.66,1.14-1.35-.06-.69-.66-1.2-1.35-1.14-.69.06-1.2.66-1.14,1.35.06.69.66,1.2,1.35,1.14ZM707.24,146.18h0c.69-.06,1.2-.66,1.14-1.35-.06-.69-.66-1.2-1.35-1.14-.69.06-1.2.66-1.14,1.35.06.69.66,1.2,1.35,1.14ZM702.26,146.59h0c.69-.06,1.2-.66,1.14-1.35-.06-.69-.66-1.2-1.35-1.14-.69.06-1.2.66-1.14,1.35.06.69.66,1.2,1.35,1.14ZM697.27,147.01h0c.69-.06,1.2-.66,1.14-1.35-.06-.69-.66-1.2-1.35-1.14-.69.06-1.2.66-1.14,1.35.06.69.66,1.2,1.35,1.14ZM692.29,147.43h0c.69-.06,1.2-.66,1.14-1.35-.06-.69-.66-1.2-1.35-1.14-.69.06-1.2.66-1.14,1.35.06.69.66,1.2,1.35,1.14ZM687.3,147.84h0c.69-.06,1.2-.66,1.14-1.35-.06-.69-.66-1.2-1.35-1.14-.69.06-1.2.66-1.14,1.35.06.69.66,1.2,1.35,1.14ZM682.32,148.26h0c.69-.06,1.2-.66,1.14-1.35-.06-.69-.66-1.2-1.35-1.14-.69.06-1.2.66-1.14,1.35.06.69.66,1.2,1.35,1.14ZM677.33,148.67h0c.69-.06,1.2-.66,1.14-1.35-.06-.69-.66-1.2-1.35-1.14-.69.06-1.2.66-1.14,1.35.06.69.66,1.2,1.35,1.14ZM672.35,149.09h0c.69-.06,1.2-.66,1.14-1.35-.06-.69-.66-1.2-1.35-1.14-.69.06-1.2.66-1.14,1.35.06.69.66,1.2,1.35,1.14ZM667.36,149.5h0c.69-.06,1.2-.66,1.14-1.35-.06-.69-.66-1.2-1.35-1.14-.69.06-1.2.66-1.14,1.35.06.69.66,1.2,1.35,1.14ZM662.38,149.92h0c.69-.06,1.2-.66,1.14-1.35-.06-.69-.66-1.2-1.35-1.14-.69.06-1.2.66-1.14,1.35.06.69.66,1.2,1.35,1.14ZM657.39,150.33h0c.69-.06,1.2-.66,1.14-1.35-.06-.69-.66-1.2-1.35-1.14-.69.06-1.2.66-1.14,1.35.06.69.66,1.2,1.35,1.14ZM652.41,150.75h0c.69-.06,1.2-.66,1.14-1.35-.06-.69-.66-1.2-1.35-1.14-.69.06-1.2.66-1.14,1.35.06.69.66,1.2,1.35,1.14ZM647.42,151.16h0c.69-.06,1.2-.66,1.14-1.35-.06-.69-.66-1.2-1.35-1.14-.69.06-1.2.66-1.14,1.35.06.69.66,1.2,1.35,1.14ZM642.44,151.58h0c.69-.06,1.2-.66,1.14-1.35-.06-.69-.66-1.2-1.35-1.14-.69.06-1.2.66-1.14,1.35.06.69.66,1.2,1.35,1.14ZM637.45,151.99h0c.69-.06,1.2-.66,1.14-1.35-.06-.69-.66-1.2-1.35-1.14-.69.06-1.2.66-1.14,1.35.06.69.66,1.2,1.35,1.14ZM632.47,152.41h0c.69-.06,1.2-.66,1.14-1.35-.06-.69-.66-1.2-1.35-1.14-.69.06-1.2.66-1.14,1.35.06.69.66,1.2,1.35,1.14ZM627.48,152.82h0c.69-.06,1.2-.66,1.14-1.35-.06-.69-.66-1.2-1.35-1.14-.69.06-1.2.66-1.14,1.35.06.69.66,1.2,1.35,1.14ZM622.5,153.24h0c.69-.06,1.2-.66,1.14-1.35-.06-.69-.66-1.2-1.35-1.14-.69.06-1.2.66-1.14,1.35.06.69.66,1.2,1.35,1.14ZM617.51,153.65h0c.69-.06,1.2-.66,1.14-1.35-.06-.69-.66-1.2-1.35-1.14-.69.06-1.2.66-1.14,1.35.06.69.66,1.2,1.35,1.14ZM612.52,154.07h0c.69-.06,1.2-.66,1.14-1.35-.06-.69-.66-1.2-1.35-1.14-.69.06-1.2.66-1.14,1.35.06.69.66,1.2,1.35,1.14ZM607.54,154.48h0c.69-.06,1.2-.66,1.14-1.35-.06-.69-.66-1.2-1.35-1.14-.69.06-1.2.66-1.14,1.35.06.69.66,1.2,1.35,1.14ZM602.55,154.9h0c.69-.06,1.2-.66,1.14-1.35-.06-.69-.66-1.2-1.35-1.14-.69.06-1.2.66-1.14,1.35.06.69.66,1.2,1.35,1.14ZM597.57,155.31h0c.69-.06,1.2-.66,1.14-1.35-.06-.69-.66-1.2-1.35-1.14-.69.06-1.2.66-1.14,1.35.06.69.66,1.2,1.35,1.14ZM592.58,155.73h0c.69-.06,1.2-.66,1.14-1.35-.06-.69-.66-1.2-1.35-1.14-.69.06-1.2.66-1.14,1.35.06.69.66,1.2,1.35,1.14ZM587.6,156.14h0c.69-.06,1.2-.66,1.14-1.35-.06-.69-.66-1.2-1.35-1.14-.69.06-1.2.66-1.14,1.35.06.69.66,1.2,1.35,1.14ZM582.61,156.56h0c.69-.06,1.2-.66,1.14-1.35-.06-.69-.66-1.2-1.35-1.14-.69.06-1.2.66-1.14,1.35.06.69.66,1.2,1.35,1.14ZM577.63,156.98h0c.69-.06,1.2-.66,1.14-1.35-.06-.69-.66-1.2-1.35-1.14-.69.06-1.2.66-1.14,1.35.06.69.66,1.2,1.35,1.14ZM572.64,157.39h0c.69-.06,1.2-.66,1.14-1.35-.06-.69-.66-1.2-1.35-1.14-.69.06-1.2.66-1.14,1.35.06.69.66,1.2,1.35,1.14ZM567.66,157.81h0c.69-.06,1.2-.66,1.14-1.35-.06-.69-.66-1.2-1.35-1.14-.69.06-1.2.66-1.14,1.35.06.69.66,1.2,1.35,1.14ZM562.67,158.22h0c.69-.06,1.2-.66,1.14-1.35-.06-.69-.66-1.2-1.35-1.14-.69.06-1.2.66-1.14,1.35.06.69.66,1.2,1.35,1.14ZM557.69,158.64h0c.69-.06,1.2-.66,1.14-1.35-.06-.69-.66-1.2-1.35-1.14-.69.06-1.2.66-1.14,1.35.06.69.66,1.2,1.35,1.14ZM552.7,159.05h0c.69-.06,1.2-.66,1.14-1.35-.06-.69-.66-1.2-1.35-1.14-.69.06-1.2.66-1.14,1.35.06.69.66,1.2,1.35,1.14ZM547.72,159.47h0c.69-.06,1.2-.66,1.14-1.35-.06-.69-.66-1.2-1.35-1.14-.69.06-1.2.66-1.14,1.35.06.69.66,1.2,1.35,1.14ZM542.73,159.88h0c.69-.06,1.2-.66,1.14-1.35-.06-.69-.66-1.2-1.35-1.14-.69.06-1.2.66-1.14,1.35.06.69.66,1.2,1.35,1.14ZM537.75,160.3h0c.69-.06,1.2-.66,1.14-1.35-.06-.69-.66-1.2-1.35-1.14-.69.06-1.2.66-1.14,1.35.06.69.66,1.2,1.35,1.14ZM532.76,160.71h0c.69-.06,1.2-.66,1.14-1.35-.06-.69-.66-1.2-1.35-1.14-.69.06-1.2.66-1.14,1.35.06.69.66,1.2,1.35,1.14ZM527.78,161.13h0c.69-.06,1.2-.66,1.14-1.35-.06-.69-.66-1.2-1.35-1.14-.69.06-1.2.66-1.14,1.35.06.69.66,1.2,1.35,1.14ZM522.79,161.54h0c.69-.06,1.2-.66,1.14-1.35-.06-.69-.66-1.2-1.35-1.14-.69.06-1.2.66-1.14,1.35.06.69.66,1.2,1.35,1.14ZM517.81,161.96h0c.69-.06,1.2-.66,1.14-1.35-.06-.69-.66-1.2-1.35-1.14-.69.06-1.2.66-1.14,1.35.06.69.66,1.2,1.35,1.14ZM512.82,162.37h0c.69-.06,1.2-.66,1.14-1.35-.06-.69-.66-1.2-1.35-1.14-.69.06-1.2.66-1.14,1.35.06.69.66,1.2,1.35,1.14ZM507.83,162.79h0c.69-.06,1.2-.66,1.14-1.35-.06-.69-.66-1.2-1.35-1.14-.69.06-1.2.66-1.14,1.35.06.69.66,1.2,1.35,1.14ZM502.85,163.2h0c.69-.06,1.2-.66,1.14-1.35-.06-.69-.66-1.2-1.35-1.14-.69.06-1.2.66-1.14,1.35.06.69.66,1.2,1.35,1.14ZM497.86,163.62h0c.69-.06,1.2-.66,1.14-1.35-.06-.69-.66-1.2-1.35-1.14-.69.06-1.2.66-1.14,1.35.06.69.66,1.2,1.35,1.14ZM492.88,164.03h0c.69-.06,1.2-.66,1.14-1.35-.06-.69-.66-1.2-1.35-1.14-.69.06-1.2.66-1.14,1.35.06.69.66,1.2,1.35,1.14ZM487.89,164.45h0c.69-.06,1.2-.66,1.14-1.35-.06-.69-.66-1.2-1.35-1.14-.69.06-1.2.66-1.14,1.35.06.69.66,1.2,1.35,1.14ZM482.91,164.86h0c.69-.06,1.2-.66,1.14-1.35-.06-.69-.66-1.2-1.35-1.14-.69.06-1.2.66-1.14,1.35.06.69.66,1.2,1.35,1.14ZM477.92,165.28h0c.69-.06,1.2-.66,1.14-1.35-.06-.69-.66-1.2-1.35-1.14-.69.06-1.2.66-1.14,1.35.06.69.66,1.2,1.35,1.14ZM472.94,165.69h0c.69-.06,1.2-.66,1.14-1.35-.06-.69-.66-1.2-1.35-1.14-.69.06-1.2.66-1.14,1.35.06.69.66,1.2,1.35,1.14ZM467.95,166.11h0c.69-.06,1.2-.66,1.14-1.35-.06-.69-.66-1.2-1.35-1.14-.69.06-1.2.66-1.14,1.35.06.69.66,1.2,1.35,1.14ZM462.97,166.52h0c.69-.06,1.2-.66,1.14-1.35-.06-.69-.66-1.2-1.35-1.14-.69.06-1.2.66-1.14,1.35.06.69.66,1.2,1.35,1.14ZM457.98,166.94h0c.69-.06,1.2-.66,1.14-1.35-.06-.69-.66-1.2-1.35-1.14-.69.06-1.2.66-1.14,1.35.06.69.66,1.2,1.35,1.14ZM453,167.36h0c.69-.06,1.2-.66,1.14-1.35-.06-.69-.66-1.2-1.35-1.14-.69.06-1.2.66-1.14,1.35.06.69.66,1.2,1.35,1.14ZM448.01,167.77h0c.69-.06,1.2-.66,1.14-1.35-.06-.69-.66-1.2-1.35-1.14-.69.06-1.2.66-1.14,1.35.06.69.66,1.2,1.35,1.14ZM443.03,168.19h0c.69-.06,1.2-.66,1.14-1.35-.06-.69-.66-1.2-1.35-1.14-.69.06-1.2.66-1.14,1.35.06.69.66,1.2,1.35,1.14ZM438.04,168.6h0c.69-.06,1.2-.66,1.14-1.35-.06-.69-.66-1.2-1.35-1.14-.69.06-1.2.66-1.14,1.35.06.69.66,1.2,1.35,1.14ZM433.06,169.02h0c.69-.06,1.2-.66,1.14-1.35-.06-.69-.66-1.2-1.35-1.14-.69.06-1.2.66-1.14,1.35.06.69.66,1.2,1.35,1.14ZM428.07,169.43h0c.69-.06,1.2-.66,1.14-1.35-.06-.69-.66-1.2-1.35-1.14-.69.06-1.2.66-1.14,1.35.06.69.66,1.2,1.35,1.14ZM423.09,169.85h0c.69-.06,1.2-.66,1.14-1.35-.06-.69-.66-1.2-1.35-1.14-.69.06-1.2.66-1.14,1.35.06.69.66,1.2,1.35,1.14ZM418.1,170.26h0c.69-.06,1.2-.66,1.14-1.35-.06-.69-.66-1.2-1.35-1.14-.69.06-1.2.66-1.14,1.35.06.69.66,1.2,1.35,1.14ZM413.12,170.68h0c.69-.06,1.2-.66,1.14-1.35-.06-.69-.66-1.2-1.35-1.14-.69.06-1.2.66-1.14,1.35.06.69.66,1.2,1.35,1.14ZM408.13,171.09h0c.69-.06,1.2-.66,1.14-1.35-.06-.69-.66-1.2-1.35-1.14-.69.06-1.2.66-1.15,1.35.06.69.66,1.2,1.35,1.14ZM403.14,171.51h0c.69-.06,1.2-.66,1.14-1.35-.06-.69-.66-1.2-1.35-1.14-.69.06-1.2.66-1.15,1.35.06.69.66,1.2,1.35,1.14ZM398.16,171.92h0c.69-.06,1.2-.66,1.14-1.35-.06-.69-.66-1.2-1.35-1.14-.69.06-1.2.66-1.15,1.35.06.69.66,1.2,1.35,1.14ZM393.17,172.34h0c.69-.06,1.2-.66,1.14-1.35-.06-.69-.66-1.2-1.35-1.14-.69.06-1.2.66-1.15,1.35.06.69.66,1.2,1.35,1.14ZM388.19,172.75h0c.69-.06,1.2-.66,1.14-1.35-.06-.69-.66-1.2-1.35-1.14-.69.06-1.2.66-1.15,1.35.06.69.66,1.2,1.35,1.14ZM383.2,173.17h0c.69-.06,1.2-.66,1.14-1.35-.06-.69-.66-1.2-1.35-1.14-.69.06-1.2.66-1.15,1.35.06.69.66,1.2,1.35,1.14ZM378.22,173.58h0c.69-.06,1.2-.66,1.14-1.35-.06-.69-.66-1.2-1.35-1.14-.69.06-1.2.66-1.15,1.35.06.69.66,1.2,1.35,1.14ZM373.23,174h0c.69-.06,1.2-.66,1.14-1.35-.06-.69-.66-1.2-1.35-1.14-.69.06-1.2.66-1.15,1.35.06.69.66,1.2,1.35,1.14ZM368.25,174.41h0c.69-.06,1.2-.66,1.14-1.35-.06-.69-.66-1.2-1.35-1.14-.69.06-1.2.66-1.15,1.35.06.69.66,1.2,1.35,1.14ZM363.26,174.83h0c.69-.06,1.2-.66,1.14-1.35-.06-.69-.66-1.2-1.35-1.14-.69.06-1.2.66-1.15,1.35.06.69.66,1.2,1.35,1.14ZM358.28,175.24h0c.69-.06,1.2-.66,1.14-1.35-.06-.69-.66-1.2-1.35-1.14-.69.06-1.2.66-1.15,1.35.06.69.66,1.2,1.35,1.14ZM353.29,175.66h0c.69-.06,1.2-.66,1.14-1.35-.06-.69-.66-1.2-1.35-1.14-.69.06-1.2.66-1.15,1.35.06.69.66,1.2,1.35,1.14ZM348.31,176.07h0c.69-.06,1.2-.66,1.14-1.35-.06-.69-.66-1.2-1.35-1.14-.69.06-1.2.66-1.15,1.35.06.69.66,1.2,1.35,1.14ZM343.32,176.49h0c.69-.06,1.2-.66,1.14-1.35-.06-.69-.66-1.2-1.35-1.14-.69.06-1.2.66-1.15,1.35.06.69.66,1.2,1.35,1.14ZM338.34,176.9h0c.69-.06,1.2-.66,1.14-1.35-.06-.69-.66-1.2-1.35-1.14-.69.06-1.2.66-1.15,1.35.06.69.66,1.2,1.35,1.14ZM333.35,177.32h0c.69-.06,1.2-.66,1.14-1.35-.06-.69-.66-1.2-1.35-1.14-.69.06-1.2.66-1.15,1.35.06.69.66,1.2,1.35,1.14ZM328.37,177.74h0c.69-.06,1.2-.66,1.14-1.35-.06-.69-.66-1.2-1.35-1.14-.69.06-1.2.66-1.15,1.35.06.69.66,1.2,1.35,1.14ZM323.38,178.15h0c.69-.06,1.2-.66,1.14-1.35-.06-.69-.66-1.2-1.35-1.14-.69.06-1.2.66-1.14,1.35.06.69.66,1.2,1.35,1.14ZM318.4,178.57h0c.69-.06,1.2-.66,1.14-1.35-.06-.69-.66-1.2-1.35-1.14-.69.06-1.2.66-1.14,1.35.06.69.66,1.2,1.35,1.14ZM313.41,178.98h0c.69-.06,1.2-.66,1.14-1.35-.06-.69-.66-1.2-1.35-1.14-.69.06-1.2.66-1.14,1.35.06.69.66,1.2,1.35,1.14ZM308.42,179.4h0c.69-.06,1.2-.66,1.14-1.35-.06-.69-.66-1.2-1.35-1.14-.69.06-1.2.66-1.14,1.35.06.69.66,1.2,1.35,1.14ZM303.44,179.81h0c.69-.06,1.2-.66,1.14-1.35-.06-.69-.66-1.2-1.35-1.14-.69.06-1.2.66-1.14,1.35.06.69.66,1.2,1.35,1.14ZM298.45,180.23h0c.69-.06,1.2-.66,1.14-1.35-.06-.69-.66-1.2-1.35-1.14-.69.06-1.2.66-1.14,1.35.06.69.66,1.2,1.35,1.14ZM293.47,180.64h0c.69-.06,1.2-.66,1.14-1.35-.06-.69-.66-1.2-1.35-1.14-.69.06-1.2.66-1.14,1.35.06.69.66,1.2,1.35,1.14ZM288.48,181.06h0c.69-.06,1.2-.66,1.14-1.35-.06-.69-.66-1.2-1.35-1.14-.69.06-1.2.66-1.14,1.35.06.69.66,1.2,1.35,1.14ZM283.5,181.47h0c.69-.06,1.2-.66,1.14-1.35-.06-.69-.66-1.2-1.35-1.14-.69.06-1.2.66-1.14,1.35.06.69.66,1.2,1.35,1.14ZM278.51,181.89h0c.69-.06,1.2-.66,1.14-1.35-.06-.69-.66-1.2-1.35-1.14-.69.06-1.2.66-1.14,1.35.06.69.66,1.2,1.35,1.14ZM273.53,182.3h0c.69-.06,1.2-.66,1.14-1.35-.06-.69-.66-1.2-1.35-1.14-.69.06-1.2.66-1.14,1.35.06.69.66,1.2,1.35,1.14ZM268.54,182.72h0c.69-.06,1.2-.66,1.14-1.35-.06-.69-.66-1.2-1.35-1.14-.69.06-1.2.66-1.14,1.35.06.69.66,1.2,1.35,1.14ZM263.56,183.13h0c.69-.06,1.2-.66,1.14-1.35-.06-.69-.66-1.2-1.35-1.14-.69.06-1.2.66-1.14,1.35.06.69.66,1.2,1.35,1.14ZM258.57,183.55h0c.69-.06,1.2-.66,1.14-1.35-.06-.69-.66-1.2-1.35-1.14-.69.06-1.2.66-1.14,1.35.06.69.66,1.2,1.35,1.14ZM253.59,183.96h0c.69-.06,1.2-.66,1.14-1.35-.06-.69-.66-1.2-1.35-1.14-.69.06-1.2.66-1.14,1.35.06.69.66,1.2,1.35,1.14ZM248.6,184.38h0c.69-.06,1.2-.66,1.14-1.35-.06-.69-.66-1.2-1.35-1.14-.69.06-1.2.66-1.14,1.35.06.69.66,1.2,1.35,1.14ZM243.62,184.79h0c.69-.06,1.2-.66,1.14-1.35-.06-.69-.66-1.2-1.35-1.14-.69.06-1.2.66-1.14,1.35.06.69.66,1.2,1.35,1.14ZM238.63,185.21h0c.69-.06,1.2-.66,1.14-1.35-.06-.69-.66-1.2-1.35-1.14-.69.06-1.2.66-1.14,1.35.06.69.66,1.2,1.35,1.14ZM233.65,185.62h0c.69-.06,1.2-.66,1.14-1.35-.06-.69-.66-1.2-1.35-1.14-.69.06-1.2.66-1.14,1.35.06.69.66,1.2,1.35,1.14ZM228.66,186.04h0c.69-.06,1.2-.66,1.14-1.35-.06-.69-.66-1.2-1.35-1.14-.69.06-1.2.66-1.14,1.35.06.69.66,1.2,1.35,1.14ZM223.68,186.45h0c.69-.06,1.2-.66,1.14-1.35-.06-.69-.66-1.2-1.35-1.14-.69.06-1.2.66-1.14,1.35.06.69.66,1.2,1.35,1.14ZM218.69,186.87h0c.69-.06,1.2-.66,1.14-1.35-.06-.69-.66-1.2-1.35-1.14-.69.06-1.2.66-1.14,1.35.06.69.66,1.2,1.35,1.14ZM213.71,187.29h0c.69-.06,1.2-.66,1.14-1.35-.06-.69-.66-1.2-1.35-1.14-.69.06-1.2.66-1.14,1.35.06.69.66,1.2,1.35,1.14ZM208.72,187.7h0c.69-.06,1.2-.66,1.14-1.35-.06-.69-.66-1.2-1.35-1.14-.69.06-1.2.66-1.14,1.35.06.69.66,1.2,1.35,1.14ZM203.74,188.12h0c.69-.06,1.2-.66,1.14-1.35-.06-.69-.66-1.2-1.35-1.14-.69.06-1.2.66-1.14,1.35.06.69.66,1.2,1.35,1.14ZM198.75,188.53h0c.69-.06,1.2-.66,1.14-1.35-.06-.69-.66-1.2-1.35-1.14-.69.06-1.2.66-1.14,1.35.06.69.66,1.2,1.35,1.14ZM193.76,188.95h0c.69-.06,1.2-.66,1.14-1.35-.06-.69-.66-1.2-1.35-1.14-.69.06-1.2.66-1.14,1.35.06.69.66,1.2,1.35,1.14ZM188.78,189.36h0c.69-.06,1.2-.66,1.14-1.35-.06-.69-.66-1.2-1.35-1.14-.69.06-1.2.66-1.14,1.35.06.69.66,1.2,1.35,1.14ZM183.79,189.78h0c.69-.06,1.2-.66,1.14-1.35-.06-.69-.66-1.2-1.35-1.14-.69.06-1.2.66-1.14,1.35.06.69.66,1.2,1.35,1.14ZM178.81,190.19h0c.69-.06,1.2-.66,1.14-1.35-.06-.69-.66-1.2-1.35-1.14-.69.06-1.2.66-1.14,1.35.06.69.66,1.2,1.35,1.14ZM173.82,190.61h0c.69-.06,1.2-.66,1.14-1.35-.06-.69-.66-1.2-1.35-1.14-.69.06-1.2.66-1.14,1.35.06.69.66,1.2,1.35,1.14ZM168.84,191.02h0c.69-.06,1.2-.66,1.14-1.35-.06-.69-.66-1.2-1.35-1.14-.69.06-1.2.66-1.14,1.35.06.69.66,1.2,1.35,1.14ZM163.85,191.44h0c.69-.06,1.2-.66,1.14-1.35-.06-.69-.66-1.2-1.35-1.14-.69.06-1.2.66-1.14,1.35s.66,1.2,1.35,1.14ZM158.87,191.85h0c.69-.06,1.2-.66,1.14-1.35-.06-.69-.66-1.2-1.35-1.14-.69.06-1.2.66-1.14,1.35.06.69.66,1.2,1.35,1.14ZM153.88,192.27h0c.69-.06,1.2-.66,1.14-1.35-.06-.69-.66-1.2-1.35-1.14-.69.06-1.2.66-1.14,1.35.06.69.66,1.2,1.35,1.14ZM148.9,192.68h0c.69-.06,1.2-.66,1.14-1.35-.06-.69-.66-1.2-1.35-1.14-.69.06-1.2.66-1.14,1.35.06.69.66,1.2,1.35,1.14ZM143.91,193.1h0c.69-.06,1.2-.66,1.14-1.35-.06-.69-.66-1.2-1.35-1.14-.69.06-1.2.66-1.14,1.35.06.69.66,1.2,1.35,1.14ZM138.93,193.51h0c.69-.06,1.2-.66,1.14-1.35-.06-.69-.66-1.2-1.35-1.14-.69.06-1.2.66-1.14,1.35.06.69.66,1.2,1.35,1.14ZM133.94,193.93h0c.69-.06,1.2-.66,1.14-1.35-.06-.69-.66-1.2-1.35-1.14-.69.06-1.2.66-1.14,1.35.06.69.66,1.2,1.35,1.14ZM128.96,194.34h0c.69-.06,1.2-.66,1.14-1.35-.06-.69-.66-1.2-1.35-1.14-.69.06-1.2.66-1.14,1.35.06.69.66,1.2,1.35,1.14ZM123.97,194.76h0c.69-.06,1.2-.66,1.14-1.35-.06-.69-.66-1.2-1.35-1.14-.69.06-1.2.66-1.14,1.35.06.69.66,1.2,1.35,1.14ZM118.99,195.17h0c.69-.06,1.2-.66,1.14-1.35-.06-.69-.66-1.2-1.35-1.14-.69.06-1.2.66-1.14,1.35.06.69.66,1.2,1.35,1.14ZM114,195.59h0c.69-.06,1.2-.66,1.14-1.35-.06-.69-.66-1.2-1.35-1.14-.69.06-1.2.66-1.14,1.35.06.69.66,1.2,1.35,1.14ZM109.02,196h0c.69-.06,1.2-.66,1.14-1.35-.06-.69-.66-1.2-1.35-1.14-.69.06-1.2.66-1.14,1.35.06.69.66,1.2,1.35,1.14ZM104.03,196.42h0c.69-.06,1.2-.66,1.14-1.35-.06-.69-.66-1.2-1.35-1.14-.69.06-1.2.66-1.14,1.35.06.69.66,1.2,1.35,1.14ZM99.04,196.83h0c.69-.06,1.2-.66,1.14-1.35-.06-.69-.66-1.2-1.35-1.14-.69.06-1.2.66-1.14,1.35.06.69.66,1.2,1.35,1.14ZM94.06,197.25h0c.69-.06,1.2-.66,1.14-1.35-.06-.69-.66-1.2-1.35-1.14-.69.06-1.2.66-1.14,1.35.06.69.66,1.2,1.35,1.14ZM89.07,197.67h0c.69-.06,1.2-.66,1.14-1.35-.06-.69-.66-1.2-1.35-1.14-.69.06-1.2.66-1.14,1.35.06.69.66,1.2,1.35,1.14ZM84.09,198.08h0c.69-.06,1.2-.66,1.14-1.35-.06-.69-.66-1.2-1.35-1.14-.69.06-1.2.66-1.14,1.35.06.69.66,1.2,1.35,1.14ZM79.1,198.5h0c.69-.06,1.2-.66,1.14-1.35-.06-.69-.66-1.2-1.35-1.14-.69.06-1.2.66-1.14,1.35.06.69.66,1.2,1.35,1.14Z"/>
  </g>
  <g class="st24">
    <path class="st5" d="M976.8,307.28h0c.69.05,1.2.66,1.15,1.34-.05.69-.66,1.2-1.34,1.15-.69-.05-1.21-.66-1.15-1.34.05-.69.66-1.2,1.34-1.15ZM971.82,306.89h0c.69.05,1.2.66,1.15,1.34-.05.69-.66,1.2-1.34,1.15-.69-.05-1.21-.66-1.15-1.34.05-.69.66-1.2,1.34-1.15ZM966.83,306.5h0c.69.05,1.2.66,1.15,1.34-.05.69-.66,1.2-1.34,1.15-.69-.05-1.21-.66-1.15-1.34.05-.69.66-1.2,1.34-1.15ZM961.84,306.11h0c.69.05,1.2.66,1.15,1.34-.05.69-.66,1.2-1.34,1.15-.69-.05-1.21-.66-1.15-1.34.05-.69.66-1.2,1.34-1.15ZM956.85,305.72h0c.69.05,1.2.66,1.15,1.34-.05.69-.66,1.2-1.34,1.15-.69-.05-1.21-.66-1.15-1.34.05-.69.66-1.2,1.34-1.15ZM951.87,305.33h0c.69.05,1.2.66,1.15,1.34-.05.69-.66,1.2-1.34,1.15-.69-.05-1.21-.66-1.15-1.34.05-.69.66-1.2,1.34-1.15ZM946.88,304.94h0c.69.05,1.2.66,1.15,1.34-.05.69-.66,1.2-1.34,1.15-.69-.05-1.21-.66-1.15-1.34.05-.69.66-1.2,1.34-1.15ZM941.89,304.55h0c.69.05,1.2.66,1.15,1.34-.05.69-.66,1.2-1.34,1.15-.69-.05-1.21-.66-1.15-1.34.05-.69.66-1.2,1.34-1.15ZM936.9,304.16h0c.69.05,1.2.66,1.15,1.34-.05.69-.66,1.2-1.34,1.15-.69-.05-1.21-.66-1.15-1.34.05-.69.66-1.2,1.34-1.15ZM931.92,303.77h0c.69.05,1.2.66,1.15,1.34-.05.69-.66,1.2-1.34,1.15-.69-.05-1.21-.66-1.15-1.34.05-.69.66-1.2,1.34-1.15ZM926.93,303.38h0c.69.05,1.2.66,1.15,1.34-.05.69-.66,1.2-1.34,1.15-.69-.05-1.21-.66-1.15-1.34.05-.69.66-1.2,1.34-1.15ZM921.94,302.99h0c.69.05,1.2.66,1.15,1.34-.05.69-.66,1.2-1.34,1.15-.69-.05-1.21-.66-1.15-1.34.05-.69.66-1.2,1.34-1.15ZM916.96,302.6h0c.69.05,1.2.66,1.15,1.34-.05.69-.66,1.2-1.34,1.15-.69-.05-1.21-.66-1.15-1.34.05-.69.66-1.2,1.34-1.15ZM911.97,302.21h0c.69.05,1.2.66,1.15,1.34-.05.69-.66,1.2-1.34,1.15-.69-.05-1.21-.66-1.15-1.34.05-.69.66-1.2,1.34-1.15ZM906.98,301.82h0c.69.05,1.2.66,1.15,1.34-.05.69-.66,1.2-1.34,1.15-.69-.05-1.21-.66-1.15-1.34.05-.69.66-1.2,1.34-1.15ZM901.99,301.43h0c.69.05,1.2.66,1.15,1.34-.05.69-.66,1.2-1.34,1.15-.69-.05-1.21-.66-1.15-1.34.05-.69.66-1.2,1.34-1.15ZM897.01,301.04h0c.69.05,1.2.66,1.15,1.34-.05.69-.66,1.2-1.34,1.15-.69-.05-1.21-.66-1.15-1.34.05-.69.66-1.2,1.34-1.15ZM892.02,300.65h0c.69.05,1.2.66,1.15,1.34-.05.69-.66,1.2-1.34,1.15-.69-.05-1.21-.66-1.15-1.34.05-.69.66-1.2,1.34-1.15ZM887.03,300.26h0c.69.05,1.2.66,1.15,1.34-.05.69-.66,1.2-1.34,1.15-.69-.05-1.21-.66-1.15-1.34.05-.69.66-1.2,1.34-1.15ZM882.04,299.87h0c.69.05,1.2.66,1.15,1.34-.05.69-.66,1.2-1.34,1.15-.69-.05-1.21-.66-1.15-1.34.05-.69.66-1.2,1.34-1.15ZM877.06,299.48h0c.69.05,1.2.66,1.15,1.34-.05.69-.66,1.2-1.34,1.15-.69-.05-1.21-.66-1.15-1.34.05-.69.66-1.2,1.34-1.15ZM872.07,299.09h0c.69.05,1.2.66,1.15,1.34-.05.69-.66,1.2-1.34,1.15-.69-.05-1.21-.66-1.15-1.34.05-.69.66-1.2,1.34-1.15ZM867.08,298.7h0c.69.05,1.2.66,1.15,1.34-.05.69-.66,1.2-1.34,1.15-.69-.05-1.21-.66-1.15-1.34.05-.69.66-1.2,1.34-1.15ZM862.1,298.3h0c.69.05,1.2.66,1.15,1.34-.05.69-.66,1.2-1.34,1.15-.69-.05-1.21-.66-1.15-1.34.05-.69.66-1.2,1.34-1.15ZM857.11,297.91h0c.69.05,1.2.66,1.15,1.34-.05.69-.66,1.2-1.34,1.15-.69-.05-1.21-.66-1.15-1.34.05-.69.66-1.2,1.34-1.15ZM852.12,297.52h0c.69.05,1.2.66,1.15,1.34-.05.69-.66,1.2-1.34,1.15-.69-.05-1.21-.66-1.15-1.34.05-.69.66-1.2,1.34-1.15ZM847.13,297.13h0c.69.05,1.2.66,1.15,1.34-.05.69-.66,1.2-1.34,1.15-.69-.05-1.21-.66-1.15-1.34.05-.69.66-1.2,1.34-1.15ZM842.15,296.74h0c.69.05,1.2.66,1.15,1.34-.05.69-.66,1.2-1.34,1.15-.69-.05-1.21-.66-1.15-1.34.05-.69.66-1.2,1.34-1.15ZM837.16,296.35h0c.69.05,1.2.66,1.15,1.34-.05.69-.66,1.2-1.34,1.15-.69-.05-1.21-.66-1.15-1.34.05-.69.66-1.2,1.34-1.15ZM832.17,295.96h0c.69.05,1.2.66,1.15,1.34-.05.69-.66,1.2-1.34,1.15-.69-.05-1.21-.66-1.15-1.34.05-.69.66-1.2,1.34-1.15ZM827.18,295.57h0c.69.05,1.2.66,1.15,1.34-.05.69-.66,1.2-1.34,1.15-.69-.05-1.21-.66-1.15-1.34.05-.69.66-1.2,1.34-1.15ZM822.2,295.18h0c.69.05,1.2.66,1.15,1.34-.05.69-.66,1.2-1.34,1.15-.69-.05-1.21-.66-1.15-1.34.05-.69.66-1.2,1.34-1.15ZM817.21,294.79h0c.69.05,1.2.66,1.15,1.34-.05.69-.66,1.2-1.34,1.15-.69-.05-1.21-.66-1.15-1.34.05-.69.66-1.2,1.34-1.15ZM812.22,294.4h0c.69.05,1.2.66,1.15,1.34-.05.69-.66,1.2-1.34,1.15-.69-.05-1.21-.66-1.15-1.34.05-.69.66-1.2,1.34-1.15ZM807.24,294.01h0c.69.05,1.2.66,1.15,1.34-.05.69-.66,1.2-1.34,1.15-.69-.05-1.21-.66-1.15-1.34.05-.69.66-1.2,1.34-1.15ZM802.25,293.62h0c.69.05,1.2.66,1.15,1.34-.05.69-.66,1.2-1.34,1.15-.69-.05-1.21-.66-1.15-1.34.05-.69.66-1.2,1.34-1.15ZM797.26,293.23h0c.69.05,1.2.66,1.15,1.34-.05.69-.66,1.2-1.34,1.15-.69-.05-1.21-.66-1.15-1.34.05-.69.66-1.2,1.34-1.15ZM792.27,292.84h0c.69.05,1.2.66,1.15,1.34-.05.69-.66,1.2-1.34,1.15-.69-.05-1.21-.66-1.15-1.34.05-.69.66-1.2,1.34-1.15ZM787.29,292.45h0c.69.05,1.2.66,1.15,1.34-.05.69-.66,1.2-1.34,1.15-.69-.05-1.21-.66-1.15-1.34.05-.69.66-1.2,1.34-1.15ZM782.3,292.06h0c.69.05,1.2.66,1.15,1.34-.05.69-.66,1.2-1.34,1.15-.69-.05-1.21-.66-1.15-1.34.05-.69.66-1.2,1.34-1.15ZM777.31,291.67h0c.69.05,1.2.66,1.15,1.34-.05.69-.66,1.2-1.34,1.15-.69-.05-1.21-.66-1.15-1.34.05-.69.66-1.2,1.34-1.15ZM772.32,291.28h0c.69.05,1.2.66,1.15,1.34-.05.69-.66,1.2-1.34,1.15-.69-.05-1.21-.66-1.15-1.34.05-.69.66-1.2,1.34-1.15ZM767.34,290.89h0c.69.05,1.2.66,1.15,1.34-.05.69-.66,1.2-1.34,1.15-.69-.05-1.21-.66-1.15-1.34.05-.69.66-1.2,1.34-1.15ZM762.35,290.5h0c.69.05,1.2.66,1.15,1.34-.05.69-.66,1.2-1.34,1.15-.69-.05-1.21-.66-1.15-1.34.05-.69.66-1.2,1.34-1.15ZM757.36,290.11h0c.69.05,1.2.66,1.15,1.34-.05.69-.66,1.2-1.34,1.15-.69-.05-1.21-.66-1.15-1.34.05-.69.66-1.2,1.34-1.15ZM752.38,289.71h0c.69.05,1.2.66,1.15,1.34-.05.69-.66,1.2-1.34,1.15-.69-.05-1.21-.66-1.15-1.34.05-.69.66-1.2,1.34-1.15ZM747.39,289.32h0c.69.05,1.2.66,1.15,1.34-.05.69-.66,1.2-1.34,1.15-.69-.05-1.21-.66-1.15-1.34.05-.69.66-1.2,1.34-1.15ZM742.4,288.93h0c.69.05,1.2.66,1.15,1.34-.05.69-.66,1.2-1.34,1.15-.69-.05-1.21-.66-1.15-1.34.05-.69.66-1.2,1.34-1.15ZM737.42,288.54h0c.69.05,1.2.66,1.15,1.35-.05.69-.66,1.2-1.34,1.15-.69-.05-1.2-.66-1.15-1.35.05-.69.66-1.2,1.35-1.15ZM732.43,288.15h0c.69.05,1.2.66,1.15,1.35-.05.69-.66,1.2-1.34,1.15-.69-.05-1.2-.66-1.15-1.35.05-.69.66-1.2,1.34-1.15ZM727.44,287.76h0c.69.05,1.2.66,1.15,1.35-.05.69-.66,1.2-1.34,1.15-.69-.05-1.2-.66-1.15-1.35.05-.69.66-1.2,1.34-1.15ZM722.45,287.37h0c.69.05,1.2.66,1.15,1.35-.05.69-.66,1.2-1.34,1.15-.69-.05-1.2-.66-1.15-1.35.05-.69.66-1.2,1.34-1.15ZM717.47,286.98h0c.69.05,1.2.66,1.15,1.35-.05.69-.66,1.2-1.35,1.15-.69-.05-1.2-.66-1.15-1.35.05-.69.66-1.2,1.34-1.15ZM712.48,286.59h0c.69.05,1.2.66,1.15,1.35-.05.69-.66,1.2-1.34,1.15-.69-.05-1.2-.66-1.15-1.35.05-.69.66-1.2,1.35-1.15ZM707.49,286.2h0c.69.05,1.2.66,1.15,1.35-.05.69-.66,1.2-1.35,1.15-.69-.05-1.2-.66-1.15-1.35.05-.69.66-1.2,1.34-1.15ZM702.5,285.81h0c.69.05,1.2.66,1.15,1.35-.05.69-.66,1.2-1.34,1.15-.69-.05-1.2-.66-1.15-1.35.05-.69.66-1.2,1.35-1.15ZM697.52,285.42h0c.69.05,1.2.66,1.15,1.35-.05.69-.66,1.2-1.34,1.15-.69-.05-1.2-.66-1.15-1.35.05-.69.66-1.2,1.34-1.15ZM692.53,285.03h0c.69.05,1.2.66,1.15,1.35-.05.69-.66,1.2-1.34,1.15-.69-.05-1.2-.66-1.15-1.35.05-.69.66-1.2,1.35-1.15ZM687.54,284.64h0c.69.05,1.2.66,1.15,1.35-.05.69-.66,1.2-1.34,1.15-.69-.05-1.2-.66-1.15-1.35.05-.69.66-1.2,1.34-1.15ZM682.56,284.25h0c.69.05,1.2.66,1.15,1.35-.05.69-.66,1.2-1.34,1.15-.69-.05-1.2-.66-1.15-1.35.05-.69.66-1.2,1.34-1.15ZM677.57,283.86h0c.69.05,1.2.66,1.15,1.35-.05.69-.66,1.2-1.34,1.15-.69-.05-1.2-.66-1.15-1.35.05-.69.66-1.2,1.34-1.15ZM672.58,283.47h0c.69.05,1.2.66,1.15,1.35-.05.69-.66,1.2-1.35,1.15-.69-.05-1.2-.66-1.15-1.35.05-.69.66-1.2,1.34-1.15ZM667.59,283.08h0c.69.05,1.2.66,1.15,1.35-.05.69-.66,1.2-1.34,1.15-.69-.05-1.2-.66-1.15-1.35.05-.69.66-1.2,1.35-1.15ZM662.61,282.69h0c.69.05,1.2.66,1.15,1.35-.05.69-.66,1.2-1.35,1.15-.69-.05-1.2-.66-1.15-1.35.05-.69.66-1.2,1.34-1.15ZM657.62,282.3h0c.69.05,1.2.66,1.15,1.35-.05.69-.66,1.2-1.34,1.15-.69-.05-1.2-.66-1.15-1.35.05-.69.66-1.2,1.35-1.15ZM652.63,281.91h0c.69.05,1.2.66,1.15,1.35-.05.69-.66,1.2-1.34,1.15-.69-.05-1.2-.66-1.15-1.35.05-.69.66-1.2,1.34-1.15ZM647.64,281.52h0c.69.05,1.2.66,1.15,1.35-.05.69-.66,1.2-1.34,1.15-.69-.05-1.2-.66-1.15-1.35.05-.69.66-1.2,1.34-1.15ZM642.66,281.12h0c.69.05,1.2.66,1.15,1.35-.05.69-.66,1.2-1.34,1.15-.69-.05-1.2-.66-1.15-1.35.05-.69.66-1.2,1.34-1.15ZM637.67,280.73h0c.69.05,1.2.66,1.15,1.35-.05.69-.66,1.2-1.35,1.15-.69-.05-1.2-.66-1.15-1.35.05-.69.66-1.2,1.34-1.15ZM632.68,280.34h0c.69.05,1.2.66,1.15,1.35-.05.69-.66,1.2-1.34,1.15-.69-.05-1.2-.66-1.15-1.35.05-.69.66-1.2,1.35-1.15ZM627.7,279.95h0c.69.05,1.2.66,1.15,1.35-.05.69-.66,1.2-1.35,1.15-.69-.05-1.2-.66-1.15-1.35.05-.69.66-1.2,1.34-1.15ZM622.71,279.56h0c.69.05,1.2.66,1.15,1.35-.05.69-.66,1.2-1.34,1.15-.69-.05-1.2-.66-1.15-1.35.05-.69.66-1.2,1.35-1.15ZM617.72,279.17h0c.69.05,1.2.66,1.15,1.35-.05.69-.66,1.2-1.34,1.15-.69-.05-1.2-.66-1.15-1.35.05-.69.66-1.2,1.34-1.15ZM612.73,278.78h0c.69.05,1.2.66,1.15,1.35-.05.69-.66,1.2-1.34,1.15-.69-.05-1.2-.66-1.15-1.35.05-.69.66-1.2,1.34-1.15ZM607.75,278.39h0c.69.05,1.2.66,1.15,1.35-.05.69-.66,1.2-1.34,1.15-.69-.05-1.2-.66-1.15-1.35.05-.69.66-1.2,1.34-1.15ZM602.76,278h0c.69.05,1.2.66,1.15,1.34-.05.69-.66,1.2-1.34,1.15-.69-.05-1.2-.66-1.15-1.34.05-.69.66-1.2,1.34-1.15ZM597.77,277.61h0c.69.05,1.2.66,1.15,1.34-.05.69-.66,1.2-1.34,1.15-.69-.05-1.2-.66-1.15-1.34.05-.69.66-1.2,1.34-1.15ZM592.78,277.22h0c.69.05,1.2.66,1.15,1.34-.05.69-.66,1.2-1.34,1.15-.69-.05-1.2-.66-1.15-1.34.05-.69.66-1.2,1.34-1.15ZM587.8,276.83h0c.69.05,1.2.66,1.15,1.34-.05.69-.66,1.2-1.34,1.15-.69-.05-1.2-.66-1.15-1.34.05-.69.66-1.2,1.34-1.15ZM582.81,276.44h0c.69.05,1.2.66,1.15,1.34-.05.69-.66,1.2-1.34,1.15-.69-.05-1.2-.66-1.15-1.34.05-.69.66-1.2,1.34-1.15ZM577.82,276.05h0c.69.05,1.2.66,1.15,1.34-.05.69-.66,1.2-1.34,1.15-.69-.05-1.2-.66-1.15-1.34.05-.69.66-1.2,1.34-1.15ZM572.83,275.66h0c.69.05,1.2.66,1.15,1.34-.05.69-.66,1.2-1.34,1.15-.69-.05-1.21-.66-1.15-1.34.05-.69.66-1.2,1.34-1.15ZM567.85,275.27h0c.69.05,1.2.66,1.15,1.34-.05.69-.66,1.2-1.34,1.15-.69-.05-1.2-.66-1.15-1.34.05-.69.66-1.2,1.34-1.15ZM562.86,274.88h0c.69.05,1.2.66,1.15,1.34-.05.69-.66,1.2-1.34,1.15-.69-.05-1.21-.66-1.15-1.34.05-.69.66-1.2,1.34-1.15ZM557.87,274.49h0c.69.05,1.2.66,1.15,1.34-.05.69-.66,1.2-1.34,1.15-.69-.05-1.2-.66-1.15-1.34.05-.69.66-1.2,1.34-1.15ZM552.89,274.1h0c.69.05,1.2.66,1.15,1.34-.05.69-.66,1.2-1.34,1.15-.69-.05-1.2-.66-1.15-1.34.05-.69.66-1.2,1.34-1.15ZM547.9,273.71h0c.69.05,1.2.66,1.15,1.34-.05.69-.66,1.2-1.34,1.15-.69-.05-1.2-.66-1.15-1.34.05-.69.66-1.2,1.34-1.15ZM542.91,273.32h0c.69.05,1.2.66,1.15,1.34-.05.69-.66,1.2-1.34,1.15-.69-.05-1.2-.66-1.15-1.34.05-.69.66-1.2,1.34-1.15ZM537.92,272.93h0c.69.05,1.2.66,1.15,1.34-.05.69-.66,1.2-1.34,1.15-.69-.05-1.2-.66-1.15-1.34.05-.69.66-1.2,1.34-1.15ZM532.94,272.53h0c.69.05,1.2.66,1.15,1.34-.05.69-.66,1.2-1.34,1.15-.69-.05-1.2-.66-1.15-1.34.05-.69.66-1.2,1.34-1.15ZM527.95,272.14h0c.69.05,1.2.66,1.15,1.34-.05.69-.66,1.2-1.34,1.15-.69-.05-1.21-.66-1.15-1.34.05-.69.66-1.2,1.34-1.15ZM522.96,271.75h0c.69.05,1.2.66,1.15,1.34-.05.69-.66,1.2-1.34,1.15-.69-.05-1.2-.66-1.15-1.34.05-.69.66-1.2,1.34-1.15ZM517.98,271.36h0c.69.05,1.2.66,1.15,1.34-.05.69-.66,1.2-1.34,1.15-.69-.05-1.21-.66-1.15-1.34.05-.69.66-1.2,1.34-1.15ZM512.99,270.97h0c.69.05,1.2.66,1.15,1.34-.05.69-.66,1.2-1.34,1.15-.69-.05-1.2-.66-1.15-1.34.05-.69.66-1.2,1.34-1.15ZM508,270.58h0c.69.05,1.2.66,1.15,1.34-.05.69-.66,1.2-1.34,1.15-.69-.05-1.2-.66-1.15-1.34.05-.69.66-1.2,1.34-1.15ZM503.01,270.19h0c.69.05,1.2.66,1.15,1.34-.05.69-.66,1.2-1.34,1.15-.69-.05-1.2-.66-1.15-1.34.05-.69.66-1.2,1.34-1.15ZM498.03,269.8h0c.69.05,1.2.66,1.15,1.34-.05.69-.66,1.2-1.34,1.15-.69-.05-1.2-.66-1.15-1.34.05-.69.66-1.2,1.34-1.15ZM493.04,269.41h0c.69.05,1.2.66,1.15,1.34-.05.69-.66,1.2-1.34,1.15-.69-.05-1.2-.66-1.15-1.34.05-.69.66-1.2,1.34-1.15ZM488.05,269.02h0c.69.05,1.2.66,1.15,1.34-.05.69-.66,1.2-1.34,1.15-.69-.05-1.2-.66-1.15-1.34.05-.69.66-1.2,1.34-1.15ZM483.06,268.63h0c.69.05,1.2.66,1.15,1.34-.05.69-.66,1.2-1.34,1.15-.69-.05-1.21-.66-1.15-1.34.05-.69.66-1.2,1.34-1.15ZM478.08,268.24h0c.69.05,1.2.66,1.15,1.34-.05.69-.66,1.2-1.34,1.15-.69-.05-1.2-.66-1.15-1.34.05-.69.66-1.2,1.34-1.15ZM473.09,267.85h0c.69.05,1.2.66,1.15,1.34-.05.69-.66,1.2-1.34,1.15-.69-.05-1.2-.66-1.15-1.34.05-.69.66-1.2,1.34-1.15ZM468.1,267.46h0c.69.05,1.2.66,1.15,1.34-.05.69-.66,1.2-1.34,1.15-.69-.05-1.2-.66-1.15-1.34.05-.69.66-1.2,1.34-1.15ZM463.12,267.07h0c.69.05,1.2.66,1.15,1.34-.05.69-.66,1.2-1.34,1.15-.69-.05-1.2-.66-1.15-1.34.05-.69.66-1.2,1.34-1.15ZM458.13,266.68h0c.69.05,1.2.66,1.15,1.34-.05.69-.66,1.2-1.34,1.15-.69-.05-1.2-.66-1.15-1.34.05-.69.66-1.2,1.34-1.15ZM453.14,266.29h0c.69.05,1.2.66,1.15,1.34-.05.69-.66,1.2-1.34,1.15-.69-.05-1.2-.66-1.15-1.34.05-.69.66-1.2,1.34-1.15ZM448.15,265.9h0c.69.05,1.2.66,1.15,1.34-.05.69-.66,1.2-1.34,1.15-.69-.05-1.2-.66-1.15-1.34.05-.69.66-1.2,1.34-1.15ZM443.17,265.51h0c.69.05,1.2.66,1.15,1.34-.05.69-.66,1.2-1.34,1.15-.69-.05-1.2-.66-1.15-1.34.05-.69.66-1.2,1.34-1.15ZM438.18,265.12h0c.69.05,1.2.66,1.15,1.34-.05.69-.66,1.2-1.34,1.15-.69-.05-1.21-.66-1.15-1.34.05-.69.66-1.2,1.34-1.15ZM433.19,264.73h0c.69.05,1.2.66,1.15,1.34-.05.69-.66,1.2-1.34,1.15-.69-.05-1.2-.66-1.15-1.34.05-.69.66-1.2,1.34-1.15ZM428.2,264.34h0c.69.05,1.2.66,1.15,1.34-.05.69-.66,1.2-1.34,1.15-.69-.05-1.2-.66-1.15-1.34.05-.69.66-1.2,1.34-1.15ZM423.22,263.94h0c.69.05,1.2.66,1.15,1.34-.05.69-.66,1.2-1.34,1.15-.69-.05-1.2-.66-1.15-1.34.05-.69.66-1.2,1.34-1.15ZM418.23,263.55h0c.69.05,1.2.66,1.15,1.34-.05.69-.66,1.2-1.34,1.15-.69-.05-1.2-.66-1.15-1.34.05-.69.66-1.2,1.34-1.15ZM413.24,263.16h0c.69.05,1.2.66,1.15,1.34-.05.69-.66,1.2-1.34,1.15-.69-.05-1.2-.66-1.15-1.34.05-.69.66-1.2,1.34-1.15ZM408.26,262.77h0c.69.05,1.2.66,1.15,1.34-.05.69-.65,1.2-1.34,1.15-.69-.05-1.21-.66-1.15-1.34.05-.69.65-1.2,1.34-1.15ZM403.27,262.38h0c.69.05,1.2.65,1.15,1.34-.05.69-.65,1.2-1.34,1.15-.69-.05-1.21-.65-1.15-1.34.05-.69.65-1.2,1.34-1.15ZM398.28,261.99h0c.69.05,1.2.66,1.15,1.34-.05.69-.65,1.2-1.34,1.15-.69-.05-1.21-.66-1.15-1.34.05-.69.65-1.2,1.34-1.15ZM393.29,261.6h0c.69.05,1.2.65,1.15,1.34-.05.69-.65,1.2-1.34,1.15-.69-.05-1.21-.65-1.15-1.34.05-.69.65-1.2,1.34-1.15ZM388.31,261.21h0c.69.05,1.2.66,1.15,1.34-.05.69-.65,1.2-1.34,1.15-.69-.05-1.21-.66-1.15-1.34.05-.69.65-1.2,1.34-1.15ZM383.32,260.82h0c.69.05,1.2.65,1.15,1.34-.05.69-.65,1.2-1.34,1.15-.69-.05-1.21-.65-1.15-1.34.05-.69.65-1.2,1.34-1.15ZM378.33,260.43h0c.69.05,1.2.66,1.15,1.34-.05.69-.65,1.2-1.34,1.15-.69-.05-1.21-.66-1.15-1.34.05-.69.65-1.2,1.34-1.15ZM373.34,260.04h0c.69.05,1.2.65,1.15,1.34-.05.69-.65,1.2-1.34,1.15-.69-.05-1.21-.65-1.15-1.34.05-.69.65-1.2,1.34-1.15ZM368.36,259.65h0c.69.05,1.2.66,1.15,1.34-.05.69-.65,1.2-1.34,1.15-.69-.05-1.21-.66-1.15-1.34.05-.69.65-1.2,1.34-1.15ZM363.37,259.26h0c.69.05,1.2.65,1.15,1.34-.05.69-.65,1.2-1.34,1.15-.69-.05-1.21-.65-1.15-1.34.05-.69.65-1.2,1.34-1.15ZM358.38,258.87h0c.69.05,1.2.66,1.15,1.34-.05.69-.65,1.2-1.34,1.15-.69-.05-1.21-.66-1.15-1.34.05-.69.65-1.2,1.34-1.15ZM353.4,258.48h0c.69.05,1.2.65,1.15,1.34s-.65,1.2-1.34,1.15c-.69-.05-1.21-.66-1.15-1.34s.65-1.2,1.34-1.15ZM348.41,258.09h0c.69.05,1.2.66,1.15,1.34-.05.69-.65,1.2-1.34,1.15-.69-.05-1.21-.66-1.15-1.34.05-.69.65-1.2,1.34-1.15ZM343.42,257.7h0c.69.05,1.2.66,1.15,1.34s-.65,1.2-1.34,1.15c-.69-.05-1.21-.66-1.15-1.34s.65-1.2,1.34-1.15ZM338.43,257.31h0c.69.05,1.2.66,1.15,1.34-.05.69-.66,1.2-1.34,1.15-.69-.05-1.21-.66-1.15-1.34.05-.69.66-1.2,1.34-1.15ZM333.45,256.92h0c.69.05,1.2.66,1.15,1.34-.05.69-.66,1.2-1.34,1.15-.69-.05-1.21-.66-1.15-1.34.05-.69.66-1.2,1.34-1.15ZM328.46,256.53h0c.69.05,1.2.66,1.15,1.34-.05.69-.66,1.2-1.34,1.15-.69-.05-1.2-.66-1.15-1.34.05-.69.66-1.2,1.34-1.15ZM323.47,256.14h0c.69.05,1.2.66,1.15,1.34-.05.69-.66,1.2-1.34,1.15-.69-.05-1.2-.66-1.15-1.34.05-.69.66-1.2,1.34-1.15ZM318.49,255.75h0c.69.05,1.2.66,1.15,1.34-.05.69-.66,1.2-1.34,1.15-.69-.05-1.21-.66-1.15-1.34.05-.69.66-1.2,1.34-1.15ZM313.5,255.35h0c.69.05,1.2.66,1.15,1.34-.05.69-.66,1.2-1.34,1.15-.69-.05-1.21-.66-1.15-1.34.05-.69.66-1.2,1.34-1.15ZM308.51,254.96h0c.69.05,1.2.66,1.15,1.34-.05.69-.66,1.2-1.34,1.15-.69-.05-1.21-.66-1.15-1.34.05-.69.66-1.2,1.34-1.15ZM303.52,254.57h0c.69.05,1.2.66,1.15,1.34-.05.69-.66,1.2-1.34,1.15-.69-.05-1.21-.66-1.15-1.34.05-.69.66-1.2,1.34-1.15ZM298.54,254.18h0c.69.05,1.2.66,1.15,1.34-.05.69-.66,1.2-1.34,1.15-.69-.05-1.2-.66-1.15-1.34.05-.69.66-1.2,1.34-1.15ZM293.55,253.79h0c.69.05,1.2.66,1.15,1.34-.05.69-.66,1.2-1.34,1.15-.69-.05-1.21-.66-1.15-1.34.05-.69.66-1.2,1.34-1.15ZM288.56,253.4h0c.69.05,1.2.66,1.15,1.34-.05.69-.66,1.2-1.34,1.15-.69-.05-1.21-.66-1.15-1.34.05-.69.66-1.2,1.34-1.15ZM283.57,253.01h0c.69.05,1.2.66,1.15,1.34-.05.69-.66,1.2-1.34,1.15-.69-.05-1.2-.66-1.15-1.34.05-.69.66-1.2,1.34-1.15ZM278.59,252.62h0c.69.05,1.2.66,1.15,1.34-.05.69-.66,1.2-1.34,1.15-.69-.05-1.2-.66-1.15-1.34.05-.69.66-1.2,1.34-1.15ZM273.6,252.23h0c.69.05,1.2.66,1.15,1.34-.05.69-.66,1.2-1.34,1.15-.69-.05-1.21-.66-1.15-1.34.05-.69.66-1.2,1.34-1.15ZM268.61,251.84h0c.69.05,1.2.66,1.15,1.34-.05.69-.66,1.2-1.34,1.15-.69-.05-1.21-.66-1.15-1.34.05-.69.66-1.2,1.34-1.15ZM263.63,251.45h0c.69.05,1.2.66,1.15,1.34-.05.69-.66,1.2-1.34,1.15-.69-.05-1.2-.66-1.15-1.34.05-.69.66-1.2,1.34-1.15ZM258.64,251.06h0c.69.05,1.2.66,1.15,1.34-.05.69-.66,1.2-1.34,1.15-.69-.05-1.21-.66-1.15-1.34.05-.69.66-1.2,1.34-1.15ZM253.65,250.67h0c.69.05,1.2.66,1.15,1.34-.05.69-.66,1.2-1.34,1.15-.69-.05-1.21-.66-1.15-1.34.05-.69.66-1.2,1.34-1.15ZM248.66,250.28h0c.69.05,1.2.66,1.15,1.34-.05.69-.66,1.2-1.34,1.15-.69-.05-1.21-.66-1.15-1.34.05-.69.66-1.2,1.34-1.15ZM243.68,249.89h0c.69.05,1.2.66,1.15,1.34-.05.69-.66,1.2-1.34,1.15-.69-.05-1.2-.66-1.15-1.34.05-.69.66-1.2,1.34-1.15ZM238.69,249.5h0c.69.05,1.2.66,1.15,1.34-.05.69-.66,1.2-1.34,1.15-.69-.05-1.2-.66-1.15-1.34.05-.69.66-1.2,1.34-1.15ZM233.7,249.11h0c.69.05,1.2.66,1.15,1.34-.05.69-.66,1.2-1.34,1.15-.69-.05-1.2-.66-1.15-1.34.05-.69.66-1.2,1.34-1.15ZM228.72,248.72h0c.69.05,1.2.66,1.15,1.34-.05.69-.66,1.2-1.34,1.15-.69-.05-1.2-.66-1.15-1.34.05-.69.66-1.2,1.34-1.15ZM223.73,248.33h0c.69.05,1.2.66,1.15,1.34-.05.69-.66,1.2-1.34,1.15-.69-.05-1.2-.66-1.15-1.34.05-.69.66-1.2,1.34-1.15ZM218.74,247.94h0c.69.05,1.2.66,1.15,1.34-.05.69-.66,1.2-1.34,1.15-.69-.05-1.2-.66-1.15-1.34.05-.69.66-1.2,1.34-1.15ZM213.75,247.55h0c.69.05,1.2.66,1.15,1.34-.05.69-.66,1.2-1.34,1.15-.69-.05-1.2-.66-1.15-1.34.05-.69.66-1.2,1.34-1.15ZM208.77,247.16h0c.69.05,1.2.66,1.15,1.34-.05.69-.66,1.2-1.34,1.15-.69-.05-1.21-.66-1.15-1.34.05-.69.66-1.2,1.34-1.15ZM203.78,246.77h0c.69.05,1.2.66,1.15,1.34-.05.69-.66,1.2-1.34,1.15-.69-.05-1.21-.66-1.15-1.34.05-.69.66-1.2,1.34-1.15ZM198.79,246.37h0c.69.05,1.2.66,1.15,1.34-.05.69-.66,1.2-1.34,1.15-.69-.05-1.2-.66-1.15-1.34.05-.69.66-1.2,1.34-1.15ZM193.8,245.98h0c.69.05,1.2.66,1.15,1.34-.05.69-.66,1.2-1.34,1.15-.69-.05-1.21-.66-1.15-1.34.05-.69.66-1.2,1.34-1.15ZM188.82,245.59h0c.69.05,1.2.66,1.15,1.34-.05.69-.66,1.2-1.34,1.15-.69-.05-1.21-.66-1.15-1.34.05-.69.66-1.2,1.34-1.15ZM183.83,245.2h0c.69.05,1.2.66,1.15,1.34-.05.69-.66,1.2-1.34,1.15-.69-.05-1.2-.66-1.15-1.34.05-.69.66-1.2,1.34-1.15ZM178.84,244.81h0c.69.05,1.2.66,1.15,1.34-.05.69-.66,1.2-1.34,1.15-.69-.05-1.21-.66-1.15-1.34.05-.69.66-1.2,1.34-1.15ZM173.86,244.42h0c.69.05,1.2.66,1.15,1.34-.05.69-.66,1.2-1.34,1.15-.69-.05-1.21-.66-1.15-1.34.05-.69.66-1.2,1.34-1.15ZM168.87,244.03h0c.69.05,1.2.66,1.15,1.34-.05.69-.66,1.2-1.34,1.15-.69-.05-1.21-.66-1.15-1.34.05-.69.66-1.2,1.34-1.15ZM163.88,243.64h0c.69.05,1.2.66,1.15,1.34-.05.69-.66,1.2-1.34,1.15-.69-.05-1.21-.66-1.15-1.34.05-.69.66-1.2,1.34-1.15ZM158.89,243.25h0c.69.05,1.2.66,1.15,1.34-.05.69-.66,1.2-1.34,1.15-.69-.05-1.21-.66-1.15-1.34.05-.69.66-1.2,1.34-1.15ZM153.91,242.86h0c.69.05,1.2.66,1.15,1.34-.05.69-.66,1.2-1.34,1.15-.69-.05-1.21-.66-1.15-1.34.05-.69.66-1.2,1.34-1.15ZM148.92,242.47h0c.69.05,1.2.66,1.15,1.34-.05.69-.66,1.2-1.34,1.15-.69-.05-1.21-.66-1.15-1.34.05-.69.66-1.2,1.34-1.15ZM143.93,242.08h0c.69.05,1.2.66,1.15,1.34-.05.69-.66,1.2-1.34,1.15-.69-.05-1.21-.66-1.15-1.34.05-.69.66-1.2,1.34-1.15ZM138.94,241.69h0c.69.05,1.2.66,1.15,1.34-.05.69-.66,1.2-1.34,1.15-.69-.05-1.21-.66-1.15-1.34.05-.69.66-1.2,1.34-1.15ZM133.96,241.3h0c.69.05,1.2.66,1.15,1.34-.05.69-.66,1.2-1.34,1.15-.69-.05-1.2-.66-1.15-1.34.05-.69.66-1.2,1.34-1.15ZM128.97,240.91h0c.69.05,1.2.66,1.15,1.34-.05.69-.66,1.2-1.34,1.15-.69-.05-1.2-.66-1.15-1.34.05-.69.66-1.2,1.34-1.15ZM123.98,240.52h0c.69.05,1.2.66,1.15,1.34-.05.69-.66,1.2-1.34,1.15-.69-.05-1.21-.66-1.15-1.34.05-.69.66-1.2,1.34-1.15ZM119,240.13h0c.69.05,1.2.66,1.15,1.34-.05.69-.66,1.2-1.34,1.15-.69-.05-1.21-.66-1.15-1.34.05-.69.66-1.2,1.34-1.15ZM114.01,239.74h0c.69.05,1.2.66,1.15,1.34-.05.69-.66,1.2-1.34,1.15-.69-.05-1.21-.66-1.15-1.34.05-.69.66-1.2,1.34-1.15ZM109.02,239.35h0c.69.05,1.2.66,1.15,1.34-.05.69-.66,1.2-1.34,1.15-.69-.05-1.21-.66-1.15-1.34.05-.69.66-1.2,1.34-1.15ZM104.03,238.96h0c.69.05,1.2.66,1.15,1.34-.05.69-.66,1.2-1.34,1.15-.69-.05-1.21-.66-1.15-1.34.05-.69.66-1.2,1.34-1.15ZM99.05,238.57h0c.69.05,1.2.66,1.15,1.34-.05.69-.66,1.2-1.34,1.15-.69-.05-1.2-.66-1.15-1.34.05-.69.66-1.2,1.34-1.15ZM94.06,238.18h0c.69.05,1.2.66,1.15,1.34-.05.69-.66,1.2-1.34,1.15-.69-.05-1.2-.66-1.15-1.34.05-.69.66-1.2,1.34-1.15ZM89.07,237.78h0c.69.05,1.2.66,1.15,1.34-.05.69-.66,1.2-1.34,1.15-.69-.05-1.2-.66-1.15-1.34.05-.69.66-1.2,1.34-1.15ZM84.08,237.39h0c.69.05,1.2.66,1.15,1.34-.05.69-.66,1.2-1.34,1.15-.69-.05-1.21-.66-1.15-1.34.05-.69.66-1.2,1.34-1.15ZM79.1,237h0c.69.05,1.2.66,1.15,1.34-.05.69-.66,1.2-1.34,1.15-.69-.05-1.21-.66-1.15-1.34.05-.69.66-1.2,1.34-1.15Z"/>
  </g>
  <g class="st23">
    <text class="st36" transform="translate(24.58 419)"><tspan class="st37" x="0" y="0">0</tspan><tspan x="10" y="0">%</tspan></text>
  </g>
  <g class="st26">
    <text class="st36" transform="translate(14.88 340.5)"><tspan class="st53" x="0" y="0">2</tspan><tspan class="st37" x="10" y="0">0</tspan><tspan x="20" y="0">%</tspan></text>
  </g>
  <g class="st25">
    <text class="st36" transform="translate(14.8 262.5)"><tspan class="st60" x="0" y="0">4</tspan><tspan class="st37" x="10" y="0">0</tspan><tspan class="st28" x="20" y="0">%</tspan></text>
  </g>
  <g class="st11">
    <text class="st36" transform="translate(14.6 184.5)"><tspan x="0" y="0">6</tspan><tspan class="st40" x="9.98" y="0">0</tspan><tspan x="20" y="0">%</tspan></text>
  </g>
  <g class="st8">
    <text class="st36" transform="translate(14.6 106)"><tspan x="0" y="0">8</tspan><tspan class="st40" x="9.98" y="0">0</tspan><tspan x="20" y="0">%</tspan></text>
  </g>
  <g class="st15">
    <text class="st36" transform="translate(6.9 28)"><tspan class="st40" x="0" y="0">1</tspan><tspan class="st59" x="7.02" y="0">0</tspan><tspan class="st40" x="18" y="0">0</tspan><tspan x="28.02" y="0">%</tspan></text>
  </g>
  <g class="st13">
    <text class="st36" transform="translate(87.34 451.5)"><tspan class="st40" x="0" y="0">1</tspan><tspan class="st28" x="7.02" y="0">994</tspan></text>
  </g>
  <g class="st14">
    <text class="st36" transform="translate(248.7 451.5)"><tspan class="st40" x="0" y="0">1</tspan><tspan class="st28" x="7.02" y="0">995</tspan></text>
  </g>
  <g class="st12">
    <text class="st36" transform="translate(409.73 451.5)"><tspan class="st40" x="0" y="0">1</tspan><tspan class="st28" x="7.02" y="0">996</tspan></text>
  </g>
  <g class="st9">
    <text class="st36" transform="translate(571.94 451.5)"><tspan class="st39" x="0" y="0">1</tspan><tspan class="st35" x="7.02" y="0">997</tspan></text>
  </g>
  <g class="st6">
    <text class="st36" transform="translate(732.21 451.5)"><tspan class="st39" x="0" y="0">1</tspan><tspan class="st35" x="7.02" y="0">998</tspan></text>
  </g>
  <g class="st10">
    <text class="st36" transform="translate(893.43 451.5)"><tspan class="st39" x="0" y="0">1</tspan><tspan class="st35" x="7.02" y="0">999</tspan></text>
  </g>
  <g class="st7">
    <line class="st2" x1="374" y1="481.25" x2="393" y2="481.25"/>
  </g>
  <g class="st16">
    <text class="st36" transform="translate(395.21 488.5)"><tspan class="st52" x="0" y="0">O</tspan><tspan class="st41" x="11" y="0">r</tspan><tspan class="st58" x="16" y="0">i</tspan><tspan class="st43" x="21" y="0">g</tspan><tspan class="st49" x="29" y="0">i</tspan><tspan class="st48" x="33.02" y="0">n</tspan><tspan class="st31" x="41.02" y="0">a</tspan><tspan class="st51" x="49.02" y="0">l</tspan><tspan class="st49" x="53.02" y="0"> </tspan><tspan class="st55" x="57.04" y="0">i</tspan><tspan class="st48" x="62.02" y="0">n</tspan><tspan class="st44" x="70.02" y="0"> </tspan><tspan class="st45" x="74.02" y="0">Ru</tspan><tspan class="st57" x="92.06" y="0">s</tspan><tspan class="st46" x="100.06" y="0">s</tspan><tspan class="st44" x="107.08" y="0">i</tspan><tspan class="st32" x="111.08" y="0">a</tspan><tspan x="119.08" y="0">n</tspan></text>
  </g>
  <g class="st17">
    <line class="st1" x1="541.5" y1="481.25" x2="561" y2="481.25"/>
  </g>
  <g class="st18">
    <text class="st36" transform="translate(562.91 488.5)"><tspan class="st38" x="0" y="0">T</tspan><tspan class="st34" x="8.02" y="0">r</tspan><tspan class="st33" x="14" y="0">a</tspan><tspan class="st47" x="22" y="0">n</tspan><tspan class="st56" x="30" y="0">s</tspan><tspan class="st50" x="38" y="0">l</tspan><tspan class="st32" x="42" y="0">a</tspan><tspan class="st42" x="50" y="0">t</tspan><tspan class="st44" x="55.02" y="0">i</tspan><tspan class="st29" x="59.02" y="0">o</tspan><tspan x="67.02" y="0">n</tspan></text>
  </g>
</svg>