<?xml version="1.0" encoding="utf-8"?>
<!-- Generator: Adobe Illustrator 28.1.0, SVG Export Plug-In . SVG Version: 6.00 Build 0)  -->
<svg version="1.1" id="Layer_1" xmlns="http://www.w3.org/2000/svg" xmlns:xlink="http://www.w3.org/1999/xlink" x="0px" y="0px"
	 viewBox="0 0 4295 1985" style="enable-background:new 0 0 4295 1985;" xml:space="preserve">
<style type="text/css">
	.st0{clip-path:url(#SVGID_00000176766041884043613550000007513985071292429195_);}
	.st1{clip-path:url(#SVGID_00000051345799127655604340000016706228874778040473_);}
	.st2{fill:#FFFFFF;}
	.st3{fill:none;stroke:#D9D9D9;stroke-width:3.4375;stroke-linejoin:round;stroke-miterlimit:10;}
	.st4{fill:#404040;}
	.st5{fill:#AFABAB;}
	.st6{font-family:'TimesNewRomanPSMT';}
	.st7{font-size:92px;}
	.st8{font-size:110px;}
</style>
<g>
	<defs>
		<rect id="SVGID_1_" width="4295" height="1985"/>
	</defs>
	<clipPath id="SVGID_00000127019615825913609500000013155921895050589371_">
		<use xlink:href="#SVGID_1_"  style="overflow:visible;"/>
	</clipPath>
	<g transform="translate(-1356 -68)" style="clip-path:url(#SVGID_00000127019615825913609500000013155921895050589371_);">
		<g>
			<defs>
				<rect id="SVGID_00000091011675541429650350000016789815744397059247_" x="1356" y="68" width="4295" height="1985"/>
			</defs>
			<clipPath id="SVGID_00000008131759981040438600000011884625012625692032_">
				<use xlink:href="#SVGID_00000091011675541429650350000016789815744397059247_"  style="overflow:visible;"/>
			</clipPath>
			<g style="clip-path:url(#SVGID_00000008131759981040438600000011884625012625692032_);">
				<rect x="1361" y="69" class="st2" width="4290" height="1980"/>
				<g>
					<path class="st3" d="M1821.5,1597.6h3706 M1821.5,1452.6h3706 M1821.5,1307.5h3706 M1821.5,1161.5h3706 M1821.5,1016.5h3706
						 M1821.5,871.5h3706 M1821.5,726.5h3706 M1821.5,580.5h3706 M1821.5,435.5h3706 M1821.5,290.5h3706"/>
				</g>
				<g>
					<path class="st4" d="M1822,1501.1l168.1-9l169-518l168,109l169,37l168-89l168-164l169,109l168,53l169-400l168,37l169,82
						l168-131l169-41l168-1l169-97l168,49l168,47l169,9l168-15l169-103l168,113L5528,409v1334h-168.8h-168h-169h-168h-169h-168h-168
						h-169h-168h-169h-168h-169h-168h-169h-168h-169h-168h-168h-169h-168h-169H1822V1501.1z"/>
				</g>
				<g>
					<path class="st5" d="M1822,290h168.1h169h168h169h168h168h169h168h169h168h169h168h169h168h169h168h168h169h168h169h168H5528
						v119l-168.8,169l-168-113l-169,103l-168,15l-169-9l-168-47l-168-49l-169,97l-168,1l-169,41l-168,131l-169-82l-168-37l-169,400
						l-168-53l-169-109l-168,164l-168,89l-169-37l-168-109l-169,518L1822,1501V290z"/>
				</g>
				<g>
					<path class="st3" d="M1821.5,1742.5h3706"/>
				</g>
				<g>
					<path class="st3" d="M1821.5,1742.5v28 M1990.6,1742.5v28 M2158.6,1742.5v28 M2327.6,1742.5v28 M2495.6,1742.5v28
						 M2664.6,1742.5v28 M2832.6,1742.5v28 M3000.6,1742.5v28 M3169.6,1742.5v28 M3337.6,1742.5v28 M3506.6,1742.5v28
						 M3674.6,1742.5v28 M3843.6,1742.5v28 M4011.6,1742.5v28 M4180.6,1742.5v28 M4348.6,1742.5v28 M4516.6,1742.5v28
						 M4685.6,1742.5v28 M4853.7,1742.5v28 M5022.7,1742.5v28 M5190.7,1742.5v28 M5359.7,1742.5v28 M5527.5,1742.5v28"/>
				</g>
				<g>
					<text transform="matrix(1 0 0 1 1621.6801 1771)" class="st6 st7">0%</text>
				</g>
				<g>
					<text transform="matrix(1 0 0 1 1575.84 1626)" class="st6 st7">10%</text>
				</g>
				<g>
					<text transform="matrix(1 0 0 1 1575.84 1481)" class="st6 st7">20%</text>
				</g>
				<g>
					<text transform="matrix(1 0 0 1 1575.84 1336)" class="st6 st7">30%</text>
				</g>
				<g>
					<text transform="matrix(1 0 0 1 1575.84 1190)" class="st6 st7">40%</text>
				</g>
				<g>
					<text transform="matrix(1 0 0 1 1575.84 1045)" class="st6 st7">50%</text>
				</g>
				<g>
					<text transform="matrix(1 0 0 1 1575.84 900)" class="st6 st7">60%</text>
				</g>
				<g>
					<text transform="matrix(1 0 0 1 1575.84 755)" class="st6 st7">70%</text>
				</g>
				<g>
					<text transform="matrix(1 0 0 1 1575.84 609)" class="st6 st7">80%</text>
				</g>
				<g>
					<text transform="matrix(1 0 0 1 1575.84 464)" class="st6 st7">90%</text>
				</g>
				<g>
					<text transform="matrix(1 0 0 1 1530.01 319)" class="st6 st7">100%</text>
				</g>
				<g>
					<text transform="matrix(1 0 0 1 1898.63 1879)" class="st6 st7">1994</text>
				</g>
				<g>
					<text transform="matrix(1 0 0 1 2572.45 1879)" class="st6 st7">1995</text>
				</g>
				<g>
					<text transform="matrix(1 0 0 1 3246.26 1879)" class="st6 st7">1996</text>
				</g>
				<g>
					<text transform="matrix(1 0 0 1 3920.0801 1879)" class="st6 st7">1997</text>
				</g>
				<g>
					<text transform="matrix(1 0 0 1 4593.8901 1879)" class="st6 st7">1998</text>
				</g>
				<g>
					<text transform="matrix(1 0 0 1 5267.71 1879)" class="st6 st7">1999</text>
				</g>
				<g>
					<text transform="matrix(1 0 0 1 3409.3899 240)" class="st6 st8">Detektiv</text>
				</g>
				<g>
					<rect x="2935" y="1944" class="st4" width="46" height="45"/>
				</g>
				<g>
					<text transform="matrix(1 0 0 1 3001.8301 1995)" class="st6 st7">Not Translated</text>
				</g>
				<g>
					<rect x="3616" y="1944" class="st5" width="46" height="45"/>
				</g>
				<g>
					<text transform="matrix(1 0 0 1 3682.95 1995)" class="st6 st7">Translated</text>
				</g>
			</g>
		</g>
	</g>
</g>
</svg>
