<?xml version="1.0" encoding="UTF-8"?>
<svg id="Layer_1" xmlns="http://www.w3.org/2000/svg" xmlns:xlink="http://www.w3.org/1999/xlink" version="1.1" viewBox="0 0 576 432">
  <!-- Generator: Adobe Illustrator 29.5.0, SVG Export Plug-In . SVG Version: 2.1.0 Build 137)  -->
  <defs>
    <style>
      .st0, .st1 {
        fill: none;
      }

      .st2 {
        fill: #f8d688;
      }

      .st3 {
        fill: #7eced5;
      }

      .st4 {
        clip-path: url(#clippath-17);
      }

      .st5 {
        clip-path: url(#clippath-19);
      }

      .st6 {
        clip-path: url(#clippath-11);
      }

      .st7 {
        clip-path: url(#clippath-16);
      }

      .st8 {
        clip-path: url(#clippath-18);
      }

      .st9 {
        clip-path: url(#clippath-10);
      }

      .st10 {
        clip-path: url(#clippath-15);
      }

      .st11 {
        clip-path: url(#clippath-13);
      }

      .st12 {
        clip-path: url(#clippath-14);
      }

      .st13 {
        clip-path: url(#clippath-12);
      }

      .st14 {
        clip-path: url(#clippath-20);
      }

      .st15 {
        clip-path: url(#clippath-1);
      }

      .st16 {
        clip-path: url(#clippath-3);
      }

      .st17 {
        clip-path: url(#clippath-4);
      }

      .st18 {
        clip-path: url(#clippath-2);
      }

      .st19 {
        clip-path: url(#clippath-7);
      }

      .st20 {
        clip-path: url(#clippath-6);
      }

      .st21 {
        clip-path: url(#clippath-9);
      }

      .st22 {
        clip-path: url(#clippath-8);
      }

      .st23 {
        clip-path: url(#clippath-5);
      }

      .st24 {
        letter-spacing: 0em;
      }

      .st25 {
        fill: #fff;
      }

      .st26 {
        letter-spacing: 0em;
      }

      .st27 {
        letter-spacing: 0em;
      }

      .st28 {
        letter-spacing: 0em;
      }

      .st29 {
        letter-spacing: 0em;
      }

      .st30 {
        letter-spacing: 0em;
      }

      .st31 {
        font-size: 24px;
      }

      .st31, .st32 {
        font-family: Oswald-Light, Oswald;
        font-weight: 300;
      }

      .st33 {
        letter-spacing: 0em;
      }

      .st1 {
        stroke: #d9d9d9;
        stroke-linejoin: round;
        stroke-width: .75px;
      }

      .st32 {
        font-size: 20px;
      }

      .st34 {
        letter-spacing: -.02em;
      }

      .st35 {
        letter-spacing: -.01em;
      }

      .st36 {
        letter-spacing: -.02em;
      }

      .st37 {
        letter-spacing: -.02em;
      }

      .st38 {
        letter-spacing: -.05em;
      }

      .st39 {
        letter-spacing: -.03em;
      }

      .st40 {
        letter-spacing: -.03em;
      }

      .st41 {
        letter-spacing: 0em;
      }

      .st42 {
        letter-spacing: -.01em;
      }

      .st43 {
        letter-spacing: -.01em;
      }

      .st44 {
        letter-spacing: 0em;
      }

      .st45 {
        letter-spacing: 0em;
      }

      .st46 {
        letter-spacing: 0em;
      }

      .st47 {
        letter-spacing: 0em;
      }

      .st48 {
        letter-spacing: 0em;
      }

      .st49 {
        letter-spacing: .03em;
      }

      .st50 {
        letter-spacing: .01em;
      }

      .st51 {
        clip-path: url(#clippath);
      }

      .st52 {
        letter-spacing: .04em;
      }

      .st53 {
        letter-spacing: .04em;
      }

      .st54 {
        letter-spacing: .04em;
      }

      .st55 {
        letter-spacing: .05em;
      }

      .st56 {
        letter-spacing: .03em;
      }

      .st57 {
        letter-spacing: 0em;
      }

      .st58 {
        letter-spacing: .01em;
      }
    </style>
    <clipPath id="clippath">
      <rect class="st0" x=".26" y=".15" width="576" height="432"/>
    </clipPath>
    <clipPath id="clippath-1">
      <rect class="st0" x="71.26" y="64.15" width="476" height="275"/>
    </clipPath>
    <clipPath id="clippath-2">
      <rect class="st0" x="71.26" y="64.15" width="476" height="275"/>
    </clipPath>
    <clipPath id="clippath-3">
      <rect class="st0" x=".26" y=".15" width="576" height="432"/>
    </clipPath>
    <clipPath id="clippath-4">
      <rect class="st0" x=".26" y=".15" width="576" height="432"/>
    </clipPath>
    <clipPath id="clippath-5">
      <rect class="st0" x=".26" y=".15" width="576" height="432"/>
    </clipPath>
    <clipPath id="clippath-6">
      <rect class="st0" x=".26" y=".15" width="576" height="432"/>
    </clipPath>
    <clipPath id="clippath-7">
      <rect class="st0" x=".26" y=".15" width="576" height="432"/>
    </clipPath>
    <clipPath id="clippath-8">
      <rect class="st0" x=".26" y=".15" width="576" height="432"/>
    </clipPath>
    <clipPath id="clippath-9">
      <rect class="st0" x=".26" y=".15" width="576" height="432"/>
    </clipPath>
    <clipPath id="clippath-10">
      <rect class="st0" x=".26" y=".15" width="576" height="432"/>
    </clipPath>
    <clipPath id="clippath-11">
      <rect class="st0" x=".26" y=".15" width="576" height="432"/>
    </clipPath>
    <clipPath id="clippath-12">
      <rect class="st0" x=".26" y=".15" width="576" height="432"/>
    </clipPath>
    <clipPath id="clippath-13">
      <rect class="st0" x=".26" y=".15" width="576" height="432"/>
    </clipPath>
    <clipPath id="clippath-14">
      <rect class="st0" x=".26" y=".15" width="576" height="432"/>
    </clipPath>
    <clipPath id="clippath-15">
      <rect class="st0" x=".26" y=".15" width="576" height="432"/>
    </clipPath>
    <clipPath id="clippath-16">
      <rect class="st0" x=".26" y=".15" width="576" height="432"/>
    </clipPath>
    <clipPath id="clippath-17">
      <rect class="st0" x=".26" y=".15" width="576" height="432"/>
    </clipPath>
    <clipPath id="clippath-18">
      <rect class="st0" x=".26" y=".15" width="576" height="432"/>
    </clipPath>
    <clipPath id="clippath-19">
      <rect class="st0" x=".26" y=".15" width="576" height="432"/>
    </clipPath>
    <clipPath id="clippath-20">
      <rect class="st0" x=".26" y=".15" width="576" height="432"/>
    </clipPath>
  </defs>
  <rect class="st25" x=".26" y=".15" width="576" height="432"/>
  <g class="st51">
    <path class="st1" d="M72.26,64.65h474.5M72.26,119.15h474.5M72.26,174.15h474.5M72.26,229.15h474.5M72.26,284.15h474.5"/>
  </g>
  <g class="st15">
    <polygon class="st3" points="72.26 338.65 93.76 293.15 115.26 208.65 136.76 250.15 158.26 236.15 179.76 108.65 201.76 131.65 223.26 156.15 244.76 108.65 266.26 71.15 287.76 96.65 309.26 71.15 330.76 64.65 352.26 64.65 374.26 72.65 395.76 97.65 417.26 64.65 438.76 87.15 460.26 64.65 481.76 79.15 503.26 100.65 524.76 107.15 546.76 98.65 546.76 338.65 524.76 338.65 503.26 338.65 481.76 338.65 460.26 338.65 438.76 338.65 417.26 338.65 395.76 338.65 374.26 338.65 352.26 338.65 330.76 338.65 309.26 338.65 287.76 338.65 266.26 338.65 244.76 338.65 223.26 338.65 201.76 338.65 179.76 338.65 158.26 338.65 136.76 338.65 115.26 338.65 93.76 338.65 72.26 338.65"/>
  </g>
  <g class="st18">
    <polygon class="st2" points="72.26 64.65 93.76 64.65 115.26 64.65 136.76 64.65 158.26 64.65 179.76 64.65 201.76 64.65 223.26 64.65 244.76 64.65 266.26 64.65 287.76 64.65 309.26 64.65 330.76 64.65 352.26 64.65 374.26 64.65 395.76 64.65 417.26 64.65 438.76 64.65 460.26 64.65 481.76 64.65 503.26 64.65 524.76 64.65 546.76 64.65 546.76 98.65 524.76 107.15 503.26 100.65 481.76 79.15 460.26 64.65 438.76 87.15 417.26 64.65 395.76 97.65 374.26 72.65 352.26 64.65 330.76 64.65 309.26 71.15 287.76 96.65 266.26 71.15 244.76 108.65 223.26 156.15 201.76 131.65 179.76 108.65 158.26 236.15 136.76 250.15 115.26 208.65 93.76 293.15 72.26 338.65 72.26 64.65"/>
  </g>
  <g class="st16">
    <line class="st1" x1="72.26" y1="338.65" x2="546.76" y2="338.65"/>
  </g>
  <g class="st17">
    <text class="st32" transform="translate(24.44 346.15)"><tspan class="st34" x="0" y="0">0</tspan><tspan x="10" y="0">%</tspan></text>
  </g>
  <g class="st23">
    <text class="st32" transform="translate(14.74 291.15)"><tspan class="st50" x="0" y="0">2</tspan><tspan class="st34" x="10" y="0">0</tspan><tspan class="st33" x="20" y="0">%</tspan></text>
  </g>
  <g class="st20">
    <text class="st32" transform="translate(14.66 236.15)"><tspan class="st58" x="0" y="0">4</tspan><tspan class="st34" x="10" y="0">0</tspan><tspan x="20" y="0">%</tspan></text>
  </g>
  <g class="st19">
    <text class="st32" transform="translate(14.47 181.65)"><tspan x="0" y="0">6</tspan><tspan class="st37" x="9.98" y="0">0</tspan><tspan class="st24" x="20" y="0">%</tspan></text>
  </g>
  <g class="st22">
    <text class="st32" transform="translate(14.47 126.65)"><tspan x="0" y="0">8</tspan><tspan class="st37" x="9.98" y="0">0</tspan><tspan class="st24" x="20" y="0">%</tspan></text>
  </g>
  <g class="st21">
    <text class="st32" transform="translate(6.76 71.65)"><tspan class="st37" x="0" y="0">1</tspan><tspan class="st56" x="7.02" y="0">0</tspan><tspan class="st37" x="18" y="0">0</tspan><tspan class="st33" x="28.02" y="0">%</tspan></text>
  </g>
  <g class="st9">
    <text class="st32" transform="translate(75.18 378.65)"><tspan class="st37" x="0" y="0">1</tspan><tspan class="st24" x="7.02" y="0">994</tspan></text>
  </g>
  <g class="st6">
    <text class="st32" transform="translate(161.55 378.65)"><tspan class="st37" x="0" y="0">1</tspan><tspan class="st24" x="7.02" y="0">995</tspan></text>
  </g>
  <g class="st13">
    <text class="st32" transform="translate(247.58 378.65)"><tspan class="st37" x="0" y="0">1</tspan><tspan class="st24" x="7.02" y="0">996</tspan></text>
  </g>
  <g class="st11">
    <text class="st32" transform="translate(334.8 378.65)"><tspan class="st36" x="0" y="0">1</tspan><tspan class="st30" x="7.02" y="0">997</tspan></text>
  </g>
  <g class="st12">
    <text class="st32" transform="translate(420.07 378.65)"><tspan class="st36" x="0" y="0">1</tspan><tspan class="st30" x="7.02" y="0">998</tspan></text>
  </g>
  <g class="st10">
    <text class="st32" transform="translate(506.3 378.65)"><tspan class="st36" x="0" y="0">1</tspan><tspan class="st30" x="7.02" y="0">999</tspan></text>
  </g>
  <g class="st7">
    <text class="st31" transform="translate(227.25 36.65)"><tspan x="0" y="0">Boevik (action)</tspan></text>
  </g>
  <g class="st4">
    <rect class="st3" x="161.26" y="401.65" width="13.5" height="13.5"/>
  </g>
  <g class="st8">
    <text class="st32" transform="translate(181.08 415.65)"><tspan class="st49" x="0" y="0">O</tspan><tspan class="st38" x="11" y="0">r</tspan><tspan class="st55" x="16" y="0">i</tspan><tspan class="st40" x="21" y="0">g</tspan><tspan class="st46" x="29" y="0">i</tspan><tspan class="st45" x="33.02" y="0">n</tspan><tspan class="st26" x="41.02" y="0">a</tspan><tspan class="st48" x="49.02" y="0">l</tspan><tspan class="st46" x="53.02" y="0"> </tspan><tspan class="st52" x="57.04" y="0">i</tspan><tspan class="st45" x="62.02" y="0">n</tspan><tspan class="st41" x="70.02" y="0"> </tspan><tspan class="st42" x="74.02" y="0">Ru</tspan><tspan class="st54" x="92.06" y="0">s</tspan><tspan class="st43" x="100.06" y="0">s</tspan><tspan class="st41" x="107.08" y="0">i</tspan><tspan class="st27" x="111.08" y="0">a</tspan><tspan x="119.08" y="0">n</tspan></text>
  </g>
  <g class="st5">
    <rect class="st2" x="331.76" y="401.65" width="13.5" height="13.5"/>
  </g>
  <g class="st14">
    <text class="st32" transform="translate(351.54 415.65)"><tspan class="st35" x="0" y="0">T</tspan><tspan class="st29" x="8.02" y="0">r</tspan><tspan class="st28" x="14" y="0">a</tspan><tspan class="st44" x="22" y="0">n</tspan><tspan class="st53" x="30" y="0">s</tspan><tspan class="st47" x="38" y="0">l</tspan><tspan class="st27" x="42" y="0">a</tspan><tspan class="st39" x="50" y="0">t</tspan><tspan class="st57" x="55.02" y="0">e</tspan><tspan x="63.02" y="0">d</tspan></text>
  </g>
</svg>