<?xml version="1.0" encoding="UTF-8"?>
<svg id="Layer_1" xmlns="http://www.w3.org/2000/svg" xmlns:xlink="http://www.w3.org/1999/xlink" version="1.1" viewBox="0 0 576 432">
  <!-- Generator: Adobe Illustrator 29.5.0, SVG Export Plug-In . SVG Version: 2.1.0 Build 137)  -->
  <defs>
    <style>
      .st0, .st1 {
        fill: none;
      }

      .st2 {
        fill: #f8d688;
      }

      .st3 {
        fill: #7eced5;
      }

      .st4 {
        clip-path: url(#clippath-17);
      }

      .st5 {
        clip-path: url(#clippath-19);
      }

      .st6 {
        clip-path: url(#clippath-11);
      }

      .st7 {
        clip-path: url(#clippath-16);
      }

      .st8 {
        clip-path: url(#clippath-18);
      }

      .st9 {
        clip-path: url(#clippath-10);
      }

      .st10 {
        clip-path: url(#clippath-15);
      }

      .st11 {
        clip-path: url(#clippath-13);
      }

      .st12 {
        clip-path: url(#clippath-14);
      }

      .st13 {
        clip-path: url(#clippath-12);
      }

      .st14 {
        clip-path: url(#clippath-20);
      }

      .st15 {
        clip-path: url(#clippath-1);
      }

      .st16 {
        clip-path: url(#clippath-3);
      }

      .st17 {
        clip-path: url(#clippath-4);
      }

      .st18 {
        clip-path: url(#clippath-2);
      }

      .st19 {
        clip-path: url(#clippath-7);
      }

      .st20 {
        clip-path: url(#clippath-6);
      }

      .st21 {
        clip-path: url(#clippath-9);
      }

      .st22 {
        clip-path: url(#clippath-8);
      }

      .st23 {
        clip-path: url(#clippath-5);
      }

      .st24 {
        letter-spacing: 0em;
      }

      .st25 {
        fill: #fff;
      }

      .st26 {
        letter-spacing: 0em;
      }

      .st27 {
        letter-spacing: 0em;
      }

      .st28 {
        letter-spacing: 0em;
      }

      .st29 {
        letter-spacing: 0em;
      }

      .st30 {
        letter-spacing: 0em;
      }

      .st31 {
        font-size: 24px;
      }

      .st31, .st32 {
        font-family: Oswald-Light, Oswald;
        font-weight: 300;
      }

      .st33 {
        letter-spacing: 0em;
      }

      .st1 {
        stroke: #d9d9d9;
        stroke-linejoin: round;
        stroke-width: .75px;
      }

      .st32 {
        font-size: 20px;
      }

      .st34 {
        letter-spacing: -.02em;
      }

      .st35 {
        letter-spacing: -.01em;
      }

      .st36 {
        letter-spacing: -.02em;
      }

      .st37 {
        letter-spacing: -.02em;
      }

      .st38 {
        letter-spacing: -.05em;
      }

      .st39 {
        letter-spacing: -.03em;
      }

      .st40 {
        letter-spacing: -.03em;
      }

      .st41 {
        letter-spacing: 0em;
      }

      .st42 {
        letter-spacing: -.01em;
      }

      .st43 {
        letter-spacing: -.01em;
      }

      .st44 {
        letter-spacing: 0em;
      }

      .st45 {
        letter-spacing: 0em;
      }

      .st46 {
        letter-spacing: 0em;
      }

      .st47 {
        letter-spacing: 0em;
      }

      .st48 {
        letter-spacing: 0em;
      }

      .st49 {
        letter-spacing: .03em;
      }

      .st50 {
        letter-spacing: .01em;
      }

      .st51 {
        clip-path: url(#clippath);
      }

      .st52 {
        letter-spacing: .04em;
      }

      .st53 {
        letter-spacing: .04em;
      }

      .st54 {
        letter-spacing: .04em;
      }

      .st55 {
        letter-spacing: .05em;
      }

      .st56 {
        letter-spacing: .03em;
      }

      .st57 {
        letter-spacing: 0em;
      }

      .st58 {
        letter-spacing: .01em;
      }
    </style>
    <clipPath id="clippath">
      <rect class="st0" y="0" width="576" height="432"/>
    </clipPath>
    <clipPath id="clippath-1">
      <rect class="st0" x="71" y="64" width="476" height="275"/>
    </clipPath>
    <clipPath id="clippath-2">
      <rect class="st0" x="71" y="64" width="476" height="275"/>
    </clipPath>
    <clipPath id="clippath-3">
      <rect class="st0" y="0" width="576" height="432"/>
    </clipPath>
    <clipPath id="clippath-4">
      <rect class="st0" y="0" width="576" height="432"/>
    </clipPath>
    <clipPath id="clippath-5">
      <rect class="st0" y="0" width="576" height="432"/>
    </clipPath>
    <clipPath id="clippath-6">
      <rect class="st0" y="0" width="576" height="432"/>
    </clipPath>
    <clipPath id="clippath-7">
      <rect class="st0" y="0" width="576" height="432"/>
    </clipPath>
    <clipPath id="clippath-8">
      <rect class="st0" y="0" width="576" height="432"/>
    </clipPath>
    <clipPath id="clippath-9">
      <rect class="st0" y="0" width="576" height="432"/>
    </clipPath>
    <clipPath id="clippath-10">
      <rect class="st0" y="0" width="576" height="432"/>
    </clipPath>
    <clipPath id="clippath-11">
      <rect class="st0" y="0" width="576" height="432"/>
    </clipPath>
    <clipPath id="clippath-12">
      <rect class="st0" y="0" width="576" height="432"/>
    </clipPath>
    <clipPath id="clippath-13">
      <rect class="st0" y="0" width="576" height="432"/>
    </clipPath>
    <clipPath id="clippath-14">
      <rect class="st0" y="0" width="576" height="432"/>
    </clipPath>
    <clipPath id="clippath-15">
      <rect class="st0" y="0" width="576" height="432"/>
    </clipPath>
    <clipPath id="clippath-16">
      <rect class="st0" y="0" width="576" height="432"/>
    </clipPath>
    <clipPath id="clippath-17">
      <rect class="st0" y="0" width="576" height="432"/>
    </clipPath>
    <clipPath id="clippath-18">
      <rect class="st0" y="0" width="576" height="432"/>
    </clipPath>
    <clipPath id="clippath-19">
      <rect class="st0" y="0" width="576" height="432"/>
    </clipPath>
    <clipPath id="clippath-20">
      <rect class="st0" y="0" width="576" height="432"/>
    </clipPath>
  </defs>
  <rect class="st25" y="0" width="576" height="432"/>
  <g class="st51">
    <path class="st1" d="M72,64.5h474.5M72,119h474.5M72,174h474.5M72,229h474.5M72,284h474.5"/>
  </g>
  <g class="st15">
    <polygon class="st3" points="72 293 93.5 291.5 115 193.5 136.5 214 158 221 179.5 204 201.5 173.5 223 194 244.5 204 266 128.5 287.5 135.5 309 150.5 330.5 126 352 118.5 374 118 395.5 100 417 109 438.5 118 460 119.5 481.5 117 503 97.5 524.5 118.5 546.5 86.5 546.5 338.5 524.5 338.5 503 338.5 481.5 338.5 460 338.5 438.5 338.5 417 338.5 395.5 338.5 374 338.5 352 338.5 330.5 338.5 309 338.5 287.5 338.5 266 338.5 244.5 338.5 223 338.5 201.5 338.5 179.5 338.5 158 338.5 136.5 338.5 115 338.5 93.5 338.5 72 338.5 72 293"/>
  </g>
  <g class="st18">
    <polygon class="st2" points="72 64.5 93.5 64.5 115 64.5 136.5 64.5 158 64.5 179.5 64.5 201.5 64.5 223 64.5 244.5 64.5 266 64.5 287.5 64.5 309 64.5 330.5 64.5 352 64.5 374 64.5 395.5 64.5 417 64.5 438.5 64.5 460 64.5 481.5 64.5 503 64.5 524.5 64.5 546.5 64.5 546.5 86.5 524.5 118.5 503 97.5 481.5 117 460 119.5 438.5 118 417 109 395.5 100 374 118 352 118.5 330.5 126 309 150.5 287.5 135.5 266 128.5 244.5 204 223 194 201.5 173.5 179.5 204 158 221 136.5 214 115 193.5 93.5 291.5 72 293 72 64.5"/>
  </g>
  <g class="st16">
    <line class="st1" x1="72" y1="338.5" x2="546.5" y2="338.5"/>
  </g>
  <g class="st17">
    <text class="st32" transform="translate(24.18 346)"><tspan class="st34" x="0" y="0">0</tspan><tspan x="10" y="0">%</tspan></text>
  </g>
  <g class="st23">
    <text class="st32" transform="translate(14.48 291)"><tspan class="st50" x="0" y="0">2</tspan><tspan class="st34" x="10" y="0">0</tspan><tspan class="st33" x="20" y="0">%</tspan></text>
  </g>
  <g class="st20">
    <text class="st32" transform="translate(14.4 236)"><tspan class="st58" x="0" y="0">4</tspan><tspan class="st34" x="10" y="0">0</tspan><tspan x="20" y="0">%</tspan></text>
  </g>
  <g class="st19">
    <text class="st32" transform="translate(14.2 181.5)"><tspan x="0" y="0">6</tspan><tspan class="st37" x="9.98" y="0">0</tspan><tspan class="st24" x="20" y="0">%</tspan></text>
  </g>
  <g class="st22">
    <text class="st32" transform="translate(14.2 126.5)"><tspan x="0" y="0">8</tspan><tspan class="st37" x="9.98" y="0">0</tspan><tspan class="st24" x="20" y="0">%</tspan></text>
  </g>
  <g class="st21">
    <text class="st32" transform="translate(6.5 71.5)"><tspan class="st37" x="0" y="0">1</tspan><tspan class="st56" x="7.02" y="0">0</tspan><tspan class="st37" x="18" y="0">0</tspan><tspan class="st33" x="28.02" y="0">%</tspan></text>
  </g>
  <g class="st9">
    <text class="st32" transform="translate(74.92 378.5)"><tspan class="st37" x="0" y="0">1</tspan><tspan class="st24" x="7.02" y="0">994</tspan></text>
  </g>
  <g class="st6">
    <text class="st32" transform="translate(161.28 378.5)"><tspan class="st37" x="0" y="0">1</tspan><tspan class="st24" x="7.02" y="0">995</tspan></text>
  </g>
  <g class="st13">
    <text class="st32" transform="translate(247.31 378.5)"><tspan class="st37" x="0" y="0">1</tspan><tspan class="st24" x="7.02" y="0">996</tspan></text>
  </g>
  <g class="st11">
    <text class="st32" transform="translate(334.53 378.5)"><tspan class="st36" x="0" y="0">1</tspan><tspan class="st30" x="7.02" y="0">997</tspan></text>
  </g>
  <g class="st12">
    <text class="st32" transform="translate(419.81 378.5)"><tspan class="st36" x="0" y="0">1</tspan><tspan class="st30" x="7.02" y="0">998</tspan></text>
  </g>
  <g class="st10">
    <text class="st32" transform="translate(506.04 378.5)"><tspan class="st36" x="0" y="0">1</tspan><tspan class="st30" x="7.02" y="0">999</tspan></text>
  </g>
  <g class="st7">
    <text class="st31" transform="translate(253.89 36.5)"><tspan x="0" y="0">Detektiv</tspan></text>
  </g>
  <g class="st4">
    <rect class="st3" x="161" y="401.5" width="13.5" height="13.5"/>
  </g>
  <g class="st8">
    <text class="st32" transform="translate(180.82 415.5)"><tspan class="st49" x="0" y="0">O</tspan><tspan class="st38" x="11" y="0">r</tspan><tspan class="st55" x="16" y="0">i</tspan><tspan class="st40" x="21" y="0">g</tspan><tspan class="st46" x="29" y="0">i</tspan><tspan class="st45" x="33.02" y="0">n</tspan><tspan class="st26" x="41.02" y="0">a</tspan><tspan class="st48" x="49.02" y="0">l</tspan><tspan class="st46" x="53.02" y="0"> </tspan><tspan class="st52" x="57.04" y="0">i</tspan><tspan class="st45" x="62.02" y="0">n</tspan><tspan class="st41" x="70.02" y="0"> </tspan><tspan class="st42" x="74.02" y="0">Ru</tspan><tspan class="st54" x="92.06" y="0">s</tspan><tspan class="st43" x="100.06" y="0">s</tspan><tspan class="st41" x="107.08" y="0">i</tspan><tspan class="st27" x="111.08" y="0">a</tspan><tspan x="119.08" y="0">n</tspan></text>
  </g>
  <g class="st5">
    <rect class="st2" x="331.5" y="401.5" width="13.5" height="13.5"/>
  </g>
  <g class="st14">
    <text class="st32" transform="translate(351.27 415.5)"><tspan class="st35" x="0" y="0">T</tspan><tspan class="st29" x="8.02" y="0">r</tspan><tspan class="st28" x="14" y="0">a</tspan><tspan class="st44" x="22" y="0">n</tspan><tspan class="st53" x="30" y="0">s</tspan><tspan class="st47" x="38" y="0">l</tspan><tspan class="st27" x="42" y="0">a</tspan><tspan class="st39" x="50" y="0">t</tspan><tspan class="st57" x="55.02" y="0">e</tspan><tspan x="63.02" y="0">d</tspan></text>
  </g>
</svg>