<?xml version="1.0" encoding="UTF-8"?>
<svg id="Layer_1" xmlns="http://www.w3.org/2000/svg" xmlns:xlink="http://www.w3.org/1999/xlink" version="1.1" viewBox="0 0 1008 504">
  <!-- Generator: Adobe Illustrator 29.5.0, SVG Export Plug-In . SVG Version: 2.1.0 Build 137)  -->
  <defs>
    <style>
      .st0, .st1 {
        fill: none;
      }

      .st2 {
        clip-path: url(#clippath-17);
      }

      .st3 {
        clip-path: url(#clippath-11);
      }

      .st4 {
        clip-path: url(#clippath-16);
      }

      .st5 {
        clip-path: url(#clippath-18);
      }

      .st6 {
        clip-path: url(#clippath-10);
      }

      .st7 {
        clip-path: url(#clippath-15);
      }

      .st8 {
        clip-path: url(#clippath-13);
      }

      .st9 {
        clip-path: url(#clippath-14);
      }

      .st10 {
        clip-path: url(#clippath-12);
      }

      .st11 {
        fill: #f4b183;
      }

      .st12 {
        clip-path: url(#clippath-1);
      }

      .st13 {
        clip-path: url(#clippath-3);
      }

      .st14 {
        clip-path: url(#clippath-4);
      }

      .st15 {
        clip-path: url(#clippath-2);
      }

      .st16 {
        clip-path: url(#clippath-7);
      }

      .st17 {
        clip-path: url(#clippath-6);
      }

      .st18 {
        clip-path: url(#clippath-9);
      }

      .st19 {
        clip-path: url(#clippath-8);
      }

      .st20 {
        clip-path: url(#clippath-5);
      }

      .st21 {
        letter-spacing: 0em;
      }

      .st22 {
        fill: #fff;
      }

      .st23 {
        letter-spacing: 0em;
      }

      .st24 {
        letter-spacing: 0em;
      }

      .st1 {
        stroke: #d9d9d9;
        stroke-linejoin: round;
        stroke-width: .75px;
      }

      .st25 {
        font-family: Oswald-Light, Oswald;
        font-size: 20px;
        font-weight: 300;
      }

      .st26 {
        letter-spacing: -.02em;
      }

      .st27 {
        letter-spacing: -.02em;
      }

      .st28 {
        letter-spacing: .02em;
      }

      .st29 {
        letter-spacing: .01em;
      }

      .st30 {
        letter-spacing: .02em;
      }

      .st31 {
        clip-path: url(#clippath);
      }

      .st32 {
        letter-spacing: .01em;
      }
    </style>
    <clipPath id="clippath">
      <rect class="st0" y=".5" width="1008" height="504"/>
    </clipPath>
    <clipPath id="clippath-1">
      <rect class="st0" x="49" y="19.5" width="948" height="433"/>
    </clipPath>
    <clipPath id="clippath-2">
      <rect class="st0" y=".5" width="1008" height="504"/>
    </clipPath>
    <clipPath id="clippath-3">
      <rect class="st0" y=".5" width="1008" height="504"/>
    </clipPath>
    <clipPath id="clippath-4">
      <rect class="st0" y=".5" width="1008" height="504"/>
    </clipPath>
    <clipPath id="clippath-5">
      <rect class="st0" y=".5" width="1008" height="504"/>
    </clipPath>
    <clipPath id="clippath-6">
      <rect class="st0" y=".5" width="1008" height="504"/>
    </clipPath>
    <clipPath id="clippath-7">
      <rect class="st0" y=".5" width="1008" height="504"/>
    </clipPath>
    <clipPath id="clippath-8">
      <rect class="st0" y=".5" width="1008" height="504"/>
    </clipPath>
    <clipPath id="clippath-9">
      <rect class="st0" y=".5" width="1008" height="504"/>
    </clipPath>
    <clipPath id="clippath-10">
      <rect class="st0" y=".5" width="1008" height="504"/>
    </clipPath>
    <clipPath id="clippath-11">
      <rect class="st0" y=".5" width="1008" height="504"/>
    </clipPath>
    <clipPath id="clippath-12">
      <rect class="st0" y=".5" width="1008" height="504"/>
    </clipPath>
    <clipPath id="clippath-13">
      <rect class="st0" y=".5" width="1008" height="504"/>
    </clipPath>
    <clipPath id="clippath-14">
      <rect class="st0" y=".5" width="1008" height="504"/>
    </clipPath>
    <clipPath id="clippath-15">
      <rect class="st0" y=".5" width="1008" height="504"/>
    </clipPath>
    <clipPath id="clippath-16">
      <rect class="st0" y=".5" width="1008" height="504"/>
    </clipPath>
    <clipPath id="clippath-17">
      <rect class="st0" y=".5" width="1008" height="504"/>
    </clipPath>
    <clipPath id="clippath-18">
      <rect class="st0" y=".5" width="1008" height="504"/>
    </clipPath>
  </defs>
  <rect class="st22" y=".5" width="1008" height="504"/>
  <g class="st31">
    <path class="st1" d="M49.5,20.5h947.5M49.5,68.5h947.5M49.5,116.5h947.5M49.5,164.5h947.5M49.5,212.5h947.5M49.5,260.5h947.5M49.5,308.5h947.5M49.5,356.5h947.5M49.5,404.5h947.5"/>
  </g>
  <g class="st12">
    <path class="st11" d="M960.5,337h32v115.5h-32v-115.5ZM919,347h32v105.5h-32v-105.5ZM878,327.5h32v125h-32v-125ZM837,337h32v115.5h-32v-115.5ZM795.5,347h32v105.5h-32v-105.5ZM754.5,366h32v86.5h-32v-86.5ZM713,356.5h32v96h-32v-96ZM672,337h32v115.5h-32v-115.5ZM631,318h32v134.5h-32v-134.5ZM589.5,279.5h32v173h-32v-173ZM548.5,260.5h32v192h-32v-192ZM507,299h32v153.5h-32v-153.5ZM466,337h32v115.5h-32v-115.5ZM425,270h32v182.5h-32v-182.5ZM383.5,270h32v182.5h-32v-182.5ZM342.5,222h32v230.5h-32v-230.5ZM301,145h32v307.5h-32V145ZM260,183.5h32v269h-32V183.5ZM219,58.5h32v394h-32V58.5ZM177.5,174h32v278.5h-32V174ZM136.5,145h32v307.5h-32V145ZM95,203h32v249.5h-32v-249.5ZM54,279.5h32v173h-32v-173Z"/>
  </g>
  <g class="st15">
    <line class="st1" x1="49.5" y1="452.5" x2="997" y2="452.5"/>
  </g>
  <g class="st13">
    <text class="st25" transform="translate(16.28 459.5)"><tspan x="0" y="0">0</tspan></text>
  </g>
  <g class="st14">
    <text class="st25" transform="translate(17.08 411.5)"><tspan x="0" y="0">5</tspan></text>
  </g>
  <g class="st20">
    <text class="st25" transform="translate(8.94 363.5)"><tspan class="st27" x="0" y="0">1</tspan><tspan x="7.02" y="0">0</tspan></text>
  </g>
  <g class="st17">
    <text class="st25" transform="translate(9.74 315.5)"><tspan class="st27" x="0" y="0">1</tspan><tspan class="st21" x="7.02" y="0">5</tspan></text>
  </g>
  <g class="st16">
    <text class="st25" transform="translate(6.58 267.5)"><tspan class="st29" x="0" y="0">2</tspan><tspan class="st24" x="10" y="0">0</tspan></text>
  </g>
  <g class="st19">
    <text class="st25" transform="translate(7.38 219.5)"><tspan class="st29" x="0" y="0">2</tspan><tspan class="st24" x="10" y="0">5</tspan></text>
  </g>
  <g class="st18">
    <text class="st25" transform="translate(6.64 171.5)"><tspan class="st28" x="0" y="0">3</tspan><tspan x="10" y="0">0</tspan></text>
  </g>
  <g class="st6">
    <text class="st25" transform="translate(7.44 123.5)"><tspan class="st30" x="0" y="0">3</tspan><tspan class="st21" x="10" y="0">5</tspan></text>
  </g>
  <g class="st3">
    <text class="st25" transform="translate(6.5 75.5)"><tspan class="st32" x="0" y="0">4</tspan><tspan x="10" y="0">0</tspan></text>
  </g>
  <g class="st10">
    <text class="st25" transform="translate(7.3 27.5)"><tspan class="st32" x="0" y="0">4</tspan><tspan x="10" y="0">5</tspan></text>
  </g>
  <g class="st8">
    <text class="st25" transform="translate(92.61 492.5)"><tspan class="st27" x="0" y="0">1</tspan><tspan class="st21" x="7.02" y="0">994</tspan></text>
  </g>
  <g class="st9">
    <text class="st25" transform="translate(257.54 492.5)"><tspan class="st27" x="0" y="0">1</tspan><tspan class="st21" x="7.02" y="0">995</tspan></text>
  </g>
  <g class="st7">
    <text class="st25" transform="translate(422.12 492.5)"><tspan class="st27" x="0" y="0">1</tspan><tspan class="st21" x="7.02" y="0">996</tspan></text>
  </g>
  <g class="st4">
    <text class="st25" transform="translate(587.89 492.5)"><tspan class="st26" x="0" y="0">1</tspan><tspan class="st23" x="7.02" y="0">997</tspan></text>
  </g>
  <g class="st2">
    <text class="st25" transform="translate(751.72 492.5)"><tspan class="st26" x="0" y="0">1</tspan><tspan class="st23" x="7.02" y="0">998</tspan></text>
  </g>
  <g class="st5">
    <text class="st25" transform="translate(916.5 492.5)"><tspan class="st26" x="0" y="0">1</tspan><tspan class="st23" x="7.02" y="0">999</tspan></text>
  </g>
</svg>