<?xml version="1.0" encoding="UTF-8"?>
<svg id="Layer_1" xmlns="http://www.w3.org/2000/svg" xmlns:xlink="http://www.w3.org/1999/xlink" version="1.1" viewBox="0 0 1008 504">
  <!-- Generator: Adobe Illustrator 29.5.0, SVG Export Plug-In . SVG Version: 2.1.0 Build 137)  -->
  <defs>
    <style>
      .st0 {
        fill: #404040;
      }

      .st1, .st2, .st3, .st4, .st5, .st6, .st7, .st8, .st9, .st10, .st11, .st12, .st13, .st14, .st15, .st16, .st17, .st18, .st19, .st20, .st21 {
        fill: none;
      }

      .st2 {
        stroke: #d0cece;
      }

      .st2, .st3, .st4, .st5, .st6, .st7, .st8, .st9, .st10, .st11, .st12, .st13, .st14, .st15, .st16, .st17, .st18, .st19, .st20, .st21 {
        stroke-linejoin: round;
      }

      .st2, .st3, .st4, .st5, .st6, .st7, .st8, .st10, .st11, .st12, .st13, .st14, .st16, .st17, .st18, .st19, .st20, .st21 {
        stroke-width: 2.25px;
      }

      .st2, .st3, .st4, .st5, .st6, .st7, .st8, .st10, .st11, .st12, .st13, .st14, .st16, .st18, .st19, .st21 {
        stroke-linecap: round;
      }

      .st3 {
        stroke: #66c5cd;
      }

      .st22 {
        fill-rule: evenodd;
      }

      .st22, .st23 {
        fill: #fff;
      }

      .st24 {
        fill: #a9a9a9;
      }

      .st4 {
        stroke: #767171;
      }

      .st5 {
        stroke: #b498e8;
      }

      .st6 {
        stroke: #87c55f;
      }

      .st7 {
        stroke: #787878;
      }

      .st25 {
        font-family: Oswald-Regular, Oswald;
      }

      .st25, .st26 {
        font-size: 20px;
      }

      .st8 {
        stroke: #e3e3e3;
      }

      .st9 {
        stroke: #bfbfbf;
      }

      .st9, .st15 {
        stroke-width: .75px;
      }

      .st27 {
        clip-path: url(#clippath-17);
      }

      .st28 {
        clip-path: url(#clippath-19);
      }

      .st29 {
        clip-path: url(#clippath-11);
      }

      .st30 {
        clip-path: url(#clippath-16);
      }

      .st31 {
        clip-path: url(#clippath-18);
      }

      .st32 {
        clip-path: url(#clippath-10);
      }

      .st33 {
        clip-path: url(#clippath-15);
      }

      .st34 {
        clip-path: url(#clippath-13);
      }

      .st35 {
        clip-path: url(#clippath-14);
      }

      .st36 {
        clip-path: url(#clippath-12);
      }

      .st37 {
        clip-path: url(#clippath-61);
      }

      .st38 {
        clip-path: url(#clippath-60);
      }

      .st39 {
        clip-path: url(#clippath-62);
      }

      .st40 {
        clip-path: url(#clippath-64);
      }

      .st41 {
        clip-path: url(#clippath-63);
      }

      .st42 {
        clip-path: url(#clippath-50);
      }

      .st43 {
        clip-path: url(#clippath-55);
      }

      .st44 {
        clip-path: url(#clippath-52);
      }

      .st45 {
        clip-path: url(#clippath-57);
      }

      .st46 {
        clip-path: url(#clippath-54);
      }

      .st47 {
        clip-path: url(#clippath-56);
      }

      .st48 {
        clip-path: url(#clippath-53);
      }

      .st49 {
        clip-path: url(#clippath-51);
      }

      .st50 {
        clip-path: url(#clippath-58);
      }

      .st51 {
        clip-path: url(#clippath-59);
      }

      .st52 {
        clip-path: url(#clippath-31);
      }

      .st53 {
        clip-path: url(#clippath-32);
      }

      .st54 {
        clip-path: url(#clippath-33);
      }

      .st55 {
        clip-path: url(#clippath-34);
      }

      .st56 {
        clip-path: url(#clippath-35);
      }

      .st57 {
        clip-path: url(#clippath-39);
      }

      .st58 {
        clip-path: url(#clippath-30);
      }

      .st59 {
        clip-path: url(#clippath-36);
      }

      .st60 {
        clip-path: url(#clippath-37);
      }

      .st61 {
        clip-path: url(#clippath-38);
      }

      .st62 {
        clip-path: url(#clippath-27);
      }

      .st63 {
        clip-path: url(#clippath-29);
      }

      .st64 {
        clip-path: url(#clippath-26);
      }

      .st65 {
        clip-path: url(#clippath-28);
      }

      .st66 {
        clip-path: url(#clippath-20);
      }

      .st67 {
        clip-path: url(#clippath-21);
      }

      .st68 {
        clip-path: url(#clippath-22);
      }

      .st69 {
        clip-path: url(#clippath-23);
      }

      .st70 {
        clip-path: url(#clippath-24);
      }

      .st71 {
        clip-path: url(#clippath-25);
      }

      .st72 {
        clip-path: url(#clippath-41);
      }

      .st73 {
        clip-path: url(#clippath-42);
      }

      .st74 {
        clip-path: url(#clippath-43);
      }

      .st75 {
        clip-path: url(#clippath-44);
      }

      .st76 {
        clip-path: url(#clippath-45);
      }

      .st77 {
        clip-path: url(#clippath-49);
      }

      .st78 {
        clip-path: url(#clippath-40);
      }

      .st79 {
        clip-path: url(#clippath-46);
      }

      .st80 {
        clip-path: url(#clippath-47);
      }

      .st81 {
        clip-path: url(#clippath-48);
      }

      .st82 {
        clip-path: url(#clippath-1);
      }

      .st83 {
        clip-path: url(#clippath-3);
      }

      .st84 {
        clip-path: url(#clippath-4);
      }

      .st85 {
        clip-path: url(#clippath-2);
      }

      .st86 {
        clip-path: url(#clippath-7);
      }

      .st87 {
        clip-path: url(#clippath-6);
      }

      .st88 {
        clip-path: url(#clippath-9);
      }

      .st89 {
        clip-path: url(#clippath-8);
      }

      .st90 {
        clip-path: url(#clippath-5);
      }

      .st10 {
        stroke: #8adda1;
      }

      .st91 {
        letter-spacing: 0em;
      }

      .st11 {
        stroke: #f7cf71;
      }

      .st92 {
        letter-spacing: 0em;
      }

      .st93 {
        letter-spacing: 0em;
      }

      .st94 {
        letter-spacing: 0em;
      }

      .st95 {
        letter-spacing: 0em;
      }

      .st96 {
        letter-spacing: 0em;
      }

      .st12 {
        stroke: #dcb1f3;
      }

      .st97 {
        letter-spacing: 0em;
      }

      .st98 {
        letter-spacing: 0em;
      }

      .st99 {
        letter-spacing: 0em;
      }

      .st100 {
        letter-spacing: 0em;
      }

      .st13 {
        stroke: #ff88b1;
      }

      .st14 {
        stroke: #f99d75;
      }

      .st15 {
        stroke: #d9d9d9;
      }

      .st16 {
        stroke: #868686;
      }

      .st17 {
        stroke: #d4b584;
      }

      .st17, .st20 {
        stroke-linecap: square;
      }

      .st18 {
        stroke: #9fbaf3;
      }

      .st19 {
        stroke: #7f7f7f;
      }

      .st26 {
        font-family: Oswald-Light, Oswald;
        font-weight: 300;
      }

      .st101 {
        letter-spacing: -.01em;
      }

      .st102 {
        letter-spacing: -.02em;
      }

      .st103 {
        letter-spacing: -.02em;
      }

      .st104 {
        letter-spacing: -.05em;
      }

      .st105 {
        letter-spacing: -.05em;
      }

      .st106 {
        letter-spacing: -.05em;
      }

      .st107 {
        letter-spacing: -.04em;
      }

      .st108 {
        letter-spacing: -.03em;
      }

      .st109 {
        letter-spacing: -.03em;
      }

      .st110 {
        letter-spacing: -.03em;
      }

      .st111 {
        letter-spacing: -.03em;
      }

      .st112 {
        letter-spacing: 0em;
      }

      .st113 {
        letter-spacing: 0em;
      }

      .st114 {
        letter-spacing: -.01em;
      }

      .st115 {
        letter-spacing: -.01em;
      }

      .st116 {
        letter-spacing: -.01em;
      }

      .st117 {
        letter-spacing: 0em;
      }

      .st118 {
        letter-spacing: 0em;
      }

      .st119 {
        letter-spacing: 0em;
      }

      .st120 {
        letter-spacing: .03em;
      }

      .st121 {
        letter-spacing: .02em;
      }

      .st122 {
        letter-spacing: .01em;
      }

      .st123 {
        clip-path: url(#clippath);
      }

      .st124 {
        letter-spacing: .02em;
      }

      .st20 {
        stroke: #c9db74;
      }

      .st125 {
        letter-spacing: .01em;
      }

      .st126 {
        letter-spacing: .05em;
      }

      .st127 {
        letter-spacing: .04em;
      }

      .st128 {
        letter-spacing: .04em;
      }

      .st129 {
        letter-spacing: .03em;
      }

      .st130 {
        letter-spacing: .04em;
      }

      .st131 {
        letter-spacing: .03em;
      }

      .st132 {
        letter-spacing: .04em;
      }

      .st133 {
        letter-spacing: 0em;
      }

      .st134 {
        letter-spacing: 0em;
      }

      .st135 {
        letter-spacing: 0em;
      }

      .st136 {
        letter-spacing: .01em;
      }

      .st137 {
        letter-spacing: .01em;
      }

      .st21 {
        stroke: #b7b7b7;
      }

      .st138 {
        letter-spacing: 0em;
      }
    </style>
    <clipPath id="clippath">
      <rect class="st1" x="-.16" y=".5" width="1008" height="504"/>
    </clipPath>
    <clipPath id="clippath-1">
      <rect class="st1" x="-.16" y=".5" width="1008" height="504"/>
    </clipPath>
    <clipPath id="clippath-2">
      <rect class="st1" x="55.84" y="19.5" width="810" height="433"/>
    </clipPath>
    <clipPath id="clippath-3">
      <rect class="st1" x="55.84" y="19.5" width="810" height="433"/>
    </clipPath>
    <clipPath id="clippath-4">
      <rect class="st1" x="55.84" y="19.5" width="810" height="433"/>
    </clipPath>
    <clipPath id="clippath-5">
      <rect class="st1" x="55.84" y="19.5" width="810" height="433"/>
    </clipPath>
    <clipPath id="clippath-6">
      <rect class="st1" x="55.84" y="19.5" width="810" height="433"/>
    </clipPath>
    <clipPath id="clippath-7">
      <rect class="st1" x="55.84" y="19.5" width="810" height="433"/>
    </clipPath>
    <clipPath id="clippath-8">
      <rect class="st1" x="55.84" y="19.5" width="810" height="433"/>
    </clipPath>
    <clipPath id="clippath-9">
      <rect class="st1" x="55.84" y="19.5" width="810" height="433"/>
    </clipPath>
    <clipPath id="clippath-10">
      <rect class="st1" x="55.84" y="19.5" width="810" height="433"/>
    </clipPath>
    <clipPath id="clippath-11">
      <rect class="st1" x="55.84" y="19.5" width="810" height="433"/>
    </clipPath>
    <clipPath id="clippath-12">
      <rect class="st1" x="55.84" y="19.5" width="810" height="433"/>
    </clipPath>
    <clipPath id="clippath-13">
      <rect class="st1" x="55.84" y="19.5" width="810" height="433"/>
    </clipPath>
    <clipPath id="clippath-14">
      <rect class="st1" x="55.84" y="19.5" width="810" height="433"/>
    </clipPath>
    <clipPath id="clippath-15">
      <rect class="st1" x="55.84" y="19.5" width="810" height="433"/>
    </clipPath>
    <clipPath id="clippath-16">
      <rect class="st1" x="55.84" y="19.5" width="810" height="433"/>
    </clipPath>
    <clipPath id="clippath-17">
      <rect class="st1" x="55.84" y="19.5" width="810" height="433"/>
    </clipPath>
    <clipPath id="clippath-18">
      <rect class="st1" x="55.84" y="19.5" width="810" height="433"/>
    </clipPath>
    <clipPath id="clippath-19">
      <rect class="st1" x="55.84" y="19.5" width="810" height="433"/>
    </clipPath>
    <clipPath id="clippath-20">
      <rect class="st1" x="55.84" y="19.5" width="810" height="433"/>
    </clipPath>
    <clipPath id="clippath-21">
      <rect class="st1" x="55.84" y="19.5" width="810" height="433"/>
    </clipPath>
    <clipPath id="clippath-22">
      <rect class="st1" x="-.16" y=".5" width="1008" height="504"/>
    </clipPath>
    <clipPath id="clippath-23">
      <rect class="st1" x="642.34" y="57" width="53" height="33.5"/>
    </clipPath>
    <clipPath id="clippath-24">
      <rect class="st1" x="-.16" y=".5" width="1008" height="504"/>
    </clipPath>
    <clipPath id="clippath-25">
      <rect class="st1" x="571.84" y="334" width="60.5" height="33"/>
    </clipPath>
    <clipPath id="clippath-26">
      <rect class="st1" x="-.16" y=".5" width="1008" height="504"/>
    </clipPath>
    <clipPath id="clippath-27">
      <rect class="st1" x="500.34" y="288.5" width="61.5" height="33"/>
    </clipPath>
    <clipPath id="clippath-28">
      <rect class="st1" x="-.16" y=".5" width="1008" height="504"/>
    </clipPath>
    <clipPath id="clippath-29">
      <rect class="st1" x="781.34" y="318.5" width="34.5" height="33.5"/>
    </clipPath>
    <clipPath id="clippath-30">
      <rect class="st1" x="-.16" y=".5" width="1008" height="504"/>
    </clipPath>
    <clipPath id="clippath-31">
      <rect class="st1" x="-.16" y=".5" width="1008" height="504"/>
    </clipPath>
    <clipPath id="clippath-32">
      <rect class="st1" x="-.16" y=".5" width="1008" height="504"/>
    </clipPath>
    <clipPath id="clippath-33">
      <rect class="st1" x="-.16" y=".5" width="1008" height="504"/>
    </clipPath>
    <clipPath id="clippath-34">
      <rect class="st1" x="-.16" y=".5" width="1008" height="504"/>
    </clipPath>
    <clipPath id="clippath-35">
      <rect class="st1" x="-.16" y=".5" width="1008" height="504"/>
    </clipPath>
    <clipPath id="clippath-36">
      <rect class="st1" x="-.16" y=".5" width="1008" height="504"/>
    </clipPath>
    <clipPath id="clippath-37">
      <rect class="st1" x="-.16" y=".5" width="1008" height="504"/>
    </clipPath>
    <clipPath id="clippath-38">
      <rect class="st1" x="-.16" y=".5" width="1008" height="504"/>
    </clipPath>
    <clipPath id="clippath-39">
      <rect class="st1" x="-.16" y=".5" width="1008" height="504"/>
    </clipPath>
    <clipPath id="clippath-40">
      <rect class="st1" x="-.16" y=".5" width="1008" height="504"/>
    </clipPath>
    <clipPath id="clippath-41">
      <rect class="st1" x="-.16" y=".5" width="1008" height="504"/>
    </clipPath>
    <clipPath id="clippath-42">
      <rect class="st1" x="-.16" y=".5" width="1008" height="504"/>
    </clipPath>
    <clipPath id="clippath-43">
      <rect class="st1" x="-.16" y=".5" width="1008" height="504"/>
    </clipPath>
    <clipPath id="clippath-44">
      <rect class="st1" x="-.16" y=".5" width="1008" height="504"/>
    </clipPath>
    <clipPath id="clippath-45">
      <rect class="st1" x="-.16" y=".5" width="1008" height="504"/>
    </clipPath>
    <clipPath id="clippath-46">
      <rect class="st1" x="-.16" y=".5" width="1008" height="504"/>
    </clipPath>
    <clipPath id="clippath-47">
      <rect class="st1" x="-.16" y=".5" width="1008" height="504"/>
    </clipPath>
    <clipPath id="clippath-48">
      <rect class="st1" x="-.16" y=".5" width="1008" height="504"/>
    </clipPath>
    <clipPath id="clippath-49">
      <rect class="st1" x="-.16" y=".5" width="1008" height="504"/>
    </clipPath>
    <clipPath id="clippath-50">
      <rect class="st1" x="-.16" y=".5" width="1008" height="504"/>
    </clipPath>
    <clipPath id="clippath-51">
      <rect class="st1" x="-.16" y=".5" width="1008" height="504"/>
    </clipPath>
    <clipPath id="clippath-52">
      <rect class="st1" x="-.16" y=".5" width="1008" height="504"/>
    </clipPath>
    <clipPath id="clippath-53">
      <rect class="st1" x="-.16" y=".5" width="1008" height="504"/>
    </clipPath>
    <clipPath id="clippath-54">
      <rect class="st1" x="-.16" y=".5" width="1008" height="504"/>
    </clipPath>
    <clipPath id="clippath-55">
      <rect class="st1" x="-.16" y=".5" width="1008" height="504"/>
    </clipPath>
    <clipPath id="clippath-56">
      <rect class="st1" x="-.16" y=".5" width="1008" height="504"/>
    </clipPath>
    <clipPath id="clippath-57">
      <rect class="st1" x="-.16" y=".5" width="1008" height="504"/>
    </clipPath>
    <clipPath id="clippath-58">
      <rect class="st1" x="-.16" y=".5" width="1008" height="504"/>
    </clipPath>
    <clipPath id="clippath-59">
      <rect class="st1" x="-.16" y=".5" width="1008" height="504"/>
    </clipPath>
    <clipPath id="clippath-60">
      <rect class="st1" x="-.16" y=".5" width="1008" height="504"/>
    </clipPath>
    <clipPath id="clippath-61">
      <rect class="st1" x="-.16" y=".5" width="1008" height="504"/>
    </clipPath>
    <clipPath id="clippath-62">
      <rect class="st1" x="-.16" y=".5" width="1008" height="504"/>
    </clipPath>
    <clipPath id="clippath-63">
      <rect class="st1" x="-.16" y=".5" width="1008" height="504"/>
    </clipPath>
    <clipPath id="clippath-64">
      <rect class="st1" x="-.16" y=".5" width="1008" height="504"/>
    </clipPath>
  </defs>
  <rect class="st23" x="-.16" y=".5" width="1008" height="504"/>
  <g class="st123">
    <path class="st15" d="M56.84,20.5h808.5M56.84,74.5h808.5M56.84,128.5h808.5M56.84,182.5h808.5M56.84,236.5h808.5M56.84,290.5h808.5M56.84,344.5h808.5M56.84,398.5h808.5"/>
  </g>
  <g class="st82">
    <line class="st15" x1="56.84" y1="452.5" x2="865.34" y2="452.5"/>
  </g>
  <g class="st85">
    <path class="st3" d="M144.59,444.35c5.86-.9,23.43,5.4,35.15-5.4,11.72-10.8,23.43-43.2,35.15-59.41,11.72-16.2,23.43-30.15,35.15-37.8,11.72-7.65,23.43-5.4,35.15-8.1,11.72-2.7,23.43-8.1,35.15-8.1s23.77,22.09,35.15,8.1c11.72-14.4,23.43-81.91,35.15-94.51,11.72-12.6,23.43,15.75,35.15,18.9,11.72,3.15,23.43,12.15,35.15,0,11.72-12.15,23.43-64.81,35.15-72.91,11.72-8.1,23.43,18.45,35.15,24.3,10.03,5.01,25.12,26.21,35.15,10.8,11.72-18,23.43-97.21,35.15-118.81,8.77-16.16,26.38-14.84,35.15-10.8,11.72,5.4,23.43,36.45,35.15,43.2,11.72,6.75,23.43-4.05,35.15-2.7,10.58,1.22,24.57-4.24,35.15,10.8,11.72,16.65,23.43,81.01,35.15,89.11,11.72,8.1,23.43-47.26,35.15-40.5,11.72,6.75,23.43,54.01,35.15,81.01"/>
  </g>
  <g class="st83">
    <path class="st14" d="M74.59,449.75c11.71-1.8,23.42-2.25,35.14-5.4,11.71-3.15,23.42-9.44,35.14-13.49,11.71-4.05,23.42,2.25,35.14-10.79,11.71-13.04,23.42-58.9,35.14-67.44,11.71-8.54,23.42,18.88,35.14,16.19,11.71-2.7,23.42-29.67,35.14-32.37,11.71-2.7,23.42,11.69,35.14,16.19,11.71,4.5,23.42,8.54,35.14,10.79,11.71,2.25,23.42-1.35,35.14,2.7,11.71,4.05,23.42,19.78,35.14,21.58,11.71,1.8,23.42-8.99,35.14-10.79,11.71-1.8,23.42.9,35.14,0,11.71-.9,23.42-3.6,35.14-5.4,11.71-1.8,23.42-7.19,35.14-5.4,11.71,1.8,23.42,11.24,35.14,16.19,11.71,4.95,23.42,8.99,35.14,13.49,11.71,4.5,23.42,17.09,35.14,13.49,11.71-3.6,23.42-31.02,35.14-35.07,11.71-4.05,23.42,11.24,35.14,10.79,11.71-.45,23.42-13.04,35.14-13.49,11.71-.45,23.42,6.29,35.14,10.79,11.71,4.5,23.42,10.79,35.14,16.19"/>
  </g>
  <g class="st84">
    <path class="st11" d="M74.59,420.05c11.71-3.6,23.42-12.59,35.14-10.79,11.71,1.8,23.42,16.64,35.14,21.58,9.5,4.01,25.64,23.41,35.14,8.09,11.71-18.88,23.42-106.11,35.14-121.4s23.42,16.19,35.14,29.68c11.71,13.49,23.42,37.77,35.14,51.26,11.71,13.49,23.42,25.63,35.14,29.68s23.42-2.25,35.14-5.4c11.71-3.15,23.42-6.74,35.14-13.49,11.71-6.74,23.42-16.19,35.14-26.98,11.71-10.79,23.42-27.88,35.14-37.77,11.71-9.89,23.42-25.63,35.14-21.58,11.71,4.05,23.42,32.82,35.14,45.86,11.71,13.04,23.42,23.83,35.14,32.37,11.71,8.54,23.42,16.19,35.14,18.88,11.71,2.7,23.42,2.7,35.14-2.7,11.71-5.4,23.42-30.12,35.14-29.68,11.71.45,23.42,28.33,35.14,32.37,11.71,4.05,23.42-8.99,35.14-8.09,11.71.9,23.42,11.69,35.14,13.49,11.71,1.8,23.42.9,35.14-2.7,11.71-3.6,23.42-12.59,35.14-18.88"/>
  </g>
  <g class="st90">
    <path class="st12" d="M109.59,406.61c5.86,2.71,23.43,10.38,35.14,16.25,11.71,5.87,23.43,15.34,35.14,18.95,11.71,3.61,23.43,1.35,35.14,2.71,11.71,1.35,23.43,4.51,35.14,5.42,11.71.9,23.43,5.42,35.14,0,11.71-5.42,23.43-29.33,35.14-32.49,11.71-3.16,23.43,13.54,35.14,13.54s23.43-4.06,35.14-13.54c11.71-9.48,23.43-47.38,35.14-43.32,11.71,4.06,23.43,58.67,35.14,67.69,11.71,9.03,23.43-14.44,35.14-13.54,11.71.9,23.43,27.98,35.14,18.95,11.71-9.03,23.43-63.63,35.14-73.11,11.71-9.48,23.43,15.34,35.14,16.25,11.71.9,23.43-11.73,35.14-10.83,11.71.9,23.43,19.86,35.14,16.25,11.71-3.61,23.43-33.39,35.14-37.91,11.71-4.51,23.43,12.18,35.14,10.83,11.71-1.35,23.43-18.95,35.14-18.95s23.43,9.03,35.14,18.95c11.71,9.93,23.43,27.08,35.14,40.61"/>
  </g>
  <g class="st87">
    <path class="st18" d="M109.59,447.29c5.86.45,23.43,4.05,35.14,2.7,11.71-1.35,23.43,2.25,35.14-10.81,11.71-13.07,23.43-61.72,35.14-67.58,11.71-5.86,23.43,29.28,35.14,32.44,11.71,3.15,23.43-12.61,35.14-13.52,11.71-.9,23.43,9.91,35.14,8.11,11.71-1.8,23.43-18.92,35.14-18.92s23.43,11.71,35.14,18.92c11.71,7.21,23.43,21.17,35.14,24.33,11.71,3.15,23.43-1.35,35.14-5.41,11.71-4.05,23.43-18.92,35.14-18.92s23.43,18.92,35.14,18.92,23.43-16.22,35.14-18.92c11.71-2.7,23.43,4.51,35.14,2.7,11.71-1.8,23.43-9.91,35.14-13.52,11.71-3.6,23.43-13.97,35.14-8.11,11.71,5.86,23.43,36.49,35.14,43.25,11.71,6.76,23.43-2.7,35.14-2.7s23.43.9,35.14,2.7,23.43,5.41,35.14,8.11c11.71,2.7,23.43,5.41,35.14,8.11"/>
  </g>
  <g class="st86">
    <path class="st6" d="M390.59,398.36c5.86-1.78,23.44-9.33,35.15-10.67,11.72-1.33,23.44.89,35.15,2.67,11.72,1.78,23.44,6.22,35.15,8,11.72,1.78,23.44,5.78,35.15,2.67,11.72-3.11,23.44-20.89,35.15-21.33,11.72-.44,23.44,16.89,35.15,18.67,11.72,1.78,23.44-6.22,35.15-8,11.72-1.78,23.44-4,35.15-2.67,11.72,1.33,23.44,8.89,35.15,10.67,11.72,1.78,23.44,2.67,35.15,0,11.72-2.67,23.44-17.78,35.15-16,11.72,1.78,23.44,24.44,35.15,26.67,11.72,2.22,23.44-8.89,35.15-13.33"/>
  </g>
  <g class="st89">
    <path class="st2" d="M707.02,436.29c5.86-3.15,23.43-12.16,35.14-18.91,11.71-6.76,23.43-26.12,35.14-21.62,11.71,4.5,23.43,42.78,35.14,48.64,11.71,5.85,23.43-9.01,35.14-13.51M109.59,441.69c5.86-5.4,23.43-31.07,35.14-32.42,11.71-1.35,23.43,28.37,35.14,24.32,11.71-4.05,23.43-45.93,35.14-48.64,11.71-2.7,23.43,31.97,35.14,32.42,11.71.45,23.43-26.57,35.14-29.72,11.71-3.15,23.43,8.56,35.14,10.81,11.71,2.25,23.43,1.35,35.14,2.7,11.71,1.35,23.43,4.05,35.14,5.4,11.71,1.35,23.43-1.35,35.14,2.7,11.71,4.05,29.29,18.01,35.14,21.62"/>
  </g>
  <g class="st88">
    <path class="st0" d="M391.48,449.06c.38.49.3,1.2-.19,1.58-.49.38-1.2.3-1.58-.19l1.77-1.39ZM75.1,434.57c-.56.28-1.23.05-1.51-.5-.28-.56-.05-1.23.5-1.51l1,2.01ZM74.93,434.23l4.39-2.19,4.42-2.44,4.4-2.53,4.38-2.47,4.37-2.27,4.35-1.93,4.32-1.45,2.13-.5,2.14-.33,4.31-.22,4.3.29,4.32.71,4.33,1.06,4.35,1.33,4.36,1.53,8.76,3.34,2.15.98,2.13,1.25,2.15,1.48,2.16,1.66,4.37,3.64,4.39,3.68,2.22,1.73,2.22,1.57,2.24,1.36,2.26,1.09,2.28.77s.08.02.12.03l2.19.35s.1.01.15,0l2.19-.09c.05,0,.11-.01.16-.02l2.19-.58c.05-.01.11-.03.16-.06l2.19-1.15s.08-.05.11-.07l2.19-1.71,2.26-2.26,2.24-2.67,2.22-3,2.21-3.27,2.21-3.47,2.2-3.59,4.39-7.29,2.19-3.55,2.19-3.4,2.18-3.17,2.17-2.87,2.16-2.49,2.15-2.04,4.34-3.47,4.35-3.06,4.34-2.58,4.33-2.06,4.31-1.49,4.24-.87,4.33-.24,2.1.14,2.13.32,2.03.61,2.14,1.05,2.11,1.39,2.14,1.7,2.16,1.95,2.17,2.14,4.37,4.59,4.39,4.59,2.21,2.15,2.22,1.97,2.23,1.73,2.25,1.42,2.28,1.06s.08.03.12.04l2.19.57s.1.02.15.02l2.19.12s.09,0,.13,0l2.19-.27s.07-.01.11-.02l2.19-.61,2.28-.92,2.26-1.16,2.24-1.34,4.42-3.01,4.4-3.12,4.36-2.81,2.14-1.15,2.14-.93,2.12-.65,2.09-.33,4.3-.15,4.33.21,4.32.6,4.32,1.03,4.32,1.48,4.32,1.97,4.33,2.49,4.33,3.05,2.21,1.85,2.33,2.22,2.43,2.54,2.5,2.8,2.54,3.01,2.55,3.15,5.03,6.53,4.76,6.45,2.21,3.05,2.07,2.87,1.9,2.63,1.7,2.34,1.48,1.99,1.24,1.59-.3.23-1.25-1.59-1.49-1.99-1.7-2.34-1.9-2.63-2.07-2.87-2.21-3.05-4.75-6.44-5.02-6.52-2.54-3.15-2.53-3-2.49-2.79-2.42-2.53-2.32-2.21-2.18-1.83-4.3-3.03-4.29-2.48-4.29-1.96-4.28-1.47-4.28-1.02-4.29-.6-4.29-.21-4.25.15-2.04.31-2.08.63-2.11.91-2.12,1.13-4.35,2.8-4.41,3.13-4.44,3.02-2.26,1.35-2.29,1.17-2.32.94-2.19.61c-.05.01-.11.03-.16.03l-2.19.27c-.07,0-.13.01-.2,0l-2.19-.12c-.07,0-.15-.02-.22-.03l-2.19-.57c-.06-.02-.13-.04-.18-.07l-2.32-1.08-2.28-1.44-2.25-1.74-2.23-1.98-2.22-2.16-4.39-4.59-4.36-4.58-2.16-2.13-2.14-1.93-2.11-1.68-2.07-1.37-2.11-1.04-1.95-.59-2.1-.32-2.06-.14-4.31.24-4.17.85-4.27,1.47-4.3,2.04-4.32,2.56-4.33,3.04-4.31,3.45-2.12,2.02-2.15,2.47-2.16,2.85-2.18,3.16-2.18,3.39-2.19,3.55-4.39,7.29-2.2,3.6-2.21,3.47-2.22,3.28-2.24,3.02-2.26,2.69-2.3,2.29-2.19,1.71c-.05.04-.11.08-.17.11l-2.19,1.15c-.07.04-.15.07-.23.09l-2.19.58c-.08.02-.16.03-.24.04l-2.19.09c-.07,0-.15,0-.22-.01l-2.19-.35c-.06,0-.12-.02-.18-.04l-2.33-.79-2.29-1.11-2.26-1.37-2.24-1.58-2.23-1.73-4.39-3.68-4.35-3.63-2.15-1.65-2.12-1.47-2.09-1.23-2.13-.97-8.75-3.34-4.35-1.53-4.33-1.33-4.3-1.06-4.28-.71-4.26-.29-4.27.21-2.11.33-2.09.49-4.29,1.44-4.33,1.92-4.36,2.27-4.38,2.47-4.4,2.53-4.43,2.45-4.39,2.19-.17-.34ZM74.43,433.23l4.39-2.19,4.37-2.42,4.38-2.52,4.39-2.48,4.4-2.29,4.41-1.96,4.42-1.49,2.23-.53,2.22-.35,4.43-.23,4.43.29,4.43.72,4.42,1.08,4.41,1.35,4.4,1.55,8.79,3.35,2.22,1.01,2.23,1.3,2.22,1.53,2.21,1.69,4.4,3.67,4.39,3.68,2.18,1.7,2.18,1.54,2.17,1.32,2.16,1.04,2.12.71,2.13.34,2.12-.08,2.11-.56,2.13-1.11,2.17-1.69,2.16-2.17,2.17-2.59,2.18-2.95,2.19-3.23,2.19-3.44,2.19-3.58,4.39-7.28,2.2-3.56,2.2-3.41,2.2-3.2,2.2-2.91,2.21-2.55,2.22-2.12,4.41-3.53,4.41-3.1,4.41-2.63,4.42-2.11,4.43-1.54,4.44-.92s.04,0,.06,0l4.39-.24,2.24.14,2.23.33,2.25.67s.04.01.06.02l2.19,1.08,2.23,1.46,2.22,1.76,2.21,2,2.21,2.17,4.4,4.62,4.39,4.59,2.18,2.12,2.18,1.93,2.17,1.68,2.17,1.36,2.12.97,2.13.56,2.12.12,2.13-.26,2.17-.6,2.15-.88,2.16-1.12,2.17-1.31,4.37-2.98,4.38-3.11,4.4-2.84,2.22-1.19,2.22-.97,2.23-.69,2.25-.36,4.43-.17,4.42.21,4.42.61,4.42,1.04,4.42,1.51,4.42,2.01,4.42,2.54,4.42,3.1,2.28,1.91,2.39,2.27,2.47,2.58,2.52,2.83,2.56,3.03,2.56,3.17,5.05,6.55,4.77,6.47,2.22,3.06,2.07,2.87,1.9,2.63,1.7,2.33,1.48,1.98,1.22,1.56-.59.46-1.24-1.58-1.48-1.98-1.7-2.33-1.9-2.63-2.07-2.87-2.21-3.06-4.76-6.45-5.03-6.54-2.55-3.16-2.54-3.01-2.51-2.81-2.44-2.55-2.35-2.24-2.23-1.87-4.36-3.06-4.36-2.51-4.36-1.98-4.35-1.49-4.35-1.03-4.36-.6-4.36-.21-4.34.16-2.14.34-2.16.66-2.17.94-2.17,1.16-4.38,2.82-4.39,3.12-4.41,3-2.22,1.33-2.22,1.15-2.24.91-2.19.61s-.04,0-.05.01l-2.19.27s-.04,0-.07,0l-2.19-.12s-.05,0-.07-.01l-2.19-.57s-.04-.01-.06-.02l-2.24-1.03-2.22-1.4-2.21-1.71-2.21-1.96-2.2-2.14-4.39-4.59-4.38-4.6-2.18-2.15-2.18-1.96-2.17-1.72-2.15-1.42-2.17-1.06-2.11-.63-2.16-.32-2.15-.14-4.36.24-4.31.89-4.35,1.5-4.36,2.07-4.36,2.6-4.37,3.07-4.36,3.49-2.17,2.07-2.18,2.51-2.18,2.88-2.19,3.18-2.19,3.4-2.19,3.55-4.39,7.28-2.2,3.59-2.2,3.46-2.2,3.25-2.21,2.98-2.22,2.64-2.23,2.23-2.19,1.71s-.04.03-.06.04l-2.19,1.15s-.05.02-.08.03l-2.19.58s-.05.01-.08.01l-2.19.09s-.05,0-.07,0l-2.19-.35s-.04,0-.06-.01l-2.24-.75-2.23-1.08-2.22-1.35-2.21-1.56-2.2-1.72-4.39-3.68-4.38-3.65-2.18-1.67-2.17-1.5-2.16-1.27-2.17-.99-8.77-3.35-4.37-1.54-4.37-1.34-4.36-1.07-4.35-.72-4.35-.29-4.35.22-2.17.34-2.16.51-4.36,1.47-4.37,1.94-4.38,2.28-4.39,2.47-4.39,2.52-4.4,2.43-4.39,2.19-.33-.67ZM74.09,432.56l4.39-2.19,4.35-2.4,4.37-2.51,4.4-2.48,4.42-2.3,4.45-1.98,4.49-1.52,2.3-.55,2.28-.36,4.51-.24,4.52.29,4.5.73,4.47,1.09,4.45,1.36,4.43,1.56,8.81,3.36,2.26,1.03,2.3,1.34,2.26,1.56,2.24,1.72,4.42,3.69,4.39,3.68,2.16,1.68,2.15,1.52,2.13,1.29,2.1,1.01,1.97.65,1.99.32,1.96-.08,1.95-.51,1.99-1.04,2.11-1.65,2.09-2.11,2.13-2.55,2.15-2.91,2.17-3.2,2.18-3.42,2.18-3.57,4.38-7.28,2.2-3.57,2.21-3.43,2.21-3.22,2.22-2.94,2.24-2.59,2.27-2.17,4.46-3.58,4.44-3.13,4.46-2.66,4.48-2.14,4.5-1.57,4.53-.94c.05-.01.11-.02.17-.02l4.39-.24,2.33.14,2.29.34,2.35.69c.06.02.12.04.17.07l2.19,1.08,2.32,1.51,2.28,1.8,2.25,2.03,2.23,2.19,4.41,4.63,4.39,4.59,2.17,2.1,2.16,1.91,2.14,1.64,2.11,1.32,1.98.9,1.99.52,1.98.11,2.01-.24,2.11-.58,2.07-.85,2.1-1.09,2.13-1.28,4.34-2.95,4.37-3.1,4.43-2.86,2.27-1.23,2.28-1,2.31-.72,2.35-.39,4.52-.18,4.48.21,4.49.62,4.49,1.06,4.49,1.53,4.49,2.04,4.48,2.57,4.47,3.14,2.33,1.95,2.42,2.3,2.49,2.6,2.54,2.85,2.57,3.04,2.57,3.18,5.06,6.57,4.78,6.48,2.22,3.07,2.07,2.88,1.9,2.63,1.7,2.33,1.47,1.97,1.21,1.55-.3.23-1.22-1.56-1.47-1.97-1.7-2.33-1.9-2.63-2.07-2.87-2.22-3.07-4.78-6.47-5.05-6.56-2.57-3.18-2.56-3.04-2.53-2.84-2.48-2.59-2.41-2.29-2.31-1.93-4.45-3.12-4.45-2.56-4.46-2.02-4.46-1.52-4.46-1.05-4.46-.61-4.45-.21-4.48.17-2.3.37-2.27.71-2.25.98-2.25,1.21-4.42,2.85-4.38,3.11-4.35,2.96-2.15,1.29-2.13,1.1-2.11.87-2.14.59-2.07.25-2.05-.12-2.06-.54-2.05-.93-2.14-1.34-2.16-1.66-2.17-1.92-2.18-2.11-4.39-4.59-4.41-4.63-2.22-2.18-2.23-2.01-2.25-1.78-2.28-1.49-2.19-1.08s-.08-.03-.12-.05l-2.3-.68-2.26-.33-2.28-.14-4.39.24s-.07,0-.11.01l-4.48.93-4.47,1.55-4.45,2.12-4.44,2.64-4.43,3.11-4.44,3.56-2.24,2.15-2.23,2.57-2.21,2.92-2.21,3.21-2.2,3.42-2.2,3.56-4.39,7.28-2.19,3.57-2.18,3.43-2.18,3.22-2.17,2.93-2.15,2.57-2.12,2.14-2.14,1.67-2.06,1.08-2.03.54-2.04.08-2.06-.33-2.05-.68-2.13-1.03-2.15-1.3-2.17-1.53-2.17-1.69-4.39-3.68-4.41-3.68-2.23-1.7-2.24-1.54-2.26-1.32-2.24-1.02-8.8-3.36-4.42-1.55-4.43-1.36-4.45-1.08-4.46-.73-4.48-.29-4.47.23-2.25.36-2.26.54-4.45,1.5-4.43,1.97-4.41,2.3-4.39,2.48-4.38,2.52-4.36,2.41-4.39,2.19-.17-.34Z"/>
  </g>
  <g class="st32">
    <path class="st21" d="M461.02,444.55c5.86-2.72,23.43-17.21,35.14-16.3,11.71.91,23.43,19.47,35.14,21.74,11.71,2.26,23.43-3.62,35.14-8.15,11.71-4.53,23.43-14.95,35.14-19.02,11.71-4.08,23.43,0,35.14-5.43,11.71-5.43,23.43-27.63,35.14-27.17,11.71.45,23.43,23.1,35.14,29.89,11.71,6.79,23.43,11.78,35.14,10.87,11.71-.91,23.43-17.66,35.14-16.3,11.71,1.36,23.43,21.29,35.14,24.46,11.71,3.17,23.43-3.62,35.14-5.43M285.31,444.55c5.86-.91,29.29-4.53,35.14-5.43M109.59,444.55c5.86.91,29.29,4.53,35.14,5.43"/>
  </g>
  <g class="st29">
    <path class="st17" d="M531.41,449.75c5.86-2.71,29.32-13.54,35.18-16.24M179.59,449.75c5.86-1.8,23.45-7.67,35.18-10.83,11.73-3.16,23.45-1.8,35.18-8.12,11.73-6.32,23.45-24.37,35.18-29.78,11.73-5.41,23.45-6.77,35.18-2.71,11.73,4.06,23.45,22.11,35.18,27.07,11.73,4.96,23.45,5.41,35.18,2.71,11.73-2.71,23.45-20.3,35.18-18.95,11.73,1.35,29.32,22.56,35.18,27.07"/>
  </g>
  <g class="st36">
    <path class="st7" d="M355.59,414.59c5.86.45,23.43-1.35,35.14,2.69,11.71,4.04,23.43,22.89,35.14,21.55,11.71-1.35,23.43-29.18,35.14-29.62,11.71-.45,23.43,24.24,35.14,26.93,11.71,2.69,23.43-12.57,35.14-10.77,11.71,1.8,23.43,22.89,35.14,21.55,11.71-1.35,29.29-24.69,35.14-29.63"/>
  </g>
  <g class="st34">
    <path class="st20" d="M74.59,422.78c11.7,3.6,23.41,8.09,35.11,10.79,11.7,2.7,23.41,5.39,35.11,5.39s23.41,0,35.11-5.39c11.7-5.39,23.41-25.62,35.11-26.97,11.7-1.35,23.41,14.38,35.11,18.88,11.7,4.49,23.41,8.09,35.11,8.09s23.41-9.89,35.11-8.09c11.7,1.8,23.41,14.83,35.11,18.88,11.7,4.05,29.26,4.49,35.11,5.39"/>
  </g>
  <g class="st35">
    <path class="st16" d="M74.59,430.98c11.7-7.18,23.4-18.85,35.1-21.54,11.7-2.69,23.4.45,35.1,5.38,11.7,4.94,23.4,24.68,35.1,24.23,11.7-.45,23.4-27.37,35.1-26.92,11.7.45,29.25,24.68,35.1,29.62"/>
  </g>
  <g class="st33">
    <path class="st8" d="M742.09,425.45c5.86-1.35,23.44-7.67,35.17-8.12,11.72-.45,23.44,9.93,35.17,5.41,11.72-4.51,23.44-21.66,35.17-32.49"/>
  </g>
  <g class="st30">
    <path class="st4" d="M285.09,449.75c5.86-9.44,23.44-44.07,35.17-56.67,11.72-12.59,23.44-28.33,35.17-18.89,11.72,9.44,29.31,62.96,35.17,75.56"/>
  </g>
  <g class="st27">
    <path class="st13" d="M461.18,449.75c5.86-2.68,23.45-11.18,35.18-16.11,11.73-4.92,23.45-10.74,35.18-13.42,11.73-2.68,23.45-4.47,35.18-2.68,11.73,1.79,23.45,8.5,35.18,13.42,11.73,4.92,29.32,13.42,35.18,16.11M250.09,441.7c5.86-.45,29.32-2.24,35.18-2.68"/>
  </g>
  <g class="st31">
    <path class="st19" d="M390.59,411.94c5.87-4.93,23.5-32.69,35.25-29.56,11.75,3.13,29.37,40.3,35.25,48.37"/>
  </g>
  <g class="st28">
    <path class="st10" d="M426.09,425.28c5.85-.45,23.4-4.53,35.1-2.72,11.7,1.81,23.4,10.42,35.1,13.59,11.7,3.17,23.4,7.7,35.1,5.44,11.7-2.27,23.4-20.39,35.1-19.03,11.7,1.36,29.25,22.66,35.1,27.19"/>
  </g>
  <g class="st66">
    <path class="st24" d="M384.33,444.26h0c.51.36.64,1.06.28,1.57-.35.51-1.06.64-1.57.28h0c-.51-.36-.64-1.06-.28-1.57.35-.51,1.06-.64,1.57-.28ZM376.91,439.15h0c.51.35.64,1.05.29,1.57s-1.05.64-1.56.29h0c-.51-.35-.64-1.05-.29-1.57.35-.51,1.05-.64,1.56-.29ZM355.15,426.85l.67.23,2.33.98,2.42,1.16,5.03,2.74,3.71,2.26c.53.32.7,1.02.38,1.55-.32.53-1.02.7-1.55.38l-3.62-2.21-4.92-2.69-2.32-1.11-2.19-.92-.67-.23c-.59-.2-.9-.84-.7-1.43.2-.59.84-.9,1.43-.7ZM346.39,424.24h0c.61.12,1,.72.88,1.33-.12.61-.72,1-1.33.88h0c-.61-.12-1-.72-.88-1.33.12-.61.72-1,1.33-.88ZM337.41,422.71h0c.62.07,1.07.62,1,1.24-.07.62-.62,1.07-1.24,1h0c-.62-.07-1.07-.62-1-1.24.07-.62.62-1.07,1.24-1ZM312.59,421.56l7.72.02,8.07.37c.62.03,1.1.55,1.07,1.18-.03.62-.55,1.1-1.18,1.07l-7.97-.37-7.72-.02c-.62,0-1.12-.51-1.12-1.13,0-.62.51-1.12,1.13-1.12ZM303.53,422.04h0c.62-.04,1.15.43,1.19,1.05.04.62-.43,1.15-1.06,1.19h0c-.62.04-1.15-.43-1.19-1.05s.43-1.15,1.06-1.19ZM294.52,422.97h0c.62-.07,1.17.38,1.24,1,.07.62-.38,1.17-1,1.24h0c-.62.07-1.17-.38-1.24-1-.07-.62.38-1.17,1-1.24ZM270.05,427.42l6.07-1.44,8.84-1.67.62-.09c.62-.09,1.18.34,1.27.95.09.62-.34,1.18-.95,1.27l-.52.07-8.73,1.65-6.07,1.44c-.6.14-1.21-.23-1.35-.84-.14-.6.23-1.21.84-1.35ZM261.3,429.61h0c.6-.16,1.21.21,1.37.81.15.6-.21,1.21-.81,1.37h0c-.6.16-1.21-.21-1.37-.81-.15-.6.21-1.21.81-1.37ZM252.57,431.79h0c.6-.15,1.21.22,1.36.82.15.6-.22,1.21-.82,1.36h0c-.6.15-1.21-.22-1.36-.82-.15-.6.22-1.21.82-1.36ZM228.49,437.42l15.34-3.56c.61-.14,1.21.24,1.35.84.14.61-.24,1.21-.84,1.35l-15.34,3.56c-.61.14-1.21-.24-1.35-.84-.14-.61.24-1.21.84-1.35ZM219.72,439.46h0c.61-.14,1.21.24,1.35.84.14.61-.24,1.21-.84,1.35h0c-.61.14-1.21-.24-1.35-.84-.14-.61.24-1.21.84-1.35ZM210.95,441.57h0c.6-.15,1.21.21,1.37.81.15.6-.21,1.21-.81,1.37h0c-.6.15-1.21-.21-1.37-.81-.15-.6.21-1.21.81-1.37ZM187.01,447.57l1.3-.25,8.73-2.09,5.18-1.39c.6-.16,1.22.19,1.38.79.16.6-.19,1.22-.79,1.38l-5.23,1.4-8.84,2.11-1.3.25c-.61.12-1.2-.28-1.32-.89-.12-.61.28-1.2.89-1.32ZM178.23,448.89h0c.62-.05,1.16.41,1.22,1.03.05.62-.41,1.16-1.03,1.22h0c-.62.05-1.16-.41-1.22-1.03-.05-.62.41-1.16,1.03-1.22ZM169.33,449.34h0c.62,0,1.13.5,1.13,1.12,0,.62-.5,1.13-1.12,1.13h0c-.62,0-1.13-.5-1.13-1.12,0-.62.5-1.13,1.12-1.13ZM144.61,448.77h1.23s1.5.06,1.5.06l1.71.06,1.9.07,4.29.17,4.76.15h.35c.62.02,1.12.53,1.11,1.15-.01.62-.52,1.12-1.14,1.11h-.38s-4.78-.16-4.78-.16l-4.29-.17-1.9-.07-1.69-.06-1.46-.04h-1.23c-.62-.02-1.12-.53-1.11-1.15,0-.62.52-1.12,1.14-1.11Z"/>
  </g>
  <g class="st67">
    <path class="st5" d="M496.09,446.86c5.86-2.23,23.43-11.15,35.14-13.38,11.71-2.23,23.43,0,35.14,0s23.43-2.23,35.14,0c11.71,2.23,23.43,12.49,35.14,13.38,11.71.89,23.43-6.24,35.14-8.03,11.71-1.78,23.43-2.23,35.14-2.68,11.71-.45,29.29,0,35.14,0"/>
  </g>
  <g class="st68">
    <polygon class="st22" points="642.34 57.5 651.09 57.5 664.22 57.5 694.84 57.5 694.84 76.75 694.84 85 694.84 90.5 664.22 90.5 651.09 90.5 642.34 90.5 642.34 85 636.85 90.77 642.34 76.75 642.34 57.5"/>
    <polygon class="st9" points="642.34 57.5 651.09 57.5 664.22 57.5 694.84 57.5 694.84 76.75 694.84 85 694.84 90.5 664.22 90.5 651.09 90.5 642.34 90.5 642.34 85 636.85 90.77 642.34 76.75 642.34 57.5"/>
  </g>
  <g class="st69">
    <text class="st25" transform="translate(645.5 83)"><tspan x="0" y="0">Eksmo</tspan></text>
  </g>
  <g class="st70">
    <polygon class="st22" points="571.84 334 581.93 334 597.05 334 632.34 334 632.34 353.25 632.34 361.5 632.34 367 597.05 367 581.93 367 571.84 367 571.84 361.5 566.31 366.15 571.84 353.25 571.84 334"/>
    <polygon class="st9" points="571.84 334 581.93 334 597.05 334 632.34 334 632.34 353.25 632.34 361.5 632.34 367 597.05 367 581.93 367 571.84 367 571.84 361.5 566.31 366.15 571.84 353.25 571.84 334"/>
  </g>
  <g class="st71">
    <text class="st25" transform="translate(575.22 359.5)"><tspan x="0" y="0">Raduga</tspan></text>
  </g>
  <g class="st64">
    <polygon class="st22" points="500.34 288.5 510.51 288.5 525.76 288.5 561.34 288.5 561.34 307.75 561.34 316 561.34 321.5 525.76 321.5 510.51 321.5 500.34 321.5 500.34 316 496.04 322.89 500.34 307.75 500.34 288.5"/>
    <polygon class="st9" points="500.34 288.5 510.51 288.5 525.76 288.5 561.34 288.5 561.34 307.75 561.34 316 561.34 321.5 525.76 321.5 510.51 321.5 500.34 321.5 500.34 316 496.04 322.89 500.34 307.75 500.34 288.5"/>
  </g>
  <g class="st62">
    <text class="st25" transform="translate(503.71 314)"><tspan x="0" y="0">Vagrius</tspan></text>
  </g>
  <g class="st65">
    <polygon class="st22" points="781.84 319 787.43 319 795.8 319 815.34 319 815.34 338.25 815.34 346.5 815.34 352 795.8 352 787.43 352 781.84 352 781.84 346.5 777.56 350.04 781.84 338.25 781.84 319"/>
    <polygon class="st9" points="781.84 319 787.43 319 795.8 319 815.34 319 815.34 338.25 815.34 346.5 815.34 352 795.8 352 787.43 352 781.84 352 781.84 346.5 777.56 350.04 781.84 338.25 781.84 319"/>
  </g>
  <g class="st63">
    <text class="st25" transform="translate(784.83 344.5)"><tspan x="0" y="0">AST</tspan></text>
  </g>
  <g class="st58">
    <text class="st26" transform="translate(23.66 459.5)"><tspan x="0" y="0">0</tspan></text>
  </g>
  <g class="st52">
    <text class="st26" transform="translate(13.96 405.5)"><tspan class="st122" x="0" y="0">2</tspan><tspan class="st100" x="10" y="0">0</tspan></text>
  </g>
  <g class="st53">
    <text class="st26" transform="translate(13.88 351.5)"><tspan class="st137" x="0" y="0">4</tspan><tspan x="10" y="0">0</tspan></text>
  </g>
  <g class="st54">
    <text class="st26" transform="translate(13.68 297.5)"><tspan x="0" y="0">60</tspan></text>
  </g>
  <g class="st55">
    <text class="st26" transform="translate(13.68 243.5)"><tspan x="0" y="0">80</tspan></text>
  </g>
  <g class="st56">
    <text class="st26" transform="translate(5.98 189.5)"><tspan class="st103" x="0" y="0">1</tspan><tspan class="st129" x="7.02" y="0">0</tspan><tspan class="st100" x="18" y="0">0</tspan></text>
  </g>
  <g class="st59">
    <text class="st26" transform="translate(6.62 135.5)"><tspan class="st103" x="0" y="0">1</tspan><tspan class="st122" x="7.02" y="0">2</tspan><tspan x="17.02" y="0">0</tspan></text>
  </g>
  <g class="st60">
    <text class="st26" transform="translate(6.54 81.5)"><tspan class="st103" x="0" y="0">1</tspan><tspan class="st136" x="7.02" y="0">4</tspan><tspan class="st100" x="17.02" y="0">0</tspan></text>
  </g>
  <g class="st61">
    <text class="st26" transform="translate(6.34 27.5)"><tspan class="st103" x="0" y="0">1</tspan><tspan class="st92" x="7.02" y="0">60</tspan></text>
  </g>
  <g class="st57">
    <text class="st26" transform="translate(90.93 492.5)"><tspan class="st103" x="0" y="0">1</tspan><tspan class="st92" x="7.02" y="0">994</tspan></text>
  </g>
  <g class="st78">
    <text class="st26" transform="translate(231.68 492.5)"><tspan class="st103" x="0" y="0">1</tspan><tspan class="st92" x="7.02" y="0">995</tspan></text>
  </g>
  <g class="st72">
    <text class="st26" transform="translate(372.09 492.5)"><tspan class="st103" x="0" y="0">1</tspan><tspan class="st92" x="7.02" y="0">996</tspan></text>
  </g>
  <g class="st73">
    <text class="st26" transform="translate(513.68 492.5)"><tspan class="st102" x="0" y="0">1</tspan><tspan class="st99" x="7.02" y="0">997</tspan></text>
  </g>
  <g class="st74">
    <text class="st26" transform="translate(653.34 492.5)"><tspan class="st102" x="0" y="0">1</tspan><tspan class="st99" x="7.02" y="0">998</tspan></text>
  </g>
  <g class="st75">
    <text class="st26" transform="translate(793.95 492.5)"><tspan class="st102" x="0" y="0">1</tspan><tspan class="st99" x="7.02" y="0">999</tspan></text>
  </g>
  <g class="st76">
    <line class="st3" x1="881.09" y1="93.25" x2="900.09" y2="93.25"/>
  </g>
  <g class="st79">
    <text class="st26" transform="translate(902.26 100.5)"><tspan class="st94" x="0" y="0">E</tspan><tspan x="7.98" y="0">k</tspan><tspan class="st115" x="15.98" y="0">s</tspan><tspan class="st135" x="23" y="0">m</tspan><tspan x="35.98" y="0">o</tspan></text>
  </g>
  <g class="st80">
    <line class="st14" x1="881.09" y1="128.75" x2="900.09" y2="128.75"/>
  </g>
  <g class="st81">
    <text class="st26" transform="translate(902.26 136)"><tspan class="st114" x="0" y="0">R</tspan><tspan class="st95" x="10.02" y="0">a</tspan><tspan class="st116" x="18.02" y="0">d</tspan><tspan class="st132" x="26.04" y="0">u</tspan><tspan class="st108" x="35.04" y="0">g</tspan><tspan x="43.06" y="0">a</tspan></text>
  </g>
  <g class="st77">
    <line class="st11" x1="881.09" y1="164.25" x2="900.09" y2="164.25"/>
  </g>
  <g class="st42">
    <text class="st26" transform="translate(902.26 171.5)"><tspan class="st136" x="0" y="0">V</tspan><tspan class="st95" x="10" y="0">a</tspan><tspan class="st111" x="18" y="0">g</tspan><tspan class="st96" x="26" y="0">r</tspan><tspan class="st119" x="32" y="0">i</tspan><tspan class="st130" x="36.02" y="0">u</tspan><tspan x="45.02" y="0">s</tspan></text>
  </g>
  <g class="st49">
    <line class="st12" x1="881.09" y1="199.25" x2="900.09" y2="199.25"/>
  </g>
  <g class="st44">
    <text class="st26" transform="translate(902.26 206.5)"><tspan class="st121" x="0" y="0">A</tspan><tspan class="st117" x="10" y="0">S</tspan><tspan class="st99" x="19.02" y="0">T</tspan></text>
  </g>
  <g class="st48">
    <line class="st18" x1="881.09" y1="234.75" x2="900.09" y2="234.75"/>
  </g>
  <g class="st46">
    <text class="st26" transform="translate(902.26 242)"><tspan class="st125" x="0" y="0">F</tspan><tspan class="st96" x="8" y="0">a</tspan><tspan class="st118" x="16" y="0">n</tspan><tspan class="st108" x="24" y="0">t</tspan><tspan class="st93" x="29" y="0">o</tspan><tspan x="37" y="0">m</tspan></text>
  </g>
  <g class="st43">
    <line class="st6" x1="881.09" y1="270.25" x2="900.09" y2="270.25"/>
  </g>
  <g class="st47">
    <text class="st26" transform="translate(902.26 277.5)"><tspan class="st114" x="0" y="0">R</tspan><tspan class="st138" x="10.02" y="0">M</tspan><tspan class="st112" x="23.02" y="0">Z</tspan><tspan class="st91" x="31.04" y="0">h</tspan></text>
  </g>
  <g class="st45">
    <line class="st2" x1="881.09" y1="305.75" x2="900.09" y2="305.75"/>
  </g>
  <g class="st50">
    <text class="st26" transform="translate(902.26 313)"><tspan class="st101" x="0" y="0">T</tspan><tspan class="st127" x="8.02" y="0">s</tspan><tspan class="st107" x="16.02" y="0">e</tspan><tspan class="st128" x="23.04" y="0">n</tspan><tspan class="st110" x="32.02" y="0">t</tspan><tspan class="st95" x="37.04" y="0">r</tspan><tspan class="st131" x="43.04" y="0">p</tspan><tspan class="st104" x="52.04" y="0">o</tspan><tspan class="st126" x="59.06" y="0">l</tspan><tspan class="st113" x="64.06" y="0">i</tspan><tspan class="st109" x="68.06" y="0">g</tspan><tspan class="st98" x="76.08" y="0">r</tspan><tspan class="st95" x="82.06" y="0">a</tspan><tspan x="90.06" y="0">f</tspan></text>
  </g>
  <g class="st51">
    <path class="st0" d="M900.09,339.63c.62,0,1.12.5,1.12,1.12s-.5,1.12-1.12,1.12v-2.25ZM881.09,341.87c-.62,0-1.12-.5-1.12-1.12s.5-1.12,1.12-1.12v2.25ZM881.09,341.5h19v.38h-19v-.38ZM881.09,340.37h19v.75h-19v-.75ZM881.09,339.62h19v.38h-19v-.38Z"/>
  </g>
  <g class="st38">
    <text class="st26" transform="translate(902.26 348)"><tspan class="st124" x="0" y="0">P</tspan><tspan class="st96" x="10" y="0">a</tspan><tspan class="st118" x="18" y="0">n</tspan><tspan class="st93" x="26" y="0">o</tspan><tspan class="st97" x="34" y="0">r</tspan><tspan class="st96" x="39.98" y="0">a</tspan><tspan class="st133" x="47.98" y="0">m</tspan><tspan class="st99" x="60.98" y="0">a</tspan></text>
  </g>
  <g class="st37">
    <line class="st21" x1="881.09" y1="376.25" x2="900.09" y2="376.25"/>
  </g>
  <g class="st39">
    <text class="st26" transform="translate(902.26 383.5)"><tspan class="st120" x="0" y="0">O</tspan><tspan class="st111" x="11" y="0">L</tspan><tspan class="st138" x="18.02" y="0">M</tspan><tspan class="st121" x="31.02" y="0">A</tspan><tspan class="st105" x="41.02" y="0">-</tspan><tspan class="st124" x="46.04" y="0">P</tspan><tspan class="st95" x="56.04" y="0">r</tspan><tspan class="st134" x="62.04" y="0">e</tspan><tspan class="st116" x="70.04" y="0">s</tspan><tspan x="77.06" y="0">s</tspan></text>
  </g>
  <g class="st41">
    <line class="st17" x1="881.09" y1="411.75" x2="900.09" y2="411.75"/>
  </g>
  <g class="st40">
    <text class="st26" transform="translate(902.26 419)"><tspan class="st121" x="0" y="0">A</tspan><tspan class="st106" x="10" y="0">r</tspan><tspan class="st134" x="15.02" y="0">m</tspan><tspan class="st96" x="28" y="0">a</tspan><tspan class="st127" x="36" y="0">d</tspan><tspan class="st99" x="45" y="0">a</tspan></text>
  </g>
</svg>